M48
; DRILL file {KiCad 9.0.6} date 2026-01-14T16:12:11+1100
; FORMAT={-:-/ absolute / metric / decimal}
; #@! TF.CreationDate,2026-01-14T16:12:11+11:00
; #@! TF.GenerationSoftware,Kicad,Pcbnew,9.0.6
; #@! TF.FileFunction,Plated,1,2,PTH
FMAT,2
METRIC
; #@! TA.AperFunction,Plated,PTH,ViaDrill
T1C0.300
; #@! TA.AperFunction,Plated,PTH,ComponentDrill
T2C1.500
; #@! TA.AperFunction,Plated,PTH,ComponentDrill
T3C2.500
%
G90
G05
T1
X17.778Y-114.607
X20.539Y-101.778
X21.288Y-94.902
X22.231Y-95.405
X29.109Y-118.369
X30.48Y-114.608
X35.738Y-102.058
X37.318Y-109.092
X42.529Y-77.194
X42.529Y-97.817
X42.529Y-115.567
X45.045Y-57.055
X47.844Y-52.923
X50.406Y-112.124
X52.682Y-97.739
X53.41Y-74.121
X57.018Y-77.718
X59.784Y-115.37
X83.013Y-48.628
X84.014Y-94.902
X84.512Y-68.339
X84.512Y-107.817
X99.007Y-47.928
X101.999Y-94.902
X102.799Y-71.291
X102.833Y-52.76
X104.997Y-62.436
X115.326Y-89.747
X119.985Y-109.659
X120.199Y-51.498
X125.44Y-118.513
X125.676Y-76.187
X125.98Y-91.95
X128.754Y-95.414
X137.97Y-100.805
X152.958Y-77.885
X152.958Y-98.715
X153.064Y-57.055
X155.139Y-117.746
X156.164Y-115.493
X169.843Y-51.709
X170.944Y-115.562
X176.09Y-72.155
X176.939Y-95.239
X182.934Y-74.984
X182.934Y-95.814
X197.922Y-113.298
X198.3Y-88.999
X198.306Y-109.659
X201.773Y-69.216
X202.512Y-72.65
X207.181Y-71.448
X207.565Y-90.959
X215.739Y-94.902
X217.304Y-112.943
X218.627Y-53.861
X219.338Y-72.483
X232.679Y-70.623
X232.679Y-91.453
X236.771Y-77.194
X239.889Y-105.741
X240.369Y-97.853
X240.369Y-118.513
X242.886Y-57.055
X244.943Y-97.155
X250.29Y-103.152
X263.086Y-126.607
X263.95Y-104.221
X267.563Y-107.381
X269.066Y-103.409
X269.865Y-97.853
X270.698Y-97.031
X276.421Y-115.26
X278.46Y-95.789
T2
X24.94Y-128.46
X31.29Y-125.92
X46.02Y-52.46
X46.02Y-94.46
X46.02Y-115.46
X46.1Y-73.46
X52.37Y-49.92
X52.37Y-91.92
X52.37Y-112.92
X52.45Y-70.92
X67.02Y-69.46
X67.02Y-90.46
X67.1Y-48.46
X67.1Y-111.46
X73.37Y-66.92
X73.37Y-87.92
X73.45Y-45.92
X73.45Y-108.92
X88.02Y-44.46
X88.02Y-86.46
X88.02Y-107.46
X88.1Y-65.46
X94.37Y-41.92
X94.37Y-83.92
X94.37Y-104.92
X94.45Y-62.92
X109.27Y-48.46
X109.27Y-90.46
X109.27Y-111.46
X109.35Y-69.46
X115.62Y-45.92
X115.62Y-87.92
X115.62Y-108.92
X115.7Y-66.92
X132.11Y-52.46
X132.11Y-73.46
X132.11Y-94.46
X132.11Y-115.46
X138.46Y-49.92
X138.46Y-70.92
X138.46Y-91.92
X138.46Y-112.92
X158.19Y-52.46
X158.19Y-73.46
X158.19Y-94.46
X158.19Y-115.46
X164.54Y-49.92
X164.54Y-70.92
X164.54Y-91.92
X164.54Y-112.92
X179.11Y-48.46
X179.11Y-69.46
X179.11Y-90.46
X179.11Y-111.46
X185.46Y-45.92
X185.46Y-66.92
X185.46Y-87.92
X185.46Y-108.92
X201.78Y-44.46
X201.78Y-65.46
X201.78Y-86.46
X201.86Y-107.46
X208.13Y-41.92
X208.13Y-62.92
X208.13Y-83.92
X208.21Y-104.92
X222.86Y-48.46
X222.86Y-69.46
X222.86Y-90.46
X222.94Y-111.46
X229.21Y-45.92
X229.21Y-66.92
X229.21Y-87.92
X229.29Y-108.92
X243.94Y-52.46
X243.94Y-73.46
X243.94Y-94.46
X243.94Y-115.46
X250.29Y-49.92
X250.29Y-70.92
X250.29Y-91.92
X250.29Y-112.92
X264.94Y-128.46
X271.29Y-125.92
T3
X21.238Y-112.675
X24.639Y-112.675
X272.322Y-105.035
X275.721Y-105.035
M30
