%TF.GenerationSoftware,KiCad,Pcbnew,9.0.6*%
%TF.CreationDate,2026-01-14T16:12:01+11:00*%
%TF.ProjectId,Split Keyboard,53706c69-7420-44b6-9579-626f6172642e,rev?*%
%TF.SameCoordinates,Original*%
%TF.FileFunction,Soldermask,Bot*%
%TF.FilePolarity,Negative*%
%FSLAX46Y46*%
G04 Gerber Fmt 4.6, Leading zero omitted, Abs format (unit mm)*
G04 Created by KiCad (PCBNEW 9.0.6) date 2026-01-14 16:12:01*
%MOMM*%
%LPD*%
G01*
G04 APERTURE LIST*
G04 Aperture macros list*
%AMRoundRect*
0 Rectangle with rounded corners*
0 $1 Rounding radius*
0 $2 $3 $4 $5 $6 $7 $8 $9 X,Y pos of 4 corners*
0 Add a 4 corners polygon primitive as box body*
4,1,4,$2,$3,$4,$5,$6,$7,$8,$9,$2,$3,0*
0 Add four circle primitives for the rounded corners*
1,1,$1+$1,$2,$3*
1,1,$1+$1,$4,$5*
1,1,$1+$1,$6,$7*
1,1,$1+$1,$8,$9*
0 Add four rect primitives between the rounded corners*
20,1,$1+$1,$2,$3,$4,$5,0*
20,1,$1+$1,$4,$5,$6,$7,0*
20,1,$1+$1,$6,$7,$8,$9,0*
20,1,$1+$1,$8,$9,$2,$3,0*%
G04 Aperture macros list end*
%ADD10C,1.700000*%
%ADD11C,4.000000*%
%ADD12C,2.200000*%
%ADD13C,0.500000*%
%ADD14RoundRect,0.775400X0.775400X-0.775400X0.775400X0.775400X-0.775400X0.775400X-0.775400X-0.775400X0*%
%ADD15RoundRect,0.775400X-0.775400X0.775400X-0.775400X-0.775400X0.775400X-0.775400X0.775400X0.775400X0*%
G04 APERTURE END LIST*
D10*
%TO.C,SW20*%
X86830000Y-68000000D03*
D11*
X91910000Y-68000000D03*
D10*
X96990000Y-68000000D03*
D12*
X94450000Y-62920000D03*
X88100000Y-65460000D03*
%TD*%
D10*
%TO.C,SW36*%
X130840000Y-76000000D03*
D11*
X135920000Y-76000000D03*
D10*
X141000000Y-76000000D03*
D12*
X138460000Y-70920000D03*
X132110000Y-73460000D03*
%TD*%
D10*
%TO.C,SW42*%
X23670000Y-131000000D03*
D11*
X28750000Y-131000000D03*
D10*
X33830000Y-131000000D03*
D12*
X31290000Y-125920000D03*
X24940000Y-128460000D03*
%TD*%
D10*
%TO.C,SW37*%
X242670000Y-76000000D03*
D11*
X247750000Y-76000000D03*
D10*
X252830000Y-76000000D03*
D12*
X250290000Y-70920000D03*
X243940000Y-73460000D03*
%TD*%
D10*
%TO.C,SW40*%
X130840000Y-118000000D03*
D11*
X135920000Y-118000000D03*
D10*
X141000000Y-118000000D03*
D12*
X138460000Y-112920000D03*
X132110000Y-115460000D03*
%TD*%
D13*
%TO.C,B2*%
X146170000Y-120750000D03*
X151170000Y-120750000D03*
X146170000Y-120000000D03*
X146170000Y-120000000D03*
X151170000Y-120000000D03*
X151170000Y-120000000D03*
X146170000Y-119250000D03*
X151170000Y-119250000D03*
X146170000Y-118500000D03*
X151170000Y-118500000D03*
X146170000Y-117750000D03*
X151170000Y-117750000D03*
X146170000Y-117000000D03*
X151170000Y-117000000D03*
X146170000Y-116250000D03*
X151170000Y-116250000D03*
X146170000Y-115500000D03*
X151170000Y-115500000D03*
X146170000Y-114750000D03*
X151170000Y-114750000D03*
X146170000Y-114000000D03*
X151170000Y-114000000D03*
X146170000Y-113250000D03*
X151170000Y-113250000D03*
%TD*%
D10*
%TO.C,SW38*%
X130840000Y-97000000D03*
D11*
X135920000Y-97000000D03*
D10*
X141000000Y-97000000D03*
D12*
X138460000Y-91920000D03*
X132110000Y-94460000D03*
%TD*%
D10*
%TO.C,SW27*%
X221590000Y-51000000D03*
D11*
X226670000Y-51000000D03*
D10*
X231750000Y-51000000D03*
D12*
X229210000Y-45920000D03*
X222860000Y-48460000D03*
%TD*%
D10*
%TO.C,SW6*%
X44750000Y-97000000D03*
D11*
X49830000Y-97000000D03*
D10*
X54910000Y-97000000D03*
D12*
X52370000Y-91920000D03*
X46020000Y-94460000D03*
%TD*%
D10*
%TO.C,SW12*%
X65750000Y-72000000D03*
D11*
X70830000Y-72000000D03*
D10*
X75910000Y-72000000D03*
D12*
X73370000Y-66920000D03*
X67020000Y-69460000D03*
%TD*%
D10*
%TO.C,SW8*%
X44750000Y-118000000D03*
D11*
X49830000Y-118000000D03*
D10*
X54910000Y-118000000D03*
D12*
X52370000Y-112920000D03*
X46020000Y-115460000D03*
%TD*%
D10*
%TO.C,SW14*%
X65750000Y-93000000D03*
D11*
X70830000Y-93000000D03*
D10*
X75910000Y-93000000D03*
D12*
X73370000Y-87920000D03*
X67020000Y-90460000D03*
%TD*%
D10*
%TO.C,SW17*%
X177840000Y-114000000D03*
D11*
X182920000Y-114000000D03*
D10*
X188000000Y-114000000D03*
D12*
X185460000Y-108920000D03*
X179110000Y-111460000D03*
%TD*%
D10*
%TO.C,SW25*%
X200590000Y-110000000D03*
D11*
X205670000Y-110000000D03*
D10*
X210750000Y-110000000D03*
D12*
X208210000Y-104920000D03*
X201860000Y-107460000D03*
%TD*%
D10*
%TO.C,SW13*%
X177840000Y-72000000D03*
D11*
X182920000Y-72000000D03*
D10*
X188000000Y-72000000D03*
D12*
X185460000Y-66920000D03*
X179110000Y-69460000D03*
%TD*%
D14*
%TO.C,U1*%
X272321500Y-105035000D03*
X275721500Y-105035000D03*
%TD*%
D10*
%TO.C,SW16*%
X65830000Y-114000000D03*
D11*
X70910000Y-114000000D03*
D10*
X75990000Y-114000000D03*
D12*
X73450000Y-108920000D03*
X67100000Y-111460000D03*
%TD*%
D10*
%TO.C,SW28*%
X108080000Y-72000000D03*
D11*
X113160000Y-72000000D03*
D10*
X118240000Y-72000000D03*
D12*
X115700000Y-66920000D03*
X109350000Y-69460000D03*
%TD*%
D10*
%TO.C,SW24*%
X86750000Y-110000000D03*
D11*
X91830000Y-110000000D03*
D10*
X96910000Y-110000000D03*
D12*
X94370000Y-104920000D03*
X88020000Y-107460000D03*
%TD*%
D10*
%TO.C,SW22*%
X86750000Y-89000000D03*
D11*
X91830000Y-89000000D03*
D10*
X96910000Y-89000000D03*
D12*
X94370000Y-83920000D03*
X88020000Y-86460000D03*
%TD*%
D15*
%TO.C,U2*%
X24638500Y-112675000D03*
X21238500Y-112675000D03*
%TD*%
D10*
%TO.C,SW15*%
X177840000Y-93000000D03*
D11*
X182920000Y-93000000D03*
D10*
X188000000Y-93000000D03*
D12*
X185460000Y-87920000D03*
X179110000Y-90460000D03*
%TD*%
D10*
%TO.C,SW4*%
X44830000Y-76000000D03*
D11*
X49910000Y-76000000D03*
D10*
X54990000Y-76000000D03*
D12*
X52450000Y-70920000D03*
X46100000Y-73460000D03*
%TD*%
D10*
%TO.C,SW11*%
X177840000Y-51000000D03*
D11*
X182920000Y-51000000D03*
D10*
X188000000Y-51000000D03*
D12*
X185460000Y-45920000D03*
X179110000Y-48460000D03*
%TD*%
D10*
%TO.C,SW33*%
X221670000Y-114000000D03*
D11*
X226750000Y-114000000D03*
D10*
X231830000Y-114000000D03*
D12*
X229290000Y-108920000D03*
X222940000Y-111460000D03*
%TD*%
D13*
%TO.C,B1*%
X146170000Y-90750000D03*
X151170000Y-90750000D03*
X146170000Y-90000000D03*
X146170000Y-90000000D03*
X151170000Y-90000000D03*
X151170000Y-90000000D03*
X146170000Y-89250000D03*
X151170000Y-89250000D03*
X146170000Y-88500000D03*
X151170000Y-88500000D03*
X146170000Y-87750000D03*
X151170000Y-87750000D03*
X146170000Y-87000000D03*
X151170000Y-87000000D03*
X146170000Y-86250000D03*
X151170000Y-86250000D03*
X146170000Y-85500000D03*
X151170000Y-85500000D03*
X146170000Y-84750000D03*
X151170000Y-84750000D03*
X146170000Y-84000000D03*
X151170000Y-84000000D03*
X146170000Y-83250000D03*
X151170000Y-83250000D03*
%TD*%
D10*
%TO.C,SW23*%
X200510000Y-89000000D03*
D11*
X205590000Y-89000000D03*
D10*
X210670000Y-89000000D03*
D12*
X208130000Y-83920000D03*
X201780000Y-86460000D03*
%TD*%
D10*
%TO.C,SW5*%
X156920000Y-76000000D03*
D11*
X162000000Y-76000000D03*
D10*
X167080000Y-76000000D03*
D12*
X164540000Y-70920000D03*
X158190000Y-73460000D03*
%TD*%
D10*
%TO.C,SW3*%
X156920000Y-55000000D03*
D11*
X162000000Y-55000000D03*
D10*
X167080000Y-55000000D03*
D12*
X164540000Y-49920000D03*
X158190000Y-52460000D03*
%TD*%
D10*
%TO.C,SW18*%
X86750000Y-47000000D03*
D11*
X91830000Y-47000000D03*
D10*
X96910000Y-47000000D03*
D12*
X94370000Y-41920000D03*
X88020000Y-44460000D03*
%TD*%
D10*
%TO.C,SW1*%
X263670000Y-131000000D03*
D11*
X268750000Y-131000000D03*
D10*
X273830000Y-131000000D03*
D12*
X271290000Y-125920000D03*
X264940000Y-128460000D03*
%TD*%
D10*
%TO.C,SW34*%
X130840000Y-55000000D03*
D11*
X135920000Y-55000000D03*
D10*
X141000000Y-55000000D03*
D12*
X138460000Y-49920000D03*
X132110000Y-52460000D03*
%TD*%
D10*
%TO.C,SW2*%
X44750000Y-55000000D03*
D11*
X49830000Y-55000000D03*
D10*
X54910000Y-55000000D03*
D12*
X52370000Y-49920000D03*
X46020000Y-52460000D03*
%TD*%
D10*
%TO.C,SW41*%
X242670000Y-118000000D03*
D11*
X247750000Y-118000000D03*
D10*
X252830000Y-118000000D03*
D12*
X250290000Y-112920000D03*
X243940000Y-115460000D03*
%TD*%
D10*
%TO.C,SW9*%
X156920000Y-118000000D03*
D11*
X162000000Y-118000000D03*
D10*
X167080000Y-118000000D03*
D12*
X164540000Y-112920000D03*
X158190000Y-115460000D03*
%TD*%
D10*
%TO.C,SW29*%
X221590000Y-72000000D03*
D11*
X226670000Y-72000000D03*
D10*
X231750000Y-72000000D03*
D12*
X229210000Y-66920000D03*
X222860000Y-69460000D03*
%TD*%
D10*
%TO.C,SW10*%
X65830000Y-51000000D03*
D11*
X70910000Y-51000000D03*
D10*
X75990000Y-51000000D03*
D12*
X73450000Y-45920000D03*
X67100000Y-48460000D03*
%TD*%
D10*
%TO.C,SW30*%
X108000000Y-93000000D03*
D11*
X113080000Y-93000000D03*
D10*
X118160000Y-93000000D03*
D12*
X115620000Y-87920000D03*
X109270000Y-90460000D03*
%TD*%
D10*
%TO.C,SW39*%
X242670000Y-97000000D03*
D11*
X247750000Y-97000000D03*
D10*
X252830000Y-97000000D03*
D12*
X250290000Y-91920000D03*
X243940000Y-94460000D03*
%TD*%
D10*
%TO.C,SW26*%
X108000000Y-51000000D03*
D11*
X113080000Y-51000000D03*
D10*
X118160000Y-51000000D03*
D12*
X115620000Y-45920000D03*
X109270000Y-48460000D03*
%TD*%
D10*
%TO.C,SW7*%
X156920000Y-97000000D03*
D11*
X162000000Y-97000000D03*
D10*
X167080000Y-97000000D03*
D12*
X164540000Y-91920000D03*
X158190000Y-94460000D03*
%TD*%
D10*
%TO.C,SW21*%
X200510000Y-68000000D03*
D11*
X205590000Y-68000000D03*
D10*
X210670000Y-68000000D03*
D12*
X208130000Y-62920000D03*
X201780000Y-65460000D03*
%TD*%
D10*
%TO.C,SW19*%
X200510000Y-47000000D03*
D11*
X205590000Y-47000000D03*
D10*
X210670000Y-47000000D03*
D12*
X208130000Y-41920000D03*
X201780000Y-44460000D03*
%TD*%
D13*
%TO.C,B3*%
X146170000Y-57750000D03*
X151170000Y-57750000D03*
X146170000Y-57000000D03*
X146170000Y-57000000D03*
X151170000Y-57000000D03*
X151170000Y-57000000D03*
X146170000Y-56250000D03*
X151170000Y-56250000D03*
X146170000Y-55500000D03*
X151170000Y-55500000D03*
X146170000Y-54750000D03*
X151170000Y-54750000D03*
X146170000Y-54000000D03*
X151170000Y-54000000D03*
X146170000Y-53250000D03*
X151170000Y-53250000D03*
X146170000Y-52500000D03*
X151170000Y-52500000D03*
X146170000Y-51750000D03*
X151170000Y-51750000D03*
X146170000Y-51000000D03*
X151170000Y-51000000D03*
X146170000Y-50250000D03*
X151170000Y-50250000D03*
%TD*%
D10*
%TO.C,SW31*%
X221590000Y-93000000D03*
D11*
X226670000Y-93000000D03*
D10*
X231750000Y-93000000D03*
D12*
X229210000Y-87920000D03*
X222860000Y-90460000D03*
%TD*%
D10*
%TO.C,SW35*%
X242670000Y-55000000D03*
D11*
X247750000Y-55000000D03*
D10*
X252830000Y-55000000D03*
D12*
X250290000Y-49920000D03*
X243940000Y-52460000D03*
%TD*%
D10*
%TO.C,SW32*%
X108000000Y-114000000D03*
D11*
X113080000Y-114000000D03*
D10*
X118160000Y-114000000D03*
D12*
X115620000Y-108920000D03*
X109270000Y-111460000D03*
%TD*%
M02*
