M48
; DRILL file {KiCad 9.0.6} date 2026-01-14T16:12:11+1100
; FORMAT={-:-/ absolute / metric / decimal}
; #@! TF.CreationDate,2026-01-14T16:12:11+11:00
; #@! TF.GenerationSoftware,Kicad,Pcbnew,9.0.6
; #@! TF.FileFunction,NonPlated,1,2,NPTH
FMAT,2
METRIC
; #@! TA.AperFunction,NonPlated,NPTH,ComponentDrill
T1C0.500
; #@! TA.AperFunction,NonPlated,NPTH,ComponentDrill
T2C1.700
; #@! TA.AperFunction,NonPlated,NPTH,ComponentDrill
T3C4.000
%
G90
G05
T1
X146.17Y-50.25
X146.17Y-51.0
X146.17Y-51.75
X146.17Y-52.5
X146.17Y-53.25
X146.17Y-54.0
X146.17Y-54.75
X146.17Y-55.5
X146.17Y-56.25
X146.17Y-57.0
X146.17Y-57.0
X146.17Y-57.75
X146.17Y-83.25
X146.17Y-84.0
X146.17Y-84.75
X146.17Y-85.5
X146.17Y-86.25
X146.17Y-87.0
X146.17Y-87.75
X146.17Y-88.5
X146.17Y-89.25
X146.17Y-90.0
X146.17Y-90.0
X146.17Y-90.75
X146.17Y-113.25
X146.17Y-114.0
X146.17Y-114.75
X146.17Y-115.5
X146.17Y-116.25
X146.17Y-117.0
X146.17Y-117.75
X146.17Y-118.5
X146.17Y-119.25
X146.17Y-120.0
X146.17Y-120.0
X146.17Y-120.75
X151.17Y-50.25
X151.17Y-51.0
X151.17Y-51.75
X151.17Y-52.5
X151.17Y-53.25
X151.17Y-54.0
X151.17Y-54.75
X151.17Y-55.5
X151.17Y-56.25
X151.17Y-57.0
X151.17Y-57.0
X151.17Y-57.75
X151.17Y-83.25
X151.17Y-84.0
X151.17Y-84.75
X151.17Y-85.5
X151.17Y-86.25
X151.17Y-87.0
X151.17Y-87.75
X151.17Y-88.5
X151.17Y-89.25
X151.17Y-90.0
X151.17Y-90.0
X151.17Y-90.75
X151.17Y-113.25
X151.17Y-114.0
X151.17Y-114.75
X151.17Y-115.5
X151.17Y-116.25
X151.17Y-117.0
X151.17Y-117.75
X151.17Y-118.5
X151.17Y-119.25
X151.17Y-120.0
X151.17Y-120.0
X151.17Y-120.75
T2
X23.67Y-131.0
X33.83Y-131.0
X44.75Y-55.0
X44.75Y-97.0
X44.75Y-118.0
X44.83Y-76.0
X54.91Y-55.0
X54.91Y-97.0
X54.91Y-118.0
X54.99Y-76.0
X65.75Y-72.0
X65.75Y-93.0
X65.83Y-51.0
X65.83Y-114.0
X75.91Y-72.0
X75.91Y-93.0
X75.99Y-51.0
X75.99Y-114.0
X86.75Y-47.0
X86.75Y-89.0
X86.75Y-110.0
X86.83Y-68.0
X96.91Y-47.0
X96.91Y-89.0
X96.91Y-110.0
X96.99Y-68.0
X108.0Y-51.0
X108.0Y-93.0
X108.0Y-114.0
X108.08Y-72.0
X118.16Y-51.0
X118.16Y-93.0
X118.16Y-114.0
X118.24Y-72.0
X130.84Y-55.0
X130.84Y-76.0
X130.84Y-97.0
X130.84Y-118.0
X141.0Y-55.0
X141.0Y-76.0
X141.0Y-97.0
X141.0Y-118.0
X156.92Y-55.0
X156.92Y-76.0
X156.92Y-97.0
X156.92Y-118.0
X167.08Y-55.0
X167.08Y-76.0
X167.08Y-97.0
X167.08Y-118.0
X177.84Y-51.0
X177.84Y-72.0
X177.84Y-93.0
X177.84Y-114.0
X188.0Y-51.0
X188.0Y-72.0
X188.0Y-93.0
X188.0Y-114.0
X200.51Y-47.0
X200.51Y-68.0
X200.51Y-89.0
X200.59Y-110.0
X210.67Y-47.0
X210.67Y-68.0
X210.67Y-89.0
X210.75Y-110.0
X221.59Y-51.0
X221.59Y-72.0
X221.59Y-93.0
X221.67Y-114.0
X231.75Y-51.0
X231.75Y-72.0
X231.75Y-93.0
X231.83Y-114.0
X242.67Y-55.0
X242.67Y-76.0
X242.67Y-97.0
X242.67Y-118.0
X252.83Y-55.0
X252.83Y-76.0
X252.83Y-97.0
X252.83Y-118.0
X263.67Y-131.0
X273.83Y-131.0
T3
X28.75Y-131.0
X49.83Y-55.0
X49.83Y-97.0
X49.83Y-118.0
X49.91Y-76.0
X70.83Y-72.0
X70.83Y-93.0
X70.91Y-51.0
X70.91Y-114.0
X91.83Y-47.0
X91.83Y-89.0
X91.83Y-110.0
X91.91Y-68.0
X113.08Y-51.0
X113.08Y-93.0
X113.08Y-114.0
X113.16Y-72.0
X135.92Y-55.0
X135.92Y-76.0
X135.92Y-97.0
X135.92Y-118.0
X162.0Y-55.0
X162.0Y-76.0
X162.0Y-97.0
X162.0Y-118.0
X182.92Y-51.0
X182.92Y-72.0
X182.92Y-93.0
X182.92Y-114.0
X205.59Y-47.0
X205.59Y-68.0
X205.59Y-89.0
X205.67Y-110.0
X226.67Y-51.0
X226.67Y-72.0
X226.67Y-93.0
X226.75Y-114.0
X247.75Y-55.0
X247.75Y-76.0
X247.75Y-97.0
X247.75Y-118.0
X268.75Y-131.0
M30
