%TF.GenerationSoftware,KiCad,Pcbnew,9.0.6*%
%TF.CreationDate,2026-01-14T16:12:01+11:00*%
%TF.ProjectId,Split Keyboard,53706c69-7420-44b6-9579-626f6172642e,rev?*%
%TF.SameCoordinates,Original*%
%TF.FileFunction,Paste,Top*%
%TF.FilePolarity,Positive*%
%FSLAX46Y46*%
G04 Gerber Fmt 4.6, Leading zero omitted, Abs format (unit mm)*
G04 Created by KiCad (PCBNEW 9.0.6) date 2026-01-14 16:12:01*
%MOMM*%
%LPD*%
G01*
G04 APERTURE LIST*
G04 Aperture macros list*
%AMRoundRect*
0 Rectangle with rounded corners*
0 $1 Rounding radius*
0 $2 $3 $4 $5 $6 $7 $8 $9 X,Y pos of 4 corners*
0 Add a 4 corners polygon primitive as box body*
4,1,4,$2,$3,$4,$5,$6,$7,$8,$9,$2,$3,0*
0 Add four circle primitives for the rounded corners*
1,1,$1+$1,$2,$3*
1,1,$1+$1,$4,$5*
1,1,$1+$1,$6,$7*
1,1,$1+$1,$8,$9*
0 Add four rect primitives between the rounded corners*
20,1,$1+$1,$2,$3,$4,$5,0*
20,1,$1+$1,$4,$5,$6,$7,0*
20,1,$1+$1,$6,$7,$8,$9,0*
20,1,$1+$1,$8,$9,$2,$3,0*%
G04 Aperture macros list end*
%ADD10RoundRect,0.225000X0.375000X-0.225000X0.375000X0.225000X-0.375000X0.225000X-0.375000X-0.225000X0*%
%ADD11RoundRect,0.250000X-0.262500X-0.450000X0.262500X-0.450000X0.262500X0.450000X-0.262500X0.450000X0*%
%ADD12RoundRect,0.500000X-0.500000X0.875000X-0.500000X-0.875000X0.500000X-0.875000X0.500000X0.875000X0*%
%ADD13RoundRect,0.275000X0.975000X0.275000X-0.975000X0.275000X-0.975000X-0.275000X0.975000X-0.275000X0*%
%ADD14C,1.700000*%
%ADD15RoundRect,0.500000X0.500000X-0.875000X0.500000X0.875000X-0.500000X0.875000X-0.500000X-0.875000X0*%
%ADD16RoundRect,0.275000X-0.975000X-0.275000X0.975000X-0.275000X0.975000X0.275000X-0.975000X0.275000X0*%
G04 APERTURE END LIST*
D10*
%TO.C,D14*%
X61910000Y-93650000D03*
X61910000Y-90350000D03*
%TD*%
%TO.C,D18*%
X82910000Y-47650000D03*
X82910000Y-44350000D03*
%TD*%
%TO.C,D26*%
X104160000Y-51650000D03*
X104160000Y-48350000D03*
%TD*%
D11*
%TO.C,R4*%
X26425000Y-94250000D03*
X28250000Y-94250000D03*
%TD*%
D10*
%TO.C,D11*%
X173920000Y-51650000D03*
X173920000Y-48350000D03*
%TD*%
%TO.C,D8*%
X40910000Y-118650000D03*
X40910000Y-115350000D03*
%TD*%
%TO.C,D6*%
X40910000Y-97650000D03*
X40910000Y-94350000D03*
%TD*%
%TO.C,D40*%
X127000000Y-118650000D03*
X127000000Y-115350000D03*
%TD*%
%TO.C,D41*%
X238750000Y-118650000D03*
X238750000Y-115350000D03*
%TD*%
D11*
%TO.C,R2*%
X17675000Y-94250000D03*
X19500000Y-94250000D03*
%TD*%
D10*
%TO.C,D4*%
X40910000Y-76650000D03*
X40910000Y-73350000D03*
%TD*%
%TO.C,D39*%
X238750000Y-97650000D03*
X238750000Y-94350000D03*
%TD*%
%TO.C,D34*%
X126000000Y-51650000D03*
X126000000Y-48350000D03*
%TD*%
%TO.C,D33*%
X217670000Y-114650000D03*
X217670000Y-111350000D03*
%TD*%
%TO.C,D17*%
X173920000Y-114650000D03*
X173920000Y-111350000D03*
%TD*%
D12*
%TO.C,U1*%
X280341500Y-101425000D03*
X277801500Y-101425000D03*
X275261500Y-101425000D03*
X272721500Y-101425000D03*
X270181500Y-101425000D03*
X267641500Y-101425000D03*
X265101500Y-101425000D03*
X265101500Y-117590000D03*
X267641500Y-117590000D03*
X270181500Y-117590000D03*
X272721500Y-117590000D03*
X275261500Y-117590000D03*
X277801500Y-117590000D03*
X280341500Y-117590000D03*
D13*
X263484600Y-113290000D03*
X263484600Y-115195000D03*
D14*
X281290000Y-108210000D03*
X281290000Y-110750000D03*
X278750000Y-108210000D03*
X278750000Y-110750000D03*
%TD*%
D10*
%TO.C,D7*%
X153000000Y-97650000D03*
X153000000Y-94350000D03*
%TD*%
%TO.C,D16*%
X61910000Y-114650000D03*
X61910000Y-111350000D03*
%TD*%
D11*
%TO.C,R1*%
X267587500Y-94500000D03*
X269412500Y-94500000D03*
%TD*%
D10*
%TO.C,D27*%
X217670000Y-51650000D03*
X217670000Y-48350000D03*
%TD*%
D15*
%TO.C,U2*%
X16618500Y-116285000D03*
X19158500Y-116285000D03*
X21698500Y-116285000D03*
X24238500Y-116285000D03*
X26778500Y-116285000D03*
X29318500Y-116285000D03*
X31858500Y-116285000D03*
X31858500Y-100120000D03*
X29318500Y-100120000D03*
X26778500Y-100120000D03*
X24238500Y-100120000D03*
X21698500Y-100120000D03*
X19158500Y-100120000D03*
X16618500Y-100120000D03*
D16*
X33475400Y-104420000D03*
X33475400Y-102515000D03*
D14*
X15670000Y-109500000D03*
X15670000Y-106960000D03*
X18210000Y-109500000D03*
X18210000Y-106960000D03*
%TD*%
D10*
%TO.C,D20*%
X82910000Y-68650000D03*
X82910000Y-65350000D03*
%TD*%
%TO.C,D10*%
X61910000Y-51650000D03*
X61910000Y-48350000D03*
%TD*%
%TO.C,D13*%
X173920000Y-72650000D03*
X173920000Y-69350000D03*
%TD*%
%TO.C,D1*%
X258750000Y-131650000D03*
X258750000Y-128350000D03*
%TD*%
%TO.C,D25*%
X196590000Y-110650000D03*
X196590000Y-107350000D03*
%TD*%
%TO.C,D42*%
X19830000Y-131650000D03*
X19830000Y-128350000D03*
%TD*%
%TO.C,D35*%
X238750000Y-55650000D03*
X238750000Y-52350000D03*
%TD*%
D11*
%TO.C,R3*%
X278250000Y-94500000D03*
X280075000Y-94500000D03*
%TD*%
D10*
%TO.C,D5*%
X153000000Y-76650000D03*
X153000000Y-73350000D03*
%TD*%
%TO.C,D37*%
X238750000Y-76650000D03*
X238750000Y-73350000D03*
%TD*%
%TO.C,D36*%
X127000000Y-76650000D03*
X127000000Y-73350000D03*
%TD*%
%TO.C,D30*%
X104160000Y-93650000D03*
X104160000Y-90350000D03*
%TD*%
%TO.C,D23*%
X196590000Y-89650000D03*
X196590000Y-86350000D03*
%TD*%
%TO.C,D31*%
X217670000Y-93650000D03*
X217670000Y-90350000D03*
%TD*%
%TO.C,D29*%
X217670000Y-72650000D03*
X217670000Y-69350000D03*
%TD*%
%TO.C,D28*%
X104160000Y-72650000D03*
X104160000Y-69350000D03*
%TD*%
%TO.C,D2*%
X40910000Y-55650000D03*
X40910000Y-52350000D03*
%TD*%
%TO.C,D9*%
X153000000Y-118650000D03*
X153000000Y-115350000D03*
%TD*%
%TO.C,D3*%
X153000000Y-55650000D03*
X153000000Y-52350000D03*
%TD*%
%TO.C,D24*%
X82910000Y-110650000D03*
X82910000Y-107350000D03*
%TD*%
%TO.C,D21*%
X196590000Y-68650000D03*
X196590000Y-65350000D03*
%TD*%
%TO.C,D15*%
X173920000Y-93650000D03*
X173920000Y-90350000D03*
%TD*%
%TO.C,D32*%
X104160000Y-114650000D03*
X104160000Y-111350000D03*
%TD*%
%TO.C,D19*%
X196590000Y-47650000D03*
X196590000Y-44350000D03*
%TD*%
%TO.C,D12*%
X61910000Y-72650000D03*
X61910000Y-69350000D03*
%TD*%
%TO.C,D22*%
X82910000Y-89650000D03*
X82910000Y-86350000D03*
%TD*%
%TO.C,D38*%
X127000000Y-97650000D03*
X127000000Y-94350000D03*
%TD*%
M02*
