%TF.GenerationSoftware,KiCad,Pcbnew,9.0.6*%
%TF.CreationDate,2026-01-14T16:12:01+11:00*%
%TF.ProjectId,Split Keyboard,53706c69-7420-44b6-9579-626f6172642e,rev?*%
%TF.SameCoordinates,Original*%
%TF.FileFunction,Legend,Top*%
%TF.FilePolarity,Positive*%
%FSLAX46Y46*%
G04 Gerber Fmt 4.6, Leading zero omitted, Abs format (unit mm)*
G04 Created by KiCad (PCBNEW 9.0.6) date 2026-01-14 16:12:01*
%MOMM*%
%LPD*%
G01*
G04 APERTURE LIST*
%ADD10C,0.150000*%
%ADD11C,0.106680*%
%ADD12C,0.120000*%
%ADD13C,0.100000*%
%ADD14C,0.127000*%
%ADD15C,0.504000*%
G04 APERTURE END LIST*
D10*
X90100476Y-60533200D02*
X90243333Y-60580819D01*
X90243333Y-60580819D02*
X90481428Y-60580819D01*
X90481428Y-60580819D02*
X90576666Y-60533200D01*
X90576666Y-60533200D02*
X90624285Y-60485580D01*
X90624285Y-60485580D02*
X90671904Y-60390342D01*
X90671904Y-60390342D02*
X90671904Y-60295104D01*
X90671904Y-60295104D02*
X90624285Y-60199866D01*
X90624285Y-60199866D02*
X90576666Y-60152247D01*
X90576666Y-60152247D02*
X90481428Y-60104628D01*
X90481428Y-60104628D02*
X90290952Y-60057009D01*
X90290952Y-60057009D02*
X90195714Y-60009390D01*
X90195714Y-60009390D02*
X90148095Y-59961771D01*
X90148095Y-59961771D02*
X90100476Y-59866533D01*
X90100476Y-59866533D02*
X90100476Y-59771295D01*
X90100476Y-59771295D02*
X90148095Y-59676057D01*
X90148095Y-59676057D02*
X90195714Y-59628438D01*
X90195714Y-59628438D02*
X90290952Y-59580819D01*
X90290952Y-59580819D02*
X90529047Y-59580819D01*
X90529047Y-59580819D02*
X90671904Y-59628438D01*
X91005238Y-59580819D02*
X91243333Y-60580819D01*
X91243333Y-60580819D02*
X91433809Y-59866533D01*
X91433809Y-59866533D02*
X91624285Y-60580819D01*
X91624285Y-60580819D02*
X91862381Y-59580819D01*
X92195714Y-59676057D02*
X92243333Y-59628438D01*
X92243333Y-59628438D02*
X92338571Y-59580819D01*
X92338571Y-59580819D02*
X92576666Y-59580819D01*
X92576666Y-59580819D02*
X92671904Y-59628438D01*
X92671904Y-59628438D02*
X92719523Y-59676057D01*
X92719523Y-59676057D02*
X92767142Y-59771295D01*
X92767142Y-59771295D02*
X92767142Y-59866533D01*
X92767142Y-59866533D02*
X92719523Y-60009390D01*
X92719523Y-60009390D02*
X92148095Y-60580819D01*
X92148095Y-60580819D02*
X92767142Y-60580819D01*
X93386190Y-59580819D02*
X93481428Y-59580819D01*
X93481428Y-59580819D02*
X93576666Y-59628438D01*
X93576666Y-59628438D02*
X93624285Y-59676057D01*
X93624285Y-59676057D02*
X93671904Y-59771295D01*
X93671904Y-59771295D02*
X93719523Y-59961771D01*
X93719523Y-59961771D02*
X93719523Y-60199866D01*
X93719523Y-60199866D02*
X93671904Y-60390342D01*
X93671904Y-60390342D02*
X93624285Y-60485580D01*
X93624285Y-60485580D02*
X93576666Y-60533200D01*
X93576666Y-60533200D02*
X93481428Y-60580819D01*
X93481428Y-60580819D02*
X93386190Y-60580819D01*
X93386190Y-60580819D02*
X93290952Y-60533200D01*
X93290952Y-60533200D02*
X93243333Y-60485580D01*
X93243333Y-60485580D02*
X93195714Y-60390342D01*
X93195714Y-60390342D02*
X93148095Y-60199866D01*
X93148095Y-60199866D02*
X93148095Y-59961771D01*
X93148095Y-59961771D02*
X93195714Y-59771295D01*
X93195714Y-59771295D02*
X93243333Y-59676057D01*
X93243333Y-59676057D02*
X93290952Y-59628438D01*
X93290952Y-59628438D02*
X93386190Y-59580819D01*
X134110476Y-68533200D02*
X134253333Y-68580819D01*
X134253333Y-68580819D02*
X134491428Y-68580819D01*
X134491428Y-68580819D02*
X134586666Y-68533200D01*
X134586666Y-68533200D02*
X134634285Y-68485580D01*
X134634285Y-68485580D02*
X134681904Y-68390342D01*
X134681904Y-68390342D02*
X134681904Y-68295104D01*
X134681904Y-68295104D02*
X134634285Y-68199866D01*
X134634285Y-68199866D02*
X134586666Y-68152247D01*
X134586666Y-68152247D02*
X134491428Y-68104628D01*
X134491428Y-68104628D02*
X134300952Y-68057009D01*
X134300952Y-68057009D02*
X134205714Y-68009390D01*
X134205714Y-68009390D02*
X134158095Y-67961771D01*
X134158095Y-67961771D02*
X134110476Y-67866533D01*
X134110476Y-67866533D02*
X134110476Y-67771295D01*
X134110476Y-67771295D02*
X134158095Y-67676057D01*
X134158095Y-67676057D02*
X134205714Y-67628438D01*
X134205714Y-67628438D02*
X134300952Y-67580819D01*
X134300952Y-67580819D02*
X134539047Y-67580819D01*
X134539047Y-67580819D02*
X134681904Y-67628438D01*
X135015238Y-67580819D02*
X135253333Y-68580819D01*
X135253333Y-68580819D02*
X135443809Y-67866533D01*
X135443809Y-67866533D02*
X135634285Y-68580819D01*
X135634285Y-68580819D02*
X135872381Y-67580819D01*
X136158095Y-67580819D02*
X136777142Y-67580819D01*
X136777142Y-67580819D02*
X136443809Y-67961771D01*
X136443809Y-67961771D02*
X136586666Y-67961771D01*
X136586666Y-67961771D02*
X136681904Y-68009390D01*
X136681904Y-68009390D02*
X136729523Y-68057009D01*
X136729523Y-68057009D02*
X136777142Y-68152247D01*
X136777142Y-68152247D02*
X136777142Y-68390342D01*
X136777142Y-68390342D02*
X136729523Y-68485580D01*
X136729523Y-68485580D02*
X136681904Y-68533200D01*
X136681904Y-68533200D02*
X136586666Y-68580819D01*
X136586666Y-68580819D02*
X136300952Y-68580819D01*
X136300952Y-68580819D02*
X136205714Y-68533200D01*
X136205714Y-68533200D02*
X136158095Y-68485580D01*
X137634285Y-67580819D02*
X137443809Y-67580819D01*
X137443809Y-67580819D02*
X137348571Y-67628438D01*
X137348571Y-67628438D02*
X137300952Y-67676057D01*
X137300952Y-67676057D02*
X137205714Y-67818914D01*
X137205714Y-67818914D02*
X137158095Y-68009390D01*
X137158095Y-68009390D02*
X137158095Y-68390342D01*
X137158095Y-68390342D02*
X137205714Y-68485580D01*
X137205714Y-68485580D02*
X137253333Y-68533200D01*
X137253333Y-68533200D02*
X137348571Y-68580819D01*
X137348571Y-68580819D02*
X137539047Y-68580819D01*
X137539047Y-68580819D02*
X137634285Y-68533200D01*
X137634285Y-68533200D02*
X137681904Y-68485580D01*
X137681904Y-68485580D02*
X137729523Y-68390342D01*
X137729523Y-68390342D02*
X137729523Y-68152247D01*
X137729523Y-68152247D02*
X137681904Y-68057009D01*
X137681904Y-68057009D02*
X137634285Y-68009390D01*
X137634285Y-68009390D02*
X137539047Y-67961771D01*
X137539047Y-67961771D02*
X137348571Y-67961771D01*
X137348571Y-67961771D02*
X137253333Y-68009390D01*
X137253333Y-68009390D02*
X137205714Y-68057009D01*
X137205714Y-68057009D02*
X137158095Y-68152247D01*
X60364819Y-93214285D02*
X59364819Y-93214285D01*
X59364819Y-93214285D02*
X59364819Y-92976190D01*
X59364819Y-92976190D02*
X59412438Y-92833333D01*
X59412438Y-92833333D02*
X59507676Y-92738095D01*
X59507676Y-92738095D02*
X59602914Y-92690476D01*
X59602914Y-92690476D02*
X59793390Y-92642857D01*
X59793390Y-92642857D02*
X59936247Y-92642857D01*
X59936247Y-92642857D02*
X60126723Y-92690476D01*
X60126723Y-92690476D02*
X60221961Y-92738095D01*
X60221961Y-92738095D02*
X60317200Y-92833333D01*
X60317200Y-92833333D02*
X60364819Y-92976190D01*
X60364819Y-92976190D02*
X60364819Y-93214285D01*
X60364819Y-91690476D02*
X60364819Y-92261904D01*
X60364819Y-91976190D02*
X59364819Y-91976190D01*
X59364819Y-91976190D02*
X59507676Y-92071428D01*
X59507676Y-92071428D02*
X59602914Y-92166666D01*
X59602914Y-92166666D02*
X59650533Y-92261904D01*
X59698152Y-90833333D02*
X60364819Y-90833333D01*
X59317200Y-91071428D02*
X60031485Y-91309523D01*
X60031485Y-91309523D02*
X60031485Y-90690476D01*
X26940476Y-123533200D02*
X27083333Y-123580819D01*
X27083333Y-123580819D02*
X27321428Y-123580819D01*
X27321428Y-123580819D02*
X27416666Y-123533200D01*
X27416666Y-123533200D02*
X27464285Y-123485580D01*
X27464285Y-123485580D02*
X27511904Y-123390342D01*
X27511904Y-123390342D02*
X27511904Y-123295104D01*
X27511904Y-123295104D02*
X27464285Y-123199866D01*
X27464285Y-123199866D02*
X27416666Y-123152247D01*
X27416666Y-123152247D02*
X27321428Y-123104628D01*
X27321428Y-123104628D02*
X27130952Y-123057009D01*
X27130952Y-123057009D02*
X27035714Y-123009390D01*
X27035714Y-123009390D02*
X26988095Y-122961771D01*
X26988095Y-122961771D02*
X26940476Y-122866533D01*
X26940476Y-122866533D02*
X26940476Y-122771295D01*
X26940476Y-122771295D02*
X26988095Y-122676057D01*
X26988095Y-122676057D02*
X27035714Y-122628438D01*
X27035714Y-122628438D02*
X27130952Y-122580819D01*
X27130952Y-122580819D02*
X27369047Y-122580819D01*
X27369047Y-122580819D02*
X27511904Y-122628438D01*
X27845238Y-122580819D02*
X28083333Y-123580819D01*
X28083333Y-123580819D02*
X28273809Y-122866533D01*
X28273809Y-122866533D02*
X28464285Y-123580819D01*
X28464285Y-123580819D02*
X28702381Y-122580819D01*
X29511904Y-122914152D02*
X29511904Y-123580819D01*
X29273809Y-122533200D02*
X29035714Y-123247485D01*
X29035714Y-123247485D02*
X29654761Y-123247485D01*
X29988095Y-122676057D02*
X30035714Y-122628438D01*
X30035714Y-122628438D02*
X30130952Y-122580819D01*
X30130952Y-122580819D02*
X30369047Y-122580819D01*
X30369047Y-122580819D02*
X30464285Y-122628438D01*
X30464285Y-122628438D02*
X30511904Y-122676057D01*
X30511904Y-122676057D02*
X30559523Y-122771295D01*
X30559523Y-122771295D02*
X30559523Y-122866533D01*
X30559523Y-122866533D02*
X30511904Y-123009390D01*
X30511904Y-123009390D02*
X29940476Y-123580819D01*
X29940476Y-123580819D02*
X30559523Y-123580819D01*
X245940476Y-68533200D02*
X246083333Y-68580819D01*
X246083333Y-68580819D02*
X246321428Y-68580819D01*
X246321428Y-68580819D02*
X246416666Y-68533200D01*
X246416666Y-68533200D02*
X246464285Y-68485580D01*
X246464285Y-68485580D02*
X246511904Y-68390342D01*
X246511904Y-68390342D02*
X246511904Y-68295104D01*
X246511904Y-68295104D02*
X246464285Y-68199866D01*
X246464285Y-68199866D02*
X246416666Y-68152247D01*
X246416666Y-68152247D02*
X246321428Y-68104628D01*
X246321428Y-68104628D02*
X246130952Y-68057009D01*
X246130952Y-68057009D02*
X246035714Y-68009390D01*
X246035714Y-68009390D02*
X245988095Y-67961771D01*
X245988095Y-67961771D02*
X245940476Y-67866533D01*
X245940476Y-67866533D02*
X245940476Y-67771295D01*
X245940476Y-67771295D02*
X245988095Y-67676057D01*
X245988095Y-67676057D02*
X246035714Y-67628438D01*
X246035714Y-67628438D02*
X246130952Y-67580819D01*
X246130952Y-67580819D02*
X246369047Y-67580819D01*
X246369047Y-67580819D02*
X246511904Y-67628438D01*
X246845238Y-67580819D02*
X247083333Y-68580819D01*
X247083333Y-68580819D02*
X247273809Y-67866533D01*
X247273809Y-67866533D02*
X247464285Y-68580819D01*
X247464285Y-68580819D02*
X247702381Y-67580819D01*
X247988095Y-67580819D02*
X248607142Y-67580819D01*
X248607142Y-67580819D02*
X248273809Y-67961771D01*
X248273809Y-67961771D02*
X248416666Y-67961771D01*
X248416666Y-67961771D02*
X248511904Y-68009390D01*
X248511904Y-68009390D02*
X248559523Y-68057009D01*
X248559523Y-68057009D02*
X248607142Y-68152247D01*
X248607142Y-68152247D02*
X248607142Y-68390342D01*
X248607142Y-68390342D02*
X248559523Y-68485580D01*
X248559523Y-68485580D02*
X248511904Y-68533200D01*
X248511904Y-68533200D02*
X248416666Y-68580819D01*
X248416666Y-68580819D02*
X248130952Y-68580819D01*
X248130952Y-68580819D02*
X248035714Y-68533200D01*
X248035714Y-68533200D02*
X247988095Y-68485580D01*
X248940476Y-67580819D02*
X249607142Y-67580819D01*
X249607142Y-67580819D02*
X249178571Y-68580819D01*
X81364819Y-47214285D02*
X80364819Y-47214285D01*
X80364819Y-47214285D02*
X80364819Y-46976190D01*
X80364819Y-46976190D02*
X80412438Y-46833333D01*
X80412438Y-46833333D02*
X80507676Y-46738095D01*
X80507676Y-46738095D02*
X80602914Y-46690476D01*
X80602914Y-46690476D02*
X80793390Y-46642857D01*
X80793390Y-46642857D02*
X80936247Y-46642857D01*
X80936247Y-46642857D02*
X81126723Y-46690476D01*
X81126723Y-46690476D02*
X81221961Y-46738095D01*
X81221961Y-46738095D02*
X81317200Y-46833333D01*
X81317200Y-46833333D02*
X81364819Y-46976190D01*
X81364819Y-46976190D02*
X81364819Y-47214285D01*
X81364819Y-45690476D02*
X81364819Y-46261904D01*
X81364819Y-45976190D02*
X80364819Y-45976190D01*
X80364819Y-45976190D02*
X80507676Y-46071428D01*
X80507676Y-46071428D02*
X80602914Y-46166666D01*
X80602914Y-46166666D02*
X80650533Y-46261904D01*
X80793390Y-45119047D02*
X80745771Y-45214285D01*
X80745771Y-45214285D02*
X80698152Y-45261904D01*
X80698152Y-45261904D02*
X80602914Y-45309523D01*
X80602914Y-45309523D02*
X80555295Y-45309523D01*
X80555295Y-45309523D02*
X80460057Y-45261904D01*
X80460057Y-45261904D02*
X80412438Y-45214285D01*
X80412438Y-45214285D02*
X80364819Y-45119047D01*
X80364819Y-45119047D02*
X80364819Y-44928571D01*
X80364819Y-44928571D02*
X80412438Y-44833333D01*
X80412438Y-44833333D02*
X80460057Y-44785714D01*
X80460057Y-44785714D02*
X80555295Y-44738095D01*
X80555295Y-44738095D02*
X80602914Y-44738095D01*
X80602914Y-44738095D02*
X80698152Y-44785714D01*
X80698152Y-44785714D02*
X80745771Y-44833333D01*
X80745771Y-44833333D02*
X80793390Y-44928571D01*
X80793390Y-44928571D02*
X80793390Y-45119047D01*
X80793390Y-45119047D02*
X80841009Y-45214285D01*
X80841009Y-45214285D02*
X80888628Y-45261904D01*
X80888628Y-45261904D02*
X80983866Y-45309523D01*
X80983866Y-45309523D02*
X81174342Y-45309523D01*
X81174342Y-45309523D02*
X81269580Y-45261904D01*
X81269580Y-45261904D02*
X81317200Y-45214285D01*
X81317200Y-45214285D02*
X81364819Y-45119047D01*
X81364819Y-45119047D02*
X81364819Y-44928571D01*
X81364819Y-44928571D02*
X81317200Y-44833333D01*
X81317200Y-44833333D02*
X81269580Y-44785714D01*
X81269580Y-44785714D02*
X81174342Y-44738095D01*
X81174342Y-44738095D02*
X80983866Y-44738095D01*
X80983866Y-44738095D02*
X80888628Y-44785714D01*
X80888628Y-44785714D02*
X80841009Y-44833333D01*
X80841009Y-44833333D02*
X80793390Y-44928571D01*
X134110476Y-110533200D02*
X134253333Y-110580819D01*
X134253333Y-110580819D02*
X134491428Y-110580819D01*
X134491428Y-110580819D02*
X134586666Y-110533200D01*
X134586666Y-110533200D02*
X134634285Y-110485580D01*
X134634285Y-110485580D02*
X134681904Y-110390342D01*
X134681904Y-110390342D02*
X134681904Y-110295104D01*
X134681904Y-110295104D02*
X134634285Y-110199866D01*
X134634285Y-110199866D02*
X134586666Y-110152247D01*
X134586666Y-110152247D02*
X134491428Y-110104628D01*
X134491428Y-110104628D02*
X134300952Y-110057009D01*
X134300952Y-110057009D02*
X134205714Y-110009390D01*
X134205714Y-110009390D02*
X134158095Y-109961771D01*
X134158095Y-109961771D02*
X134110476Y-109866533D01*
X134110476Y-109866533D02*
X134110476Y-109771295D01*
X134110476Y-109771295D02*
X134158095Y-109676057D01*
X134158095Y-109676057D02*
X134205714Y-109628438D01*
X134205714Y-109628438D02*
X134300952Y-109580819D01*
X134300952Y-109580819D02*
X134539047Y-109580819D01*
X134539047Y-109580819D02*
X134681904Y-109628438D01*
X135015238Y-109580819D02*
X135253333Y-110580819D01*
X135253333Y-110580819D02*
X135443809Y-109866533D01*
X135443809Y-109866533D02*
X135634285Y-110580819D01*
X135634285Y-110580819D02*
X135872381Y-109580819D01*
X136681904Y-109914152D02*
X136681904Y-110580819D01*
X136443809Y-109533200D02*
X136205714Y-110247485D01*
X136205714Y-110247485D02*
X136824761Y-110247485D01*
X137396190Y-109580819D02*
X137491428Y-109580819D01*
X137491428Y-109580819D02*
X137586666Y-109628438D01*
X137586666Y-109628438D02*
X137634285Y-109676057D01*
X137634285Y-109676057D02*
X137681904Y-109771295D01*
X137681904Y-109771295D02*
X137729523Y-109961771D01*
X137729523Y-109961771D02*
X137729523Y-110199866D01*
X137729523Y-110199866D02*
X137681904Y-110390342D01*
X137681904Y-110390342D02*
X137634285Y-110485580D01*
X137634285Y-110485580D02*
X137586666Y-110533200D01*
X137586666Y-110533200D02*
X137491428Y-110580819D01*
X137491428Y-110580819D02*
X137396190Y-110580819D01*
X137396190Y-110580819D02*
X137300952Y-110533200D01*
X137300952Y-110533200D02*
X137253333Y-110485580D01*
X137253333Y-110485580D02*
X137205714Y-110390342D01*
X137205714Y-110390342D02*
X137158095Y-110199866D01*
X137158095Y-110199866D02*
X137158095Y-109961771D01*
X137158095Y-109961771D02*
X137205714Y-109771295D01*
X137205714Y-109771295D02*
X137253333Y-109676057D01*
X137253333Y-109676057D02*
X137300952Y-109628438D01*
X137300952Y-109628438D02*
X137396190Y-109580819D01*
X102614819Y-51214285D02*
X101614819Y-51214285D01*
X101614819Y-51214285D02*
X101614819Y-50976190D01*
X101614819Y-50976190D02*
X101662438Y-50833333D01*
X101662438Y-50833333D02*
X101757676Y-50738095D01*
X101757676Y-50738095D02*
X101852914Y-50690476D01*
X101852914Y-50690476D02*
X102043390Y-50642857D01*
X102043390Y-50642857D02*
X102186247Y-50642857D01*
X102186247Y-50642857D02*
X102376723Y-50690476D01*
X102376723Y-50690476D02*
X102471961Y-50738095D01*
X102471961Y-50738095D02*
X102567200Y-50833333D01*
X102567200Y-50833333D02*
X102614819Y-50976190D01*
X102614819Y-50976190D02*
X102614819Y-51214285D01*
X101710057Y-50261904D02*
X101662438Y-50214285D01*
X101662438Y-50214285D02*
X101614819Y-50119047D01*
X101614819Y-50119047D02*
X101614819Y-49880952D01*
X101614819Y-49880952D02*
X101662438Y-49785714D01*
X101662438Y-49785714D02*
X101710057Y-49738095D01*
X101710057Y-49738095D02*
X101805295Y-49690476D01*
X101805295Y-49690476D02*
X101900533Y-49690476D01*
X101900533Y-49690476D02*
X102043390Y-49738095D01*
X102043390Y-49738095D02*
X102614819Y-50309523D01*
X102614819Y-50309523D02*
X102614819Y-49690476D01*
X101614819Y-48833333D02*
X101614819Y-49023809D01*
X101614819Y-49023809D02*
X101662438Y-49119047D01*
X101662438Y-49119047D02*
X101710057Y-49166666D01*
X101710057Y-49166666D02*
X101852914Y-49261904D01*
X101852914Y-49261904D02*
X102043390Y-49309523D01*
X102043390Y-49309523D02*
X102424342Y-49309523D01*
X102424342Y-49309523D02*
X102519580Y-49261904D01*
X102519580Y-49261904D02*
X102567200Y-49214285D01*
X102567200Y-49214285D02*
X102614819Y-49119047D01*
X102614819Y-49119047D02*
X102614819Y-48928571D01*
X102614819Y-48928571D02*
X102567200Y-48833333D01*
X102567200Y-48833333D02*
X102519580Y-48785714D01*
X102519580Y-48785714D02*
X102424342Y-48738095D01*
X102424342Y-48738095D02*
X102186247Y-48738095D01*
X102186247Y-48738095D02*
X102091009Y-48785714D01*
X102091009Y-48785714D02*
X102043390Y-48833333D01*
X102043390Y-48833333D02*
X101995771Y-48928571D01*
X101995771Y-48928571D02*
X101995771Y-49119047D01*
X101995771Y-49119047D02*
X102043390Y-49214285D01*
X102043390Y-49214285D02*
X102091009Y-49261904D01*
X102091009Y-49261904D02*
X102186247Y-49309523D01*
X27170833Y-93054819D02*
X26837500Y-92578628D01*
X26599405Y-93054819D02*
X26599405Y-92054819D01*
X26599405Y-92054819D02*
X26980357Y-92054819D01*
X26980357Y-92054819D02*
X27075595Y-92102438D01*
X27075595Y-92102438D02*
X27123214Y-92150057D01*
X27123214Y-92150057D02*
X27170833Y-92245295D01*
X27170833Y-92245295D02*
X27170833Y-92388152D01*
X27170833Y-92388152D02*
X27123214Y-92483390D01*
X27123214Y-92483390D02*
X27075595Y-92531009D01*
X27075595Y-92531009D02*
X26980357Y-92578628D01*
X26980357Y-92578628D02*
X26599405Y-92578628D01*
X28027976Y-92388152D02*
X28027976Y-93054819D01*
X27789881Y-92007200D02*
X27551786Y-92721485D01*
X27551786Y-92721485D02*
X28170833Y-92721485D01*
X170624819Y-51214285D02*
X169624819Y-51214285D01*
X169624819Y-51214285D02*
X169624819Y-50976190D01*
X169624819Y-50976190D02*
X169672438Y-50833333D01*
X169672438Y-50833333D02*
X169767676Y-50738095D01*
X169767676Y-50738095D02*
X169862914Y-50690476D01*
X169862914Y-50690476D02*
X170053390Y-50642857D01*
X170053390Y-50642857D02*
X170196247Y-50642857D01*
X170196247Y-50642857D02*
X170386723Y-50690476D01*
X170386723Y-50690476D02*
X170481961Y-50738095D01*
X170481961Y-50738095D02*
X170577200Y-50833333D01*
X170577200Y-50833333D02*
X170624819Y-50976190D01*
X170624819Y-50976190D02*
X170624819Y-51214285D01*
X170624819Y-49690476D02*
X170624819Y-50261904D01*
X170624819Y-49976190D02*
X169624819Y-49976190D01*
X169624819Y-49976190D02*
X169767676Y-50071428D01*
X169767676Y-50071428D02*
X169862914Y-50166666D01*
X169862914Y-50166666D02*
X169910533Y-50261904D01*
X170624819Y-48738095D02*
X170624819Y-49309523D01*
X170624819Y-49023809D02*
X169624819Y-49023809D01*
X169624819Y-49023809D02*
X169767676Y-49119047D01*
X169767676Y-49119047D02*
X169862914Y-49214285D01*
X169862914Y-49214285D02*
X169910533Y-49309523D01*
X134110476Y-89533200D02*
X134253333Y-89580819D01*
X134253333Y-89580819D02*
X134491428Y-89580819D01*
X134491428Y-89580819D02*
X134586666Y-89533200D01*
X134586666Y-89533200D02*
X134634285Y-89485580D01*
X134634285Y-89485580D02*
X134681904Y-89390342D01*
X134681904Y-89390342D02*
X134681904Y-89295104D01*
X134681904Y-89295104D02*
X134634285Y-89199866D01*
X134634285Y-89199866D02*
X134586666Y-89152247D01*
X134586666Y-89152247D02*
X134491428Y-89104628D01*
X134491428Y-89104628D02*
X134300952Y-89057009D01*
X134300952Y-89057009D02*
X134205714Y-89009390D01*
X134205714Y-89009390D02*
X134158095Y-88961771D01*
X134158095Y-88961771D02*
X134110476Y-88866533D01*
X134110476Y-88866533D02*
X134110476Y-88771295D01*
X134110476Y-88771295D02*
X134158095Y-88676057D01*
X134158095Y-88676057D02*
X134205714Y-88628438D01*
X134205714Y-88628438D02*
X134300952Y-88580819D01*
X134300952Y-88580819D02*
X134539047Y-88580819D01*
X134539047Y-88580819D02*
X134681904Y-88628438D01*
X135015238Y-88580819D02*
X135253333Y-89580819D01*
X135253333Y-89580819D02*
X135443809Y-88866533D01*
X135443809Y-88866533D02*
X135634285Y-89580819D01*
X135634285Y-89580819D02*
X135872381Y-88580819D01*
X136158095Y-88580819D02*
X136777142Y-88580819D01*
X136777142Y-88580819D02*
X136443809Y-88961771D01*
X136443809Y-88961771D02*
X136586666Y-88961771D01*
X136586666Y-88961771D02*
X136681904Y-89009390D01*
X136681904Y-89009390D02*
X136729523Y-89057009D01*
X136729523Y-89057009D02*
X136777142Y-89152247D01*
X136777142Y-89152247D02*
X136777142Y-89390342D01*
X136777142Y-89390342D02*
X136729523Y-89485580D01*
X136729523Y-89485580D02*
X136681904Y-89533200D01*
X136681904Y-89533200D02*
X136586666Y-89580819D01*
X136586666Y-89580819D02*
X136300952Y-89580819D01*
X136300952Y-89580819D02*
X136205714Y-89533200D01*
X136205714Y-89533200D02*
X136158095Y-89485580D01*
X137348571Y-89009390D02*
X137253333Y-88961771D01*
X137253333Y-88961771D02*
X137205714Y-88914152D01*
X137205714Y-88914152D02*
X137158095Y-88818914D01*
X137158095Y-88818914D02*
X137158095Y-88771295D01*
X137158095Y-88771295D02*
X137205714Y-88676057D01*
X137205714Y-88676057D02*
X137253333Y-88628438D01*
X137253333Y-88628438D02*
X137348571Y-88580819D01*
X137348571Y-88580819D02*
X137539047Y-88580819D01*
X137539047Y-88580819D02*
X137634285Y-88628438D01*
X137634285Y-88628438D02*
X137681904Y-88676057D01*
X137681904Y-88676057D02*
X137729523Y-88771295D01*
X137729523Y-88771295D02*
X137729523Y-88818914D01*
X137729523Y-88818914D02*
X137681904Y-88914152D01*
X137681904Y-88914152D02*
X137634285Y-88961771D01*
X137634285Y-88961771D02*
X137539047Y-89009390D01*
X137539047Y-89009390D02*
X137348571Y-89009390D01*
X137348571Y-89009390D02*
X137253333Y-89057009D01*
X137253333Y-89057009D02*
X137205714Y-89104628D01*
X137205714Y-89104628D02*
X137158095Y-89199866D01*
X137158095Y-89199866D02*
X137158095Y-89390342D01*
X137158095Y-89390342D02*
X137205714Y-89485580D01*
X137205714Y-89485580D02*
X137253333Y-89533200D01*
X137253333Y-89533200D02*
X137348571Y-89580819D01*
X137348571Y-89580819D02*
X137539047Y-89580819D01*
X137539047Y-89580819D02*
X137634285Y-89533200D01*
X137634285Y-89533200D02*
X137681904Y-89485580D01*
X137681904Y-89485580D02*
X137729523Y-89390342D01*
X137729523Y-89390342D02*
X137729523Y-89199866D01*
X137729523Y-89199866D02*
X137681904Y-89104628D01*
X137681904Y-89104628D02*
X137634285Y-89057009D01*
X137634285Y-89057009D02*
X137539047Y-89009390D01*
X224860476Y-43533200D02*
X225003333Y-43580819D01*
X225003333Y-43580819D02*
X225241428Y-43580819D01*
X225241428Y-43580819D02*
X225336666Y-43533200D01*
X225336666Y-43533200D02*
X225384285Y-43485580D01*
X225384285Y-43485580D02*
X225431904Y-43390342D01*
X225431904Y-43390342D02*
X225431904Y-43295104D01*
X225431904Y-43295104D02*
X225384285Y-43199866D01*
X225384285Y-43199866D02*
X225336666Y-43152247D01*
X225336666Y-43152247D02*
X225241428Y-43104628D01*
X225241428Y-43104628D02*
X225050952Y-43057009D01*
X225050952Y-43057009D02*
X224955714Y-43009390D01*
X224955714Y-43009390D02*
X224908095Y-42961771D01*
X224908095Y-42961771D02*
X224860476Y-42866533D01*
X224860476Y-42866533D02*
X224860476Y-42771295D01*
X224860476Y-42771295D02*
X224908095Y-42676057D01*
X224908095Y-42676057D02*
X224955714Y-42628438D01*
X224955714Y-42628438D02*
X225050952Y-42580819D01*
X225050952Y-42580819D02*
X225289047Y-42580819D01*
X225289047Y-42580819D02*
X225431904Y-42628438D01*
X225765238Y-42580819D02*
X226003333Y-43580819D01*
X226003333Y-43580819D02*
X226193809Y-42866533D01*
X226193809Y-42866533D02*
X226384285Y-43580819D01*
X226384285Y-43580819D02*
X226622381Y-42580819D01*
X226955714Y-42676057D02*
X227003333Y-42628438D01*
X227003333Y-42628438D02*
X227098571Y-42580819D01*
X227098571Y-42580819D02*
X227336666Y-42580819D01*
X227336666Y-42580819D02*
X227431904Y-42628438D01*
X227431904Y-42628438D02*
X227479523Y-42676057D01*
X227479523Y-42676057D02*
X227527142Y-42771295D01*
X227527142Y-42771295D02*
X227527142Y-42866533D01*
X227527142Y-42866533D02*
X227479523Y-43009390D01*
X227479523Y-43009390D02*
X226908095Y-43580819D01*
X226908095Y-43580819D02*
X227527142Y-43580819D01*
X227860476Y-42580819D02*
X228527142Y-42580819D01*
X228527142Y-42580819D02*
X228098571Y-43580819D01*
X48496667Y-89533200D02*
X48639524Y-89580819D01*
X48639524Y-89580819D02*
X48877619Y-89580819D01*
X48877619Y-89580819D02*
X48972857Y-89533200D01*
X48972857Y-89533200D02*
X49020476Y-89485580D01*
X49020476Y-89485580D02*
X49068095Y-89390342D01*
X49068095Y-89390342D02*
X49068095Y-89295104D01*
X49068095Y-89295104D02*
X49020476Y-89199866D01*
X49020476Y-89199866D02*
X48972857Y-89152247D01*
X48972857Y-89152247D02*
X48877619Y-89104628D01*
X48877619Y-89104628D02*
X48687143Y-89057009D01*
X48687143Y-89057009D02*
X48591905Y-89009390D01*
X48591905Y-89009390D02*
X48544286Y-88961771D01*
X48544286Y-88961771D02*
X48496667Y-88866533D01*
X48496667Y-88866533D02*
X48496667Y-88771295D01*
X48496667Y-88771295D02*
X48544286Y-88676057D01*
X48544286Y-88676057D02*
X48591905Y-88628438D01*
X48591905Y-88628438D02*
X48687143Y-88580819D01*
X48687143Y-88580819D02*
X48925238Y-88580819D01*
X48925238Y-88580819D02*
X49068095Y-88628438D01*
X49401429Y-88580819D02*
X49639524Y-89580819D01*
X49639524Y-89580819D02*
X49830000Y-88866533D01*
X49830000Y-88866533D02*
X50020476Y-89580819D01*
X50020476Y-89580819D02*
X50258572Y-88580819D01*
X51068095Y-88580819D02*
X50877619Y-88580819D01*
X50877619Y-88580819D02*
X50782381Y-88628438D01*
X50782381Y-88628438D02*
X50734762Y-88676057D01*
X50734762Y-88676057D02*
X50639524Y-88818914D01*
X50639524Y-88818914D02*
X50591905Y-89009390D01*
X50591905Y-89009390D02*
X50591905Y-89390342D01*
X50591905Y-89390342D02*
X50639524Y-89485580D01*
X50639524Y-89485580D02*
X50687143Y-89533200D01*
X50687143Y-89533200D02*
X50782381Y-89580819D01*
X50782381Y-89580819D02*
X50972857Y-89580819D01*
X50972857Y-89580819D02*
X51068095Y-89533200D01*
X51068095Y-89533200D02*
X51115714Y-89485580D01*
X51115714Y-89485580D02*
X51163333Y-89390342D01*
X51163333Y-89390342D02*
X51163333Y-89152247D01*
X51163333Y-89152247D02*
X51115714Y-89057009D01*
X51115714Y-89057009D02*
X51068095Y-89009390D01*
X51068095Y-89009390D02*
X50972857Y-88961771D01*
X50972857Y-88961771D02*
X50782381Y-88961771D01*
X50782381Y-88961771D02*
X50687143Y-89009390D01*
X50687143Y-89009390D02*
X50639524Y-89057009D01*
X50639524Y-89057009D02*
X50591905Y-89152247D01*
X69020476Y-64533200D02*
X69163333Y-64580819D01*
X69163333Y-64580819D02*
X69401428Y-64580819D01*
X69401428Y-64580819D02*
X69496666Y-64533200D01*
X69496666Y-64533200D02*
X69544285Y-64485580D01*
X69544285Y-64485580D02*
X69591904Y-64390342D01*
X69591904Y-64390342D02*
X69591904Y-64295104D01*
X69591904Y-64295104D02*
X69544285Y-64199866D01*
X69544285Y-64199866D02*
X69496666Y-64152247D01*
X69496666Y-64152247D02*
X69401428Y-64104628D01*
X69401428Y-64104628D02*
X69210952Y-64057009D01*
X69210952Y-64057009D02*
X69115714Y-64009390D01*
X69115714Y-64009390D02*
X69068095Y-63961771D01*
X69068095Y-63961771D02*
X69020476Y-63866533D01*
X69020476Y-63866533D02*
X69020476Y-63771295D01*
X69020476Y-63771295D02*
X69068095Y-63676057D01*
X69068095Y-63676057D02*
X69115714Y-63628438D01*
X69115714Y-63628438D02*
X69210952Y-63580819D01*
X69210952Y-63580819D02*
X69449047Y-63580819D01*
X69449047Y-63580819D02*
X69591904Y-63628438D01*
X69925238Y-63580819D02*
X70163333Y-64580819D01*
X70163333Y-64580819D02*
X70353809Y-63866533D01*
X70353809Y-63866533D02*
X70544285Y-64580819D01*
X70544285Y-64580819D02*
X70782381Y-63580819D01*
X71687142Y-64580819D02*
X71115714Y-64580819D01*
X71401428Y-64580819D02*
X71401428Y-63580819D01*
X71401428Y-63580819D02*
X71306190Y-63723676D01*
X71306190Y-63723676D02*
X71210952Y-63818914D01*
X71210952Y-63818914D02*
X71115714Y-63866533D01*
X72068095Y-63676057D02*
X72115714Y-63628438D01*
X72115714Y-63628438D02*
X72210952Y-63580819D01*
X72210952Y-63580819D02*
X72449047Y-63580819D01*
X72449047Y-63580819D02*
X72544285Y-63628438D01*
X72544285Y-63628438D02*
X72591904Y-63676057D01*
X72591904Y-63676057D02*
X72639523Y-63771295D01*
X72639523Y-63771295D02*
X72639523Y-63866533D01*
X72639523Y-63866533D02*
X72591904Y-64009390D01*
X72591904Y-64009390D02*
X72020476Y-64580819D01*
X72020476Y-64580819D02*
X72639523Y-64580819D01*
X39364819Y-117738094D02*
X38364819Y-117738094D01*
X38364819Y-117738094D02*
X38364819Y-117499999D01*
X38364819Y-117499999D02*
X38412438Y-117357142D01*
X38412438Y-117357142D02*
X38507676Y-117261904D01*
X38507676Y-117261904D02*
X38602914Y-117214285D01*
X38602914Y-117214285D02*
X38793390Y-117166666D01*
X38793390Y-117166666D02*
X38936247Y-117166666D01*
X38936247Y-117166666D02*
X39126723Y-117214285D01*
X39126723Y-117214285D02*
X39221961Y-117261904D01*
X39221961Y-117261904D02*
X39317200Y-117357142D01*
X39317200Y-117357142D02*
X39364819Y-117499999D01*
X39364819Y-117499999D02*
X39364819Y-117738094D01*
X38793390Y-116595237D02*
X38745771Y-116690475D01*
X38745771Y-116690475D02*
X38698152Y-116738094D01*
X38698152Y-116738094D02*
X38602914Y-116785713D01*
X38602914Y-116785713D02*
X38555295Y-116785713D01*
X38555295Y-116785713D02*
X38460057Y-116738094D01*
X38460057Y-116738094D02*
X38412438Y-116690475D01*
X38412438Y-116690475D02*
X38364819Y-116595237D01*
X38364819Y-116595237D02*
X38364819Y-116404761D01*
X38364819Y-116404761D02*
X38412438Y-116309523D01*
X38412438Y-116309523D02*
X38460057Y-116261904D01*
X38460057Y-116261904D02*
X38555295Y-116214285D01*
X38555295Y-116214285D02*
X38602914Y-116214285D01*
X38602914Y-116214285D02*
X38698152Y-116261904D01*
X38698152Y-116261904D02*
X38745771Y-116309523D01*
X38745771Y-116309523D02*
X38793390Y-116404761D01*
X38793390Y-116404761D02*
X38793390Y-116595237D01*
X38793390Y-116595237D02*
X38841009Y-116690475D01*
X38841009Y-116690475D02*
X38888628Y-116738094D01*
X38888628Y-116738094D02*
X38983866Y-116785713D01*
X38983866Y-116785713D02*
X39174342Y-116785713D01*
X39174342Y-116785713D02*
X39269580Y-116738094D01*
X39269580Y-116738094D02*
X39317200Y-116690475D01*
X39317200Y-116690475D02*
X39364819Y-116595237D01*
X39364819Y-116595237D02*
X39364819Y-116404761D01*
X39364819Y-116404761D02*
X39317200Y-116309523D01*
X39317200Y-116309523D02*
X39269580Y-116261904D01*
X39269580Y-116261904D02*
X39174342Y-116214285D01*
X39174342Y-116214285D02*
X38983866Y-116214285D01*
X38983866Y-116214285D02*
X38888628Y-116261904D01*
X38888628Y-116261904D02*
X38841009Y-116309523D01*
X38841009Y-116309523D02*
X38793390Y-116404761D01*
X39364819Y-96738094D02*
X38364819Y-96738094D01*
X38364819Y-96738094D02*
X38364819Y-96499999D01*
X38364819Y-96499999D02*
X38412438Y-96357142D01*
X38412438Y-96357142D02*
X38507676Y-96261904D01*
X38507676Y-96261904D02*
X38602914Y-96214285D01*
X38602914Y-96214285D02*
X38793390Y-96166666D01*
X38793390Y-96166666D02*
X38936247Y-96166666D01*
X38936247Y-96166666D02*
X39126723Y-96214285D01*
X39126723Y-96214285D02*
X39221961Y-96261904D01*
X39221961Y-96261904D02*
X39317200Y-96357142D01*
X39317200Y-96357142D02*
X39364819Y-96499999D01*
X39364819Y-96499999D02*
X39364819Y-96738094D01*
X38364819Y-95309523D02*
X38364819Y-95499999D01*
X38364819Y-95499999D02*
X38412438Y-95595237D01*
X38412438Y-95595237D02*
X38460057Y-95642856D01*
X38460057Y-95642856D02*
X38602914Y-95738094D01*
X38602914Y-95738094D02*
X38793390Y-95785713D01*
X38793390Y-95785713D02*
X39174342Y-95785713D01*
X39174342Y-95785713D02*
X39269580Y-95738094D01*
X39269580Y-95738094D02*
X39317200Y-95690475D01*
X39317200Y-95690475D02*
X39364819Y-95595237D01*
X39364819Y-95595237D02*
X39364819Y-95404761D01*
X39364819Y-95404761D02*
X39317200Y-95309523D01*
X39317200Y-95309523D02*
X39269580Y-95261904D01*
X39269580Y-95261904D02*
X39174342Y-95214285D01*
X39174342Y-95214285D02*
X38936247Y-95214285D01*
X38936247Y-95214285D02*
X38841009Y-95261904D01*
X38841009Y-95261904D02*
X38793390Y-95309523D01*
X38793390Y-95309523D02*
X38745771Y-95404761D01*
X38745771Y-95404761D02*
X38745771Y-95595237D01*
X38745771Y-95595237D02*
X38793390Y-95690475D01*
X38793390Y-95690475D02*
X38841009Y-95738094D01*
X38841009Y-95738094D02*
X38936247Y-95785713D01*
X125454819Y-114214285D02*
X124454819Y-114214285D01*
X124454819Y-114214285D02*
X124454819Y-113976190D01*
X124454819Y-113976190D02*
X124502438Y-113833333D01*
X124502438Y-113833333D02*
X124597676Y-113738095D01*
X124597676Y-113738095D02*
X124692914Y-113690476D01*
X124692914Y-113690476D02*
X124883390Y-113642857D01*
X124883390Y-113642857D02*
X125026247Y-113642857D01*
X125026247Y-113642857D02*
X125216723Y-113690476D01*
X125216723Y-113690476D02*
X125311961Y-113738095D01*
X125311961Y-113738095D02*
X125407200Y-113833333D01*
X125407200Y-113833333D02*
X125454819Y-113976190D01*
X125454819Y-113976190D02*
X125454819Y-114214285D01*
X124788152Y-112785714D02*
X125454819Y-112785714D01*
X124407200Y-113023809D02*
X125121485Y-113261904D01*
X125121485Y-113261904D02*
X125121485Y-112642857D01*
X124454819Y-112071428D02*
X124454819Y-111976190D01*
X124454819Y-111976190D02*
X124502438Y-111880952D01*
X124502438Y-111880952D02*
X124550057Y-111833333D01*
X124550057Y-111833333D02*
X124645295Y-111785714D01*
X124645295Y-111785714D02*
X124835771Y-111738095D01*
X124835771Y-111738095D02*
X125073866Y-111738095D01*
X125073866Y-111738095D02*
X125264342Y-111785714D01*
X125264342Y-111785714D02*
X125359580Y-111833333D01*
X125359580Y-111833333D02*
X125407200Y-111880952D01*
X125407200Y-111880952D02*
X125454819Y-111976190D01*
X125454819Y-111976190D02*
X125454819Y-112071428D01*
X125454819Y-112071428D02*
X125407200Y-112166666D01*
X125407200Y-112166666D02*
X125359580Y-112214285D01*
X125359580Y-112214285D02*
X125264342Y-112261904D01*
X125264342Y-112261904D02*
X125073866Y-112309523D01*
X125073866Y-112309523D02*
X124835771Y-112309523D01*
X124835771Y-112309523D02*
X124645295Y-112261904D01*
X124645295Y-112261904D02*
X124550057Y-112214285D01*
X124550057Y-112214285D02*
X124502438Y-112166666D01*
X124502438Y-112166666D02*
X124454819Y-112071428D01*
X237124819Y-114214285D02*
X236124819Y-114214285D01*
X236124819Y-114214285D02*
X236124819Y-113976190D01*
X236124819Y-113976190D02*
X236172438Y-113833333D01*
X236172438Y-113833333D02*
X236267676Y-113738095D01*
X236267676Y-113738095D02*
X236362914Y-113690476D01*
X236362914Y-113690476D02*
X236553390Y-113642857D01*
X236553390Y-113642857D02*
X236696247Y-113642857D01*
X236696247Y-113642857D02*
X236886723Y-113690476D01*
X236886723Y-113690476D02*
X236981961Y-113738095D01*
X236981961Y-113738095D02*
X237077200Y-113833333D01*
X237077200Y-113833333D02*
X237124819Y-113976190D01*
X237124819Y-113976190D02*
X237124819Y-114214285D01*
X236458152Y-112785714D02*
X237124819Y-112785714D01*
X236077200Y-113023809D02*
X236791485Y-113261904D01*
X236791485Y-113261904D02*
X236791485Y-112642857D01*
X237124819Y-111738095D02*
X237124819Y-112309523D01*
X237124819Y-112023809D02*
X236124819Y-112023809D01*
X236124819Y-112023809D02*
X236267676Y-112119047D01*
X236267676Y-112119047D02*
X236362914Y-112214285D01*
X236362914Y-112214285D02*
X236410533Y-112309523D01*
X18420833Y-93054819D02*
X18087500Y-92578628D01*
X17849405Y-93054819D02*
X17849405Y-92054819D01*
X17849405Y-92054819D02*
X18230357Y-92054819D01*
X18230357Y-92054819D02*
X18325595Y-92102438D01*
X18325595Y-92102438D02*
X18373214Y-92150057D01*
X18373214Y-92150057D02*
X18420833Y-92245295D01*
X18420833Y-92245295D02*
X18420833Y-92388152D01*
X18420833Y-92388152D02*
X18373214Y-92483390D01*
X18373214Y-92483390D02*
X18325595Y-92531009D01*
X18325595Y-92531009D02*
X18230357Y-92578628D01*
X18230357Y-92578628D02*
X17849405Y-92578628D01*
X18801786Y-92150057D02*
X18849405Y-92102438D01*
X18849405Y-92102438D02*
X18944643Y-92054819D01*
X18944643Y-92054819D02*
X19182738Y-92054819D01*
X19182738Y-92054819D02*
X19277976Y-92102438D01*
X19277976Y-92102438D02*
X19325595Y-92150057D01*
X19325595Y-92150057D02*
X19373214Y-92245295D01*
X19373214Y-92245295D02*
X19373214Y-92340533D01*
X19373214Y-92340533D02*
X19325595Y-92483390D01*
X19325595Y-92483390D02*
X18754167Y-93054819D01*
X18754167Y-93054819D02*
X19373214Y-93054819D01*
X39364819Y-75738094D02*
X38364819Y-75738094D01*
X38364819Y-75738094D02*
X38364819Y-75499999D01*
X38364819Y-75499999D02*
X38412438Y-75357142D01*
X38412438Y-75357142D02*
X38507676Y-75261904D01*
X38507676Y-75261904D02*
X38602914Y-75214285D01*
X38602914Y-75214285D02*
X38793390Y-75166666D01*
X38793390Y-75166666D02*
X38936247Y-75166666D01*
X38936247Y-75166666D02*
X39126723Y-75214285D01*
X39126723Y-75214285D02*
X39221961Y-75261904D01*
X39221961Y-75261904D02*
X39317200Y-75357142D01*
X39317200Y-75357142D02*
X39364819Y-75499999D01*
X39364819Y-75499999D02*
X39364819Y-75738094D01*
X38698152Y-74309523D02*
X39364819Y-74309523D01*
X38317200Y-74547618D02*
X39031485Y-74785713D01*
X39031485Y-74785713D02*
X39031485Y-74166666D01*
X48496667Y-110533200D02*
X48639524Y-110580819D01*
X48639524Y-110580819D02*
X48877619Y-110580819D01*
X48877619Y-110580819D02*
X48972857Y-110533200D01*
X48972857Y-110533200D02*
X49020476Y-110485580D01*
X49020476Y-110485580D02*
X49068095Y-110390342D01*
X49068095Y-110390342D02*
X49068095Y-110295104D01*
X49068095Y-110295104D02*
X49020476Y-110199866D01*
X49020476Y-110199866D02*
X48972857Y-110152247D01*
X48972857Y-110152247D02*
X48877619Y-110104628D01*
X48877619Y-110104628D02*
X48687143Y-110057009D01*
X48687143Y-110057009D02*
X48591905Y-110009390D01*
X48591905Y-110009390D02*
X48544286Y-109961771D01*
X48544286Y-109961771D02*
X48496667Y-109866533D01*
X48496667Y-109866533D02*
X48496667Y-109771295D01*
X48496667Y-109771295D02*
X48544286Y-109676057D01*
X48544286Y-109676057D02*
X48591905Y-109628438D01*
X48591905Y-109628438D02*
X48687143Y-109580819D01*
X48687143Y-109580819D02*
X48925238Y-109580819D01*
X48925238Y-109580819D02*
X49068095Y-109628438D01*
X49401429Y-109580819D02*
X49639524Y-110580819D01*
X49639524Y-110580819D02*
X49830000Y-109866533D01*
X49830000Y-109866533D02*
X50020476Y-110580819D01*
X50020476Y-110580819D02*
X50258572Y-109580819D01*
X50782381Y-110009390D02*
X50687143Y-109961771D01*
X50687143Y-109961771D02*
X50639524Y-109914152D01*
X50639524Y-109914152D02*
X50591905Y-109818914D01*
X50591905Y-109818914D02*
X50591905Y-109771295D01*
X50591905Y-109771295D02*
X50639524Y-109676057D01*
X50639524Y-109676057D02*
X50687143Y-109628438D01*
X50687143Y-109628438D02*
X50782381Y-109580819D01*
X50782381Y-109580819D02*
X50972857Y-109580819D01*
X50972857Y-109580819D02*
X51068095Y-109628438D01*
X51068095Y-109628438D02*
X51115714Y-109676057D01*
X51115714Y-109676057D02*
X51163333Y-109771295D01*
X51163333Y-109771295D02*
X51163333Y-109818914D01*
X51163333Y-109818914D02*
X51115714Y-109914152D01*
X51115714Y-109914152D02*
X51068095Y-109961771D01*
X51068095Y-109961771D02*
X50972857Y-110009390D01*
X50972857Y-110009390D02*
X50782381Y-110009390D01*
X50782381Y-110009390D02*
X50687143Y-110057009D01*
X50687143Y-110057009D02*
X50639524Y-110104628D01*
X50639524Y-110104628D02*
X50591905Y-110199866D01*
X50591905Y-110199866D02*
X50591905Y-110390342D01*
X50591905Y-110390342D02*
X50639524Y-110485580D01*
X50639524Y-110485580D02*
X50687143Y-110533200D01*
X50687143Y-110533200D02*
X50782381Y-110580819D01*
X50782381Y-110580819D02*
X50972857Y-110580819D01*
X50972857Y-110580819D02*
X51068095Y-110533200D01*
X51068095Y-110533200D02*
X51115714Y-110485580D01*
X51115714Y-110485580D02*
X51163333Y-110390342D01*
X51163333Y-110390342D02*
X51163333Y-110199866D01*
X51163333Y-110199866D02*
X51115714Y-110104628D01*
X51115714Y-110104628D02*
X51068095Y-110057009D01*
X51068095Y-110057009D02*
X50972857Y-110009390D01*
X237124819Y-93214285D02*
X236124819Y-93214285D01*
X236124819Y-93214285D02*
X236124819Y-92976190D01*
X236124819Y-92976190D02*
X236172438Y-92833333D01*
X236172438Y-92833333D02*
X236267676Y-92738095D01*
X236267676Y-92738095D02*
X236362914Y-92690476D01*
X236362914Y-92690476D02*
X236553390Y-92642857D01*
X236553390Y-92642857D02*
X236696247Y-92642857D01*
X236696247Y-92642857D02*
X236886723Y-92690476D01*
X236886723Y-92690476D02*
X236981961Y-92738095D01*
X236981961Y-92738095D02*
X237077200Y-92833333D01*
X237077200Y-92833333D02*
X237124819Y-92976190D01*
X237124819Y-92976190D02*
X237124819Y-93214285D01*
X236124819Y-92309523D02*
X236124819Y-91690476D01*
X236124819Y-91690476D02*
X236505771Y-92023809D01*
X236505771Y-92023809D02*
X236505771Y-91880952D01*
X236505771Y-91880952D02*
X236553390Y-91785714D01*
X236553390Y-91785714D02*
X236601009Y-91738095D01*
X236601009Y-91738095D02*
X236696247Y-91690476D01*
X236696247Y-91690476D02*
X236934342Y-91690476D01*
X236934342Y-91690476D02*
X237029580Y-91738095D01*
X237029580Y-91738095D02*
X237077200Y-91785714D01*
X237077200Y-91785714D02*
X237124819Y-91880952D01*
X237124819Y-91880952D02*
X237124819Y-92166666D01*
X237124819Y-92166666D02*
X237077200Y-92261904D01*
X237077200Y-92261904D02*
X237029580Y-92309523D01*
X237124819Y-91214285D02*
X237124819Y-91023809D01*
X237124819Y-91023809D02*
X237077200Y-90928571D01*
X237077200Y-90928571D02*
X237029580Y-90880952D01*
X237029580Y-90880952D02*
X236886723Y-90785714D01*
X236886723Y-90785714D02*
X236696247Y-90738095D01*
X236696247Y-90738095D02*
X236315295Y-90738095D01*
X236315295Y-90738095D02*
X236220057Y-90785714D01*
X236220057Y-90785714D02*
X236172438Y-90833333D01*
X236172438Y-90833333D02*
X236124819Y-90928571D01*
X236124819Y-90928571D02*
X236124819Y-91119047D01*
X236124819Y-91119047D02*
X236172438Y-91214285D01*
X236172438Y-91214285D02*
X236220057Y-91261904D01*
X236220057Y-91261904D02*
X236315295Y-91309523D01*
X236315295Y-91309523D02*
X236553390Y-91309523D01*
X236553390Y-91309523D02*
X236648628Y-91261904D01*
X236648628Y-91261904D02*
X236696247Y-91214285D01*
X236696247Y-91214285D02*
X236743866Y-91119047D01*
X236743866Y-91119047D02*
X236743866Y-90928571D01*
X236743866Y-90928571D02*
X236696247Y-90833333D01*
X236696247Y-90833333D02*
X236648628Y-90785714D01*
X236648628Y-90785714D02*
X236553390Y-90738095D01*
X69020476Y-85533200D02*
X69163333Y-85580819D01*
X69163333Y-85580819D02*
X69401428Y-85580819D01*
X69401428Y-85580819D02*
X69496666Y-85533200D01*
X69496666Y-85533200D02*
X69544285Y-85485580D01*
X69544285Y-85485580D02*
X69591904Y-85390342D01*
X69591904Y-85390342D02*
X69591904Y-85295104D01*
X69591904Y-85295104D02*
X69544285Y-85199866D01*
X69544285Y-85199866D02*
X69496666Y-85152247D01*
X69496666Y-85152247D02*
X69401428Y-85104628D01*
X69401428Y-85104628D02*
X69210952Y-85057009D01*
X69210952Y-85057009D02*
X69115714Y-85009390D01*
X69115714Y-85009390D02*
X69068095Y-84961771D01*
X69068095Y-84961771D02*
X69020476Y-84866533D01*
X69020476Y-84866533D02*
X69020476Y-84771295D01*
X69020476Y-84771295D02*
X69068095Y-84676057D01*
X69068095Y-84676057D02*
X69115714Y-84628438D01*
X69115714Y-84628438D02*
X69210952Y-84580819D01*
X69210952Y-84580819D02*
X69449047Y-84580819D01*
X69449047Y-84580819D02*
X69591904Y-84628438D01*
X69925238Y-84580819D02*
X70163333Y-85580819D01*
X70163333Y-85580819D02*
X70353809Y-84866533D01*
X70353809Y-84866533D02*
X70544285Y-85580819D01*
X70544285Y-85580819D02*
X70782381Y-84580819D01*
X71687142Y-85580819D02*
X71115714Y-85580819D01*
X71401428Y-85580819D02*
X71401428Y-84580819D01*
X71401428Y-84580819D02*
X71306190Y-84723676D01*
X71306190Y-84723676D02*
X71210952Y-84818914D01*
X71210952Y-84818914D02*
X71115714Y-84866533D01*
X72544285Y-84914152D02*
X72544285Y-85580819D01*
X72306190Y-84533200D02*
X72068095Y-85247485D01*
X72068095Y-85247485D02*
X72687142Y-85247485D01*
X181110476Y-106533200D02*
X181253333Y-106580819D01*
X181253333Y-106580819D02*
X181491428Y-106580819D01*
X181491428Y-106580819D02*
X181586666Y-106533200D01*
X181586666Y-106533200D02*
X181634285Y-106485580D01*
X181634285Y-106485580D02*
X181681904Y-106390342D01*
X181681904Y-106390342D02*
X181681904Y-106295104D01*
X181681904Y-106295104D02*
X181634285Y-106199866D01*
X181634285Y-106199866D02*
X181586666Y-106152247D01*
X181586666Y-106152247D02*
X181491428Y-106104628D01*
X181491428Y-106104628D02*
X181300952Y-106057009D01*
X181300952Y-106057009D02*
X181205714Y-106009390D01*
X181205714Y-106009390D02*
X181158095Y-105961771D01*
X181158095Y-105961771D02*
X181110476Y-105866533D01*
X181110476Y-105866533D02*
X181110476Y-105771295D01*
X181110476Y-105771295D02*
X181158095Y-105676057D01*
X181158095Y-105676057D02*
X181205714Y-105628438D01*
X181205714Y-105628438D02*
X181300952Y-105580819D01*
X181300952Y-105580819D02*
X181539047Y-105580819D01*
X181539047Y-105580819D02*
X181681904Y-105628438D01*
X182015238Y-105580819D02*
X182253333Y-106580819D01*
X182253333Y-106580819D02*
X182443809Y-105866533D01*
X182443809Y-105866533D02*
X182634285Y-106580819D01*
X182634285Y-106580819D02*
X182872381Y-105580819D01*
X183777142Y-106580819D02*
X183205714Y-106580819D01*
X183491428Y-106580819D02*
X183491428Y-105580819D01*
X183491428Y-105580819D02*
X183396190Y-105723676D01*
X183396190Y-105723676D02*
X183300952Y-105818914D01*
X183300952Y-105818914D02*
X183205714Y-105866533D01*
X184110476Y-105580819D02*
X184777142Y-105580819D01*
X184777142Y-105580819D02*
X184348571Y-106580819D01*
X124704819Y-51214285D02*
X123704819Y-51214285D01*
X123704819Y-51214285D02*
X123704819Y-50976190D01*
X123704819Y-50976190D02*
X123752438Y-50833333D01*
X123752438Y-50833333D02*
X123847676Y-50738095D01*
X123847676Y-50738095D02*
X123942914Y-50690476D01*
X123942914Y-50690476D02*
X124133390Y-50642857D01*
X124133390Y-50642857D02*
X124276247Y-50642857D01*
X124276247Y-50642857D02*
X124466723Y-50690476D01*
X124466723Y-50690476D02*
X124561961Y-50738095D01*
X124561961Y-50738095D02*
X124657200Y-50833333D01*
X124657200Y-50833333D02*
X124704819Y-50976190D01*
X124704819Y-50976190D02*
X124704819Y-51214285D01*
X123704819Y-50309523D02*
X123704819Y-49690476D01*
X123704819Y-49690476D02*
X124085771Y-50023809D01*
X124085771Y-50023809D02*
X124085771Y-49880952D01*
X124085771Y-49880952D02*
X124133390Y-49785714D01*
X124133390Y-49785714D02*
X124181009Y-49738095D01*
X124181009Y-49738095D02*
X124276247Y-49690476D01*
X124276247Y-49690476D02*
X124514342Y-49690476D01*
X124514342Y-49690476D02*
X124609580Y-49738095D01*
X124609580Y-49738095D02*
X124657200Y-49785714D01*
X124657200Y-49785714D02*
X124704819Y-49880952D01*
X124704819Y-49880952D02*
X124704819Y-50166666D01*
X124704819Y-50166666D02*
X124657200Y-50261904D01*
X124657200Y-50261904D02*
X124609580Y-50309523D01*
X124038152Y-48833333D02*
X124704819Y-48833333D01*
X123657200Y-49071428D02*
X124371485Y-49309523D01*
X124371485Y-49309523D02*
X124371485Y-48690476D01*
X36488095Y-99706819D02*
X37059523Y-99706819D01*
X36773809Y-100706819D02*
X36773809Y-99706819D01*
X37392857Y-100706819D02*
X37392857Y-99706819D01*
X37392857Y-99706819D02*
X37773809Y-99706819D01*
X37773809Y-99706819D02*
X37869047Y-99754438D01*
X37869047Y-99754438D02*
X37916666Y-99802057D01*
X37916666Y-99802057D02*
X37964285Y-99897295D01*
X37964285Y-99897295D02*
X37964285Y-100040152D01*
X37964285Y-100040152D02*
X37916666Y-100135390D01*
X37916666Y-100135390D02*
X37869047Y-100183009D01*
X37869047Y-100183009D02*
X37773809Y-100230628D01*
X37773809Y-100230628D02*
X37392857Y-100230628D01*
X38345238Y-99802057D02*
X38392857Y-99754438D01*
X38392857Y-99754438D02*
X38488095Y-99706819D01*
X38488095Y-99706819D02*
X38726190Y-99706819D01*
X38726190Y-99706819D02*
X38821428Y-99754438D01*
X38821428Y-99754438D02*
X38869047Y-99802057D01*
X38869047Y-99802057D02*
X38916666Y-99897295D01*
X38916666Y-99897295D02*
X38916666Y-99992533D01*
X38916666Y-99992533D02*
X38869047Y-100135390D01*
X38869047Y-100135390D02*
X38297619Y-100706819D01*
X38297619Y-100706819D02*
X38916666Y-100706819D01*
X216124819Y-114214285D02*
X215124819Y-114214285D01*
X215124819Y-114214285D02*
X215124819Y-113976190D01*
X215124819Y-113976190D02*
X215172438Y-113833333D01*
X215172438Y-113833333D02*
X215267676Y-113738095D01*
X215267676Y-113738095D02*
X215362914Y-113690476D01*
X215362914Y-113690476D02*
X215553390Y-113642857D01*
X215553390Y-113642857D02*
X215696247Y-113642857D01*
X215696247Y-113642857D02*
X215886723Y-113690476D01*
X215886723Y-113690476D02*
X215981961Y-113738095D01*
X215981961Y-113738095D02*
X216077200Y-113833333D01*
X216077200Y-113833333D02*
X216124819Y-113976190D01*
X216124819Y-113976190D02*
X216124819Y-114214285D01*
X215124819Y-113309523D02*
X215124819Y-112690476D01*
X215124819Y-112690476D02*
X215505771Y-113023809D01*
X215505771Y-113023809D02*
X215505771Y-112880952D01*
X215505771Y-112880952D02*
X215553390Y-112785714D01*
X215553390Y-112785714D02*
X215601009Y-112738095D01*
X215601009Y-112738095D02*
X215696247Y-112690476D01*
X215696247Y-112690476D02*
X215934342Y-112690476D01*
X215934342Y-112690476D02*
X216029580Y-112738095D01*
X216029580Y-112738095D02*
X216077200Y-112785714D01*
X216077200Y-112785714D02*
X216124819Y-112880952D01*
X216124819Y-112880952D02*
X216124819Y-113166666D01*
X216124819Y-113166666D02*
X216077200Y-113261904D01*
X216077200Y-113261904D02*
X216029580Y-113309523D01*
X215124819Y-112357142D02*
X215124819Y-111738095D01*
X215124819Y-111738095D02*
X215505771Y-112071428D01*
X215505771Y-112071428D02*
X215505771Y-111928571D01*
X215505771Y-111928571D02*
X215553390Y-111833333D01*
X215553390Y-111833333D02*
X215601009Y-111785714D01*
X215601009Y-111785714D02*
X215696247Y-111738095D01*
X215696247Y-111738095D02*
X215934342Y-111738095D01*
X215934342Y-111738095D02*
X216029580Y-111785714D01*
X216029580Y-111785714D02*
X216077200Y-111833333D01*
X216077200Y-111833333D02*
X216124819Y-111928571D01*
X216124819Y-111928571D02*
X216124819Y-112214285D01*
X216124819Y-112214285D02*
X216077200Y-112309523D01*
X216077200Y-112309523D02*
X216029580Y-112357142D01*
X170624819Y-114214285D02*
X169624819Y-114214285D01*
X169624819Y-114214285D02*
X169624819Y-113976190D01*
X169624819Y-113976190D02*
X169672438Y-113833333D01*
X169672438Y-113833333D02*
X169767676Y-113738095D01*
X169767676Y-113738095D02*
X169862914Y-113690476D01*
X169862914Y-113690476D02*
X170053390Y-113642857D01*
X170053390Y-113642857D02*
X170196247Y-113642857D01*
X170196247Y-113642857D02*
X170386723Y-113690476D01*
X170386723Y-113690476D02*
X170481961Y-113738095D01*
X170481961Y-113738095D02*
X170577200Y-113833333D01*
X170577200Y-113833333D02*
X170624819Y-113976190D01*
X170624819Y-113976190D02*
X170624819Y-114214285D01*
X170624819Y-112690476D02*
X170624819Y-113261904D01*
X170624819Y-112976190D02*
X169624819Y-112976190D01*
X169624819Y-112976190D02*
X169767676Y-113071428D01*
X169767676Y-113071428D02*
X169862914Y-113166666D01*
X169862914Y-113166666D02*
X169910533Y-113261904D01*
X169624819Y-112357142D02*
X169624819Y-111690476D01*
X169624819Y-111690476D02*
X170624819Y-112119047D01*
X203860476Y-102533200D02*
X204003333Y-102580819D01*
X204003333Y-102580819D02*
X204241428Y-102580819D01*
X204241428Y-102580819D02*
X204336666Y-102533200D01*
X204336666Y-102533200D02*
X204384285Y-102485580D01*
X204384285Y-102485580D02*
X204431904Y-102390342D01*
X204431904Y-102390342D02*
X204431904Y-102295104D01*
X204431904Y-102295104D02*
X204384285Y-102199866D01*
X204384285Y-102199866D02*
X204336666Y-102152247D01*
X204336666Y-102152247D02*
X204241428Y-102104628D01*
X204241428Y-102104628D02*
X204050952Y-102057009D01*
X204050952Y-102057009D02*
X203955714Y-102009390D01*
X203955714Y-102009390D02*
X203908095Y-101961771D01*
X203908095Y-101961771D02*
X203860476Y-101866533D01*
X203860476Y-101866533D02*
X203860476Y-101771295D01*
X203860476Y-101771295D02*
X203908095Y-101676057D01*
X203908095Y-101676057D02*
X203955714Y-101628438D01*
X203955714Y-101628438D02*
X204050952Y-101580819D01*
X204050952Y-101580819D02*
X204289047Y-101580819D01*
X204289047Y-101580819D02*
X204431904Y-101628438D01*
X204765238Y-101580819D02*
X205003333Y-102580819D01*
X205003333Y-102580819D02*
X205193809Y-101866533D01*
X205193809Y-101866533D02*
X205384285Y-102580819D01*
X205384285Y-102580819D02*
X205622381Y-101580819D01*
X205955714Y-101676057D02*
X206003333Y-101628438D01*
X206003333Y-101628438D02*
X206098571Y-101580819D01*
X206098571Y-101580819D02*
X206336666Y-101580819D01*
X206336666Y-101580819D02*
X206431904Y-101628438D01*
X206431904Y-101628438D02*
X206479523Y-101676057D01*
X206479523Y-101676057D02*
X206527142Y-101771295D01*
X206527142Y-101771295D02*
X206527142Y-101866533D01*
X206527142Y-101866533D02*
X206479523Y-102009390D01*
X206479523Y-102009390D02*
X205908095Y-102580819D01*
X205908095Y-102580819D02*
X206527142Y-102580819D01*
X207431904Y-101580819D02*
X206955714Y-101580819D01*
X206955714Y-101580819D02*
X206908095Y-102057009D01*
X206908095Y-102057009D02*
X206955714Y-102009390D01*
X206955714Y-102009390D02*
X207050952Y-101961771D01*
X207050952Y-101961771D02*
X207289047Y-101961771D01*
X207289047Y-101961771D02*
X207384285Y-102009390D01*
X207384285Y-102009390D02*
X207431904Y-102057009D01*
X207431904Y-102057009D02*
X207479523Y-102152247D01*
X207479523Y-102152247D02*
X207479523Y-102390342D01*
X207479523Y-102390342D02*
X207431904Y-102485580D01*
X207431904Y-102485580D02*
X207384285Y-102533200D01*
X207384285Y-102533200D02*
X207289047Y-102580819D01*
X207289047Y-102580819D02*
X207050952Y-102580819D01*
X207050952Y-102580819D02*
X206955714Y-102533200D01*
X206955714Y-102533200D02*
X206908095Y-102485580D01*
X181110476Y-64533200D02*
X181253333Y-64580819D01*
X181253333Y-64580819D02*
X181491428Y-64580819D01*
X181491428Y-64580819D02*
X181586666Y-64533200D01*
X181586666Y-64533200D02*
X181634285Y-64485580D01*
X181634285Y-64485580D02*
X181681904Y-64390342D01*
X181681904Y-64390342D02*
X181681904Y-64295104D01*
X181681904Y-64295104D02*
X181634285Y-64199866D01*
X181634285Y-64199866D02*
X181586666Y-64152247D01*
X181586666Y-64152247D02*
X181491428Y-64104628D01*
X181491428Y-64104628D02*
X181300952Y-64057009D01*
X181300952Y-64057009D02*
X181205714Y-64009390D01*
X181205714Y-64009390D02*
X181158095Y-63961771D01*
X181158095Y-63961771D02*
X181110476Y-63866533D01*
X181110476Y-63866533D02*
X181110476Y-63771295D01*
X181110476Y-63771295D02*
X181158095Y-63676057D01*
X181158095Y-63676057D02*
X181205714Y-63628438D01*
X181205714Y-63628438D02*
X181300952Y-63580819D01*
X181300952Y-63580819D02*
X181539047Y-63580819D01*
X181539047Y-63580819D02*
X181681904Y-63628438D01*
X182015238Y-63580819D02*
X182253333Y-64580819D01*
X182253333Y-64580819D02*
X182443809Y-63866533D01*
X182443809Y-63866533D02*
X182634285Y-64580819D01*
X182634285Y-64580819D02*
X182872381Y-63580819D01*
X183777142Y-64580819D02*
X183205714Y-64580819D01*
X183491428Y-64580819D02*
X183491428Y-63580819D01*
X183491428Y-63580819D02*
X183396190Y-63723676D01*
X183396190Y-63723676D02*
X183300952Y-63818914D01*
X183300952Y-63818914D02*
X183205714Y-63866533D01*
X184110476Y-63580819D02*
X184729523Y-63580819D01*
X184729523Y-63580819D02*
X184396190Y-63961771D01*
X184396190Y-63961771D02*
X184539047Y-63961771D01*
X184539047Y-63961771D02*
X184634285Y-64009390D01*
X184634285Y-64009390D02*
X184681904Y-64057009D01*
X184681904Y-64057009D02*
X184729523Y-64152247D01*
X184729523Y-64152247D02*
X184729523Y-64390342D01*
X184729523Y-64390342D02*
X184681904Y-64485580D01*
X184681904Y-64485580D02*
X184634285Y-64533200D01*
X184634285Y-64533200D02*
X184539047Y-64580819D01*
X184539047Y-64580819D02*
X184253333Y-64580819D01*
X184253333Y-64580819D02*
X184158095Y-64533200D01*
X184158095Y-64533200D02*
X184110476Y-64485580D01*
D11*
X284253205Y-101538557D02*
X284886512Y-101538557D01*
X284886512Y-101538557D02*
X284961018Y-101501304D01*
X284961018Y-101501304D02*
X284998272Y-101464050D01*
X284998272Y-101464050D02*
X285035525Y-101389544D01*
X285035525Y-101389544D02*
X285035525Y-101240530D01*
X285035525Y-101240530D02*
X284998272Y-101166024D01*
X284998272Y-101166024D02*
X284961018Y-101128770D01*
X284961018Y-101128770D02*
X284886512Y-101091517D01*
X284886512Y-101091517D02*
X284253205Y-101091517D01*
X285035525Y-100309197D02*
X285035525Y-100756237D01*
X285035525Y-100532717D02*
X284253205Y-100532717D01*
X284253205Y-100532717D02*
X284364965Y-100607224D01*
X284364965Y-100607224D02*
X284439472Y-100681731D01*
X284439472Y-100681731D02*
X284476725Y-100756237D01*
D10*
X151454819Y-96738094D02*
X150454819Y-96738094D01*
X150454819Y-96738094D02*
X150454819Y-96499999D01*
X150454819Y-96499999D02*
X150502438Y-96357142D01*
X150502438Y-96357142D02*
X150597676Y-96261904D01*
X150597676Y-96261904D02*
X150692914Y-96214285D01*
X150692914Y-96214285D02*
X150883390Y-96166666D01*
X150883390Y-96166666D02*
X151026247Y-96166666D01*
X151026247Y-96166666D02*
X151216723Y-96214285D01*
X151216723Y-96214285D02*
X151311961Y-96261904D01*
X151311961Y-96261904D02*
X151407200Y-96357142D01*
X151407200Y-96357142D02*
X151454819Y-96499999D01*
X151454819Y-96499999D02*
X151454819Y-96738094D01*
X150454819Y-95833332D02*
X150454819Y-95166666D01*
X150454819Y-95166666D02*
X151454819Y-95595237D01*
X69100476Y-106533200D02*
X69243333Y-106580819D01*
X69243333Y-106580819D02*
X69481428Y-106580819D01*
X69481428Y-106580819D02*
X69576666Y-106533200D01*
X69576666Y-106533200D02*
X69624285Y-106485580D01*
X69624285Y-106485580D02*
X69671904Y-106390342D01*
X69671904Y-106390342D02*
X69671904Y-106295104D01*
X69671904Y-106295104D02*
X69624285Y-106199866D01*
X69624285Y-106199866D02*
X69576666Y-106152247D01*
X69576666Y-106152247D02*
X69481428Y-106104628D01*
X69481428Y-106104628D02*
X69290952Y-106057009D01*
X69290952Y-106057009D02*
X69195714Y-106009390D01*
X69195714Y-106009390D02*
X69148095Y-105961771D01*
X69148095Y-105961771D02*
X69100476Y-105866533D01*
X69100476Y-105866533D02*
X69100476Y-105771295D01*
X69100476Y-105771295D02*
X69148095Y-105676057D01*
X69148095Y-105676057D02*
X69195714Y-105628438D01*
X69195714Y-105628438D02*
X69290952Y-105580819D01*
X69290952Y-105580819D02*
X69529047Y-105580819D01*
X69529047Y-105580819D02*
X69671904Y-105628438D01*
X70005238Y-105580819D02*
X70243333Y-106580819D01*
X70243333Y-106580819D02*
X70433809Y-105866533D01*
X70433809Y-105866533D02*
X70624285Y-106580819D01*
X70624285Y-106580819D02*
X70862381Y-105580819D01*
X71767142Y-106580819D02*
X71195714Y-106580819D01*
X71481428Y-106580819D02*
X71481428Y-105580819D01*
X71481428Y-105580819D02*
X71386190Y-105723676D01*
X71386190Y-105723676D02*
X71290952Y-105818914D01*
X71290952Y-105818914D02*
X71195714Y-105866533D01*
X72624285Y-105580819D02*
X72433809Y-105580819D01*
X72433809Y-105580819D02*
X72338571Y-105628438D01*
X72338571Y-105628438D02*
X72290952Y-105676057D01*
X72290952Y-105676057D02*
X72195714Y-105818914D01*
X72195714Y-105818914D02*
X72148095Y-106009390D01*
X72148095Y-106009390D02*
X72148095Y-106390342D01*
X72148095Y-106390342D02*
X72195714Y-106485580D01*
X72195714Y-106485580D02*
X72243333Y-106533200D01*
X72243333Y-106533200D02*
X72338571Y-106580819D01*
X72338571Y-106580819D02*
X72529047Y-106580819D01*
X72529047Y-106580819D02*
X72624285Y-106533200D01*
X72624285Y-106533200D02*
X72671904Y-106485580D01*
X72671904Y-106485580D02*
X72719523Y-106390342D01*
X72719523Y-106390342D02*
X72719523Y-106152247D01*
X72719523Y-106152247D02*
X72671904Y-106057009D01*
X72671904Y-106057009D02*
X72624285Y-106009390D01*
X72624285Y-106009390D02*
X72529047Y-105961771D01*
X72529047Y-105961771D02*
X72338571Y-105961771D01*
X72338571Y-105961771D02*
X72243333Y-106009390D01*
X72243333Y-106009390D02*
X72195714Y-106057009D01*
X72195714Y-106057009D02*
X72148095Y-106152247D01*
X111350476Y-64533200D02*
X111493333Y-64580819D01*
X111493333Y-64580819D02*
X111731428Y-64580819D01*
X111731428Y-64580819D02*
X111826666Y-64533200D01*
X111826666Y-64533200D02*
X111874285Y-64485580D01*
X111874285Y-64485580D02*
X111921904Y-64390342D01*
X111921904Y-64390342D02*
X111921904Y-64295104D01*
X111921904Y-64295104D02*
X111874285Y-64199866D01*
X111874285Y-64199866D02*
X111826666Y-64152247D01*
X111826666Y-64152247D02*
X111731428Y-64104628D01*
X111731428Y-64104628D02*
X111540952Y-64057009D01*
X111540952Y-64057009D02*
X111445714Y-64009390D01*
X111445714Y-64009390D02*
X111398095Y-63961771D01*
X111398095Y-63961771D02*
X111350476Y-63866533D01*
X111350476Y-63866533D02*
X111350476Y-63771295D01*
X111350476Y-63771295D02*
X111398095Y-63676057D01*
X111398095Y-63676057D02*
X111445714Y-63628438D01*
X111445714Y-63628438D02*
X111540952Y-63580819D01*
X111540952Y-63580819D02*
X111779047Y-63580819D01*
X111779047Y-63580819D02*
X111921904Y-63628438D01*
X112255238Y-63580819D02*
X112493333Y-64580819D01*
X112493333Y-64580819D02*
X112683809Y-63866533D01*
X112683809Y-63866533D02*
X112874285Y-64580819D01*
X112874285Y-64580819D02*
X113112381Y-63580819D01*
X113445714Y-63676057D02*
X113493333Y-63628438D01*
X113493333Y-63628438D02*
X113588571Y-63580819D01*
X113588571Y-63580819D02*
X113826666Y-63580819D01*
X113826666Y-63580819D02*
X113921904Y-63628438D01*
X113921904Y-63628438D02*
X113969523Y-63676057D01*
X113969523Y-63676057D02*
X114017142Y-63771295D01*
X114017142Y-63771295D02*
X114017142Y-63866533D01*
X114017142Y-63866533D02*
X113969523Y-64009390D01*
X113969523Y-64009390D02*
X113398095Y-64580819D01*
X113398095Y-64580819D02*
X114017142Y-64580819D01*
X114588571Y-64009390D02*
X114493333Y-63961771D01*
X114493333Y-63961771D02*
X114445714Y-63914152D01*
X114445714Y-63914152D02*
X114398095Y-63818914D01*
X114398095Y-63818914D02*
X114398095Y-63771295D01*
X114398095Y-63771295D02*
X114445714Y-63676057D01*
X114445714Y-63676057D02*
X114493333Y-63628438D01*
X114493333Y-63628438D02*
X114588571Y-63580819D01*
X114588571Y-63580819D02*
X114779047Y-63580819D01*
X114779047Y-63580819D02*
X114874285Y-63628438D01*
X114874285Y-63628438D02*
X114921904Y-63676057D01*
X114921904Y-63676057D02*
X114969523Y-63771295D01*
X114969523Y-63771295D02*
X114969523Y-63818914D01*
X114969523Y-63818914D02*
X114921904Y-63914152D01*
X114921904Y-63914152D02*
X114874285Y-63961771D01*
X114874285Y-63961771D02*
X114779047Y-64009390D01*
X114779047Y-64009390D02*
X114588571Y-64009390D01*
X114588571Y-64009390D02*
X114493333Y-64057009D01*
X114493333Y-64057009D02*
X114445714Y-64104628D01*
X114445714Y-64104628D02*
X114398095Y-64199866D01*
X114398095Y-64199866D02*
X114398095Y-64390342D01*
X114398095Y-64390342D02*
X114445714Y-64485580D01*
X114445714Y-64485580D02*
X114493333Y-64533200D01*
X114493333Y-64533200D02*
X114588571Y-64580819D01*
X114588571Y-64580819D02*
X114779047Y-64580819D01*
X114779047Y-64580819D02*
X114874285Y-64533200D01*
X114874285Y-64533200D02*
X114921904Y-64485580D01*
X114921904Y-64485580D02*
X114969523Y-64390342D01*
X114969523Y-64390342D02*
X114969523Y-64199866D01*
X114969523Y-64199866D02*
X114921904Y-64104628D01*
X114921904Y-64104628D02*
X114874285Y-64057009D01*
X114874285Y-64057009D02*
X114779047Y-64009390D01*
X90020476Y-102533200D02*
X90163333Y-102580819D01*
X90163333Y-102580819D02*
X90401428Y-102580819D01*
X90401428Y-102580819D02*
X90496666Y-102533200D01*
X90496666Y-102533200D02*
X90544285Y-102485580D01*
X90544285Y-102485580D02*
X90591904Y-102390342D01*
X90591904Y-102390342D02*
X90591904Y-102295104D01*
X90591904Y-102295104D02*
X90544285Y-102199866D01*
X90544285Y-102199866D02*
X90496666Y-102152247D01*
X90496666Y-102152247D02*
X90401428Y-102104628D01*
X90401428Y-102104628D02*
X90210952Y-102057009D01*
X90210952Y-102057009D02*
X90115714Y-102009390D01*
X90115714Y-102009390D02*
X90068095Y-101961771D01*
X90068095Y-101961771D02*
X90020476Y-101866533D01*
X90020476Y-101866533D02*
X90020476Y-101771295D01*
X90020476Y-101771295D02*
X90068095Y-101676057D01*
X90068095Y-101676057D02*
X90115714Y-101628438D01*
X90115714Y-101628438D02*
X90210952Y-101580819D01*
X90210952Y-101580819D02*
X90449047Y-101580819D01*
X90449047Y-101580819D02*
X90591904Y-101628438D01*
X90925238Y-101580819D02*
X91163333Y-102580819D01*
X91163333Y-102580819D02*
X91353809Y-101866533D01*
X91353809Y-101866533D02*
X91544285Y-102580819D01*
X91544285Y-102580819D02*
X91782381Y-101580819D01*
X92115714Y-101676057D02*
X92163333Y-101628438D01*
X92163333Y-101628438D02*
X92258571Y-101580819D01*
X92258571Y-101580819D02*
X92496666Y-101580819D01*
X92496666Y-101580819D02*
X92591904Y-101628438D01*
X92591904Y-101628438D02*
X92639523Y-101676057D01*
X92639523Y-101676057D02*
X92687142Y-101771295D01*
X92687142Y-101771295D02*
X92687142Y-101866533D01*
X92687142Y-101866533D02*
X92639523Y-102009390D01*
X92639523Y-102009390D02*
X92068095Y-102580819D01*
X92068095Y-102580819D02*
X92687142Y-102580819D01*
X93544285Y-101914152D02*
X93544285Y-102580819D01*
X93306190Y-101533200D02*
X93068095Y-102247485D01*
X93068095Y-102247485D02*
X93687142Y-102247485D01*
X90020476Y-81533200D02*
X90163333Y-81580819D01*
X90163333Y-81580819D02*
X90401428Y-81580819D01*
X90401428Y-81580819D02*
X90496666Y-81533200D01*
X90496666Y-81533200D02*
X90544285Y-81485580D01*
X90544285Y-81485580D02*
X90591904Y-81390342D01*
X90591904Y-81390342D02*
X90591904Y-81295104D01*
X90591904Y-81295104D02*
X90544285Y-81199866D01*
X90544285Y-81199866D02*
X90496666Y-81152247D01*
X90496666Y-81152247D02*
X90401428Y-81104628D01*
X90401428Y-81104628D02*
X90210952Y-81057009D01*
X90210952Y-81057009D02*
X90115714Y-81009390D01*
X90115714Y-81009390D02*
X90068095Y-80961771D01*
X90068095Y-80961771D02*
X90020476Y-80866533D01*
X90020476Y-80866533D02*
X90020476Y-80771295D01*
X90020476Y-80771295D02*
X90068095Y-80676057D01*
X90068095Y-80676057D02*
X90115714Y-80628438D01*
X90115714Y-80628438D02*
X90210952Y-80580819D01*
X90210952Y-80580819D02*
X90449047Y-80580819D01*
X90449047Y-80580819D02*
X90591904Y-80628438D01*
X90925238Y-80580819D02*
X91163333Y-81580819D01*
X91163333Y-81580819D02*
X91353809Y-80866533D01*
X91353809Y-80866533D02*
X91544285Y-81580819D01*
X91544285Y-81580819D02*
X91782381Y-80580819D01*
X92115714Y-80676057D02*
X92163333Y-80628438D01*
X92163333Y-80628438D02*
X92258571Y-80580819D01*
X92258571Y-80580819D02*
X92496666Y-80580819D01*
X92496666Y-80580819D02*
X92591904Y-80628438D01*
X92591904Y-80628438D02*
X92639523Y-80676057D01*
X92639523Y-80676057D02*
X92687142Y-80771295D01*
X92687142Y-80771295D02*
X92687142Y-80866533D01*
X92687142Y-80866533D02*
X92639523Y-81009390D01*
X92639523Y-81009390D02*
X92068095Y-81580819D01*
X92068095Y-81580819D02*
X92687142Y-81580819D01*
X93068095Y-80676057D02*
X93115714Y-80628438D01*
X93115714Y-80628438D02*
X93210952Y-80580819D01*
X93210952Y-80580819D02*
X93449047Y-80580819D01*
X93449047Y-80580819D02*
X93544285Y-80628438D01*
X93544285Y-80628438D02*
X93591904Y-80676057D01*
X93591904Y-80676057D02*
X93639523Y-80771295D01*
X93639523Y-80771295D02*
X93639523Y-80866533D01*
X93639523Y-80866533D02*
X93591904Y-81009390D01*
X93591904Y-81009390D02*
X93020476Y-81580819D01*
X93020476Y-81580819D02*
X93639523Y-81580819D01*
X60364819Y-114214285D02*
X59364819Y-114214285D01*
X59364819Y-114214285D02*
X59364819Y-113976190D01*
X59364819Y-113976190D02*
X59412438Y-113833333D01*
X59412438Y-113833333D02*
X59507676Y-113738095D01*
X59507676Y-113738095D02*
X59602914Y-113690476D01*
X59602914Y-113690476D02*
X59793390Y-113642857D01*
X59793390Y-113642857D02*
X59936247Y-113642857D01*
X59936247Y-113642857D02*
X60126723Y-113690476D01*
X60126723Y-113690476D02*
X60221961Y-113738095D01*
X60221961Y-113738095D02*
X60317200Y-113833333D01*
X60317200Y-113833333D02*
X60364819Y-113976190D01*
X60364819Y-113976190D02*
X60364819Y-114214285D01*
X60364819Y-112690476D02*
X60364819Y-113261904D01*
X60364819Y-112976190D02*
X59364819Y-112976190D01*
X59364819Y-112976190D02*
X59507676Y-113071428D01*
X59507676Y-113071428D02*
X59602914Y-113166666D01*
X59602914Y-113166666D02*
X59650533Y-113261904D01*
X59364819Y-111833333D02*
X59364819Y-112023809D01*
X59364819Y-112023809D02*
X59412438Y-112119047D01*
X59412438Y-112119047D02*
X59460057Y-112166666D01*
X59460057Y-112166666D02*
X59602914Y-112261904D01*
X59602914Y-112261904D02*
X59793390Y-112309523D01*
X59793390Y-112309523D02*
X60174342Y-112309523D01*
X60174342Y-112309523D02*
X60269580Y-112261904D01*
X60269580Y-112261904D02*
X60317200Y-112214285D01*
X60317200Y-112214285D02*
X60364819Y-112119047D01*
X60364819Y-112119047D02*
X60364819Y-111928571D01*
X60364819Y-111928571D02*
X60317200Y-111833333D01*
X60317200Y-111833333D02*
X60269580Y-111785714D01*
X60269580Y-111785714D02*
X60174342Y-111738095D01*
X60174342Y-111738095D02*
X59936247Y-111738095D01*
X59936247Y-111738095D02*
X59841009Y-111785714D01*
X59841009Y-111785714D02*
X59793390Y-111833333D01*
X59793390Y-111833333D02*
X59745771Y-111928571D01*
X59745771Y-111928571D02*
X59745771Y-112119047D01*
X59745771Y-112119047D02*
X59793390Y-112214285D01*
X59793390Y-112214285D02*
X59841009Y-112261904D01*
X59841009Y-112261904D02*
X59936247Y-112309523D01*
X268333333Y-93304819D02*
X268000000Y-92828628D01*
X267761905Y-93304819D02*
X267761905Y-92304819D01*
X267761905Y-92304819D02*
X268142857Y-92304819D01*
X268142857Y-92304819D02*
X268238095Y-92352438D01*
X268238095Y-92352438D02*
X268285714Y-92400057D01*
X268285714Y-92400057D02*
X268333333Y-92495295D01*
X268333333Y-92495295D02*
X268333333Y-92638152D01*
X268333333Y-92638152D02*
X268285714Y-92733390D01*
X268285714Y-92733390D02*
X268238095Y-92781009D01*
X268238095Y-92781009D02*
X268142857Y-92828628D01*
X268142857Y-92828628D02*
X267761905Y-92828628D01*
X269285714Y-93304819D02*
X268714286Y-93304819D01*
X269000000Y-93304819D02*
X269000000Y-92304819D01*
X269000000Y-92304819D02*
X268904762Y-92447676D01*
X268904762Y-92447676D02*
X268809524Y-92542914D01*
X268809524Y-92542914D02*
X268714286Y-92590533D01*
X216124819Y-51214285D02*
X215124819Y-51214285D01*
X215124819Y-51214285D02*
X215124819Y-50976190D01*
X215124819Y-50976190D02*
X215172438Y-50833333D01*
X215172438Y-50833333D02*
X215267676Y-50738095D01*
X215267676Y-50738095D02*
X215362914Y-50690476D01*
X215362914Y-50690476D02*
X215553390Y-50642857D01*
X215553390Y-50642857D02*
X215696247Y-50642857D01*
X215696247Y-50642857D02*
X215886723Y-50690476D01*
X215886723Y-50690476D02*
X215981961Y-50738095D01*
X215981961Y-50738095D02*
X216077200Y-50833333D01*
X216077200Y-50833333D02*
X216124819Y-50976190D01*
X216124819Y-50976190D02*
X216124819Y-51214285D01*
X215220057Y-50261904D02*
X215172438Y-50214285D01*
X215172438Y-50214285D02*
X215124819Y-50119047D01*
X215124819Y-50119047D02*
X215124819Y-49880952D01*
X215124819Y-49880952D02*
X215172438Y-49785714D01*
X215172438Y-49785714D02*
X215220057Y-49738095D01*
X215220057Y-49738095D02*
X215315295Y-49690476D01*
X215315295Y-49690476D02*
X215410533Y-49690476D01*
X215410533Y-49690476D02*
X215553390Y-49738095D01*
X215553390Y-49738095D02*
X216124819Y-50309523D01*
X216124819Y-50309523D02*
X216124819Y-49690476D01*
X215124819Y-49357142D02*
X215124819Y-48690476D01*
X215124819Y-48690476D02*
X216124819Y-49119047D01*
D11*
X11854891Y-117363549D02*
X12488198Y-117363549D01*
X12488198Y-117363549D02*
X12562704Y-117326296D01*
X12562704Y-117326296D02*
X12599958Y-117289042D01*
X12599958Y-117289042D02*
X12637211Y-117214536D01*
X12637211Y-117214536D02*
X12637211Y-117065522D01*
X12637211Y-117065522D02*
X12599958Y-116991016D01*
X12599958Y-116991016D02*
X12562704Y-116953762D01*
X12562704Y-116953762D02*
X12488198Y-116916509D01*
X12488198Y-116916509D02*
X11854891Y-116916509D01*
X11929398Y-116581229D02*
X11892144Y-116543976D01*
X11892144Y-116543976D02*
X11854891Y-116469469D01*
X11854891Y-116469469D02*
X11854891Y-116283203D01*
X11854891Y-116283203D02*
X11892144Y-116208696D01*
X11892144Y-116208696D02*
X11929398Y-116171443D01*
X11929398Y-116171443D02*
X12003904Y-116134189D01*
X12003904Y-116134189D02*
X12078411Y-116134189D01*
X12078411Y-116134189D02*
X12190171Y-116171443D01*
X12190171Y-116171443D02*
X12637211Y-116618483D01*
X12637211Y-116618483D02*
X12637211Y-116134189D01*
D10*
X81364819Y-68214285D02*
X80364819Y-68214285D01*
X80364819Y-68214285D02*
X80364819Y-67976190D01*
X80364819Y-67976190D02*
X80412438Y-67833333D01*
X80412438Y-67833333D02*
X80507676Y-67738095D01*
X80507676Y-67738095D02*
X80602914Y-67690476D01*
X80602914Y-67690476D02*
X80793390Y-67642857D01*
X80793390Y-67642857D02*
X80936247Y-67642857D01*
X80936247Y-67642857D02*
X81126723Y-67690476D01*
X81126723Y-67690476D02*
X81221961Y-67738095D01*
X81221961Y-67738095D02*
X81317200Y-67833333D01*
X81317200Y-67833333D02*
X81364819Y-67976190D01*
X81364819Y-67976190D02*
X81364819Y-68214285D01*
X80460057Y-67261904D02*
X80412438Y-67214285D01*
X80412438Y-67214285D02*
X80364819Y-67119047D01*
X80364819Y-67119047D02*
X80364819Y-66880952D01*
X80364819Y-66880952D02*
X80412438Y-66785714D01*
X80412438Y-66785714D02*
X80460057Y-66738095D01*
X80460057Y-66738095D02*
X80555295Y-66690476D01*
X80555295Y-66690476D02*
X80650533Y-66690476D01*
X80650533Y-66690476D02*
X80793390Y-66738095D01*
X80793390Y-66738095D02*
X81364819Y-67309523D01*
X81364819Y-67309523D02*
X81364819Y-66690476D01*
X80364819Y-66071428D02*
X80364819Y-65976190D01*
X80364819Y-65976190D02*
X80412438Y-65880952D01*
X80412438Y-65880952D02*
X80460057Y-65833333D01*
X80460057Y-65833333D02*
X80555295Y-65785714D01*
X80555295Y-65785714D02*
X80745771Y-65738095D01*
X80745771Y-65738095D02*
X80983866Y-65738095D01*
X80983866Y-65738095D02*
X81174342Y-65785714D01*
X81174342Y-65785714D02*
X81269580Y-65833333D01*
X81269580Y-65833333D02*
X81317200Y-65880952D01*
X81317200Y-65880952D02*
X81364819Y-65976190D01*
X81364819Y-65976190D02*
X81364819Y-66071428D01*
X81364819Y-66071428D02*
X81317200Y-66166666D01*
X81317200Y-66166666D02*
X81269580Y-66214285D01*
X81269580Y-66214285D02*
X81174342Y-66261904D01*
X81174342Y-66261904D02*
X80983866Y-66309523D01*
X80983866Y-66309523D02*
X80745771Y-66309523D01*
X80745771Y-66309523D02*
X80555295Y-66261904D01*
X80555295Y-66261904D02*
X80460057Y-66214285D01*
X80460057Y-66214285D02*
X80412438Y-66166666D01*
X80412438Y-66166666D02*
X80364819Y-66071428D01*
X60364819Y-51214285D02*
X59364819Y-51214285D01*
X59364819Y-51214285D02*
X59364819Y-50976190D01*
X59364819Y-50976190D02*
X59412438Y-50833333D01*
X59412438Y-50833333D02*
X59507676Y-50738095D01*
X59507676Y-50738095D02*
X59602914Y-50690476D01*
X59602914Y-50690476D02*
X59793390Y-50642857D01*
X59793390Y-50642857D02*
X59936247Y-50642857D01*
X59936247Y-50642857D02*
X60126723Y-50690476D01*
X60126723Y-50690476D02*
X60221961Y-50738095D01*
X60221961Y-50738095D02*
X60317200Y-50833333D01*
X60317200Y-50833333D02*
X60364819Y-50976190D01*
X60364819Y-50976190D02*
X60364819Y-51214285D01*
X60364819Y-49690476D02*
X60364819Y-50261904D01*
X60364819Y-49976190D02*
X59364819Y-49976190D01*
X59364819Y-49976190D02*
X59507676Y-50071428D01*
X59507676Y-50071428D02*
X59602914Y-50166666D01*
X59602914Y-50166666D02*
X59650533Y-50261904D01*
X59364819Y-49071428D02*
X59364819Y-48976190D01*
X59364819Y-48976190D02*
X59412438Y-48880952D01*
X59412438Y-48880952D02*
X59460057Y-48833333D01*
X59460057Y-48833333D02*
X59555295Y-48785714D01*
X59555295Y-48785714D02*
X59745771Y-48738095D01*
X59745771Y-48738095D02*
X59983866Y-48738095D01*
X59983866Y-48738095D02*
X60174342Y-48785714D01*
X60174342Y-48785714D02*
X60269580Y-48833333D01*
X60269580Y-48833333D02*
X60317200Y-48880952D01*
X60317200Y-48880952D02*
X60364819Y-48976190D01*
X60364819Y-48976190D02*
X60364819Y-49071428D01*
X60364819Y-49071428D02*
X60317200Y-49166666D01*
X60317200Y-49166666D02*
X60269580Y-49214285D01*
X60269580Y-49214285D02*
X60174342Y-49261904D01*
X60174342Y-49261904D02*
X59983866Y-49309523D01*
X59983866Y-49309523D02*
X59745771Y-49309523D01*
X59745771Y-49309523D02*
X59555295Y-49261904D01*
X59555295Y-49261904D02*
X59460057Y-49214285D01*
X59460057Y-49214285D02*
X59412438Y-49166666D01*
X59412438Y-49166666D02*
X59364819Y-49071428D01*
X170624819Y-72214285D02*
X169624819Y-72214285D01*
X169624819Y-72214285D02*
X169624819Y-71976190D01*
X169624819Y-71976190D02*
X169672438Y-71833333D01*
X169672438Y-71833333D02*
X169767676Y-71738095D01*
X169767676Y-71738095D02*
X169862914Y-71690476D01*
X169862914Y-71690476D02*
X170053390Y-71642857D01*
X170053390Y-71642857D02*
X170196247Y-71642857D01*
X170196247Y-71642857D02*
X170386723Y-71690476D01*
X170386723Y-71690476D02*
X170481961Y-71738095D01*
X170481961Y-71738095D02*
X170577200Y-71833333D01*
X170577200Y-71833333D02*
X170624819Y-71976190D01*
X170624819Y-71976190D02*
X170624819Y-72214285D01*
X170624819Y-70690476D02*
X170624819Y-71261904D01*
X170624819Y-70976190D02*
X169624819Y-70976190D01*
X169624819Y-70976190D02*
X169767676Y-71071428D01*
X169767676Y-71071428D02*
X169862914Y-71166666D01*
X169862914Y-71166666D02*
X169910533Y-71261904D01*
X169624819Y-70357142D02*
X169624819Y-69738095D01*
X169624819Y-69738095D02*
X170005771Y-70071428D01*
X170005771Y-70071428D02*
X170005771Y-69928571D01*
X170005771Y-69928571D02*
X170053390Y-69833333D01*
X170053390Y-69833333D02*
X170101009Y-69785714D01*
X170101009Y-69785714D02*
X170196247Y-69738095D01*
X170196247Y-69738095D02*
X170434342Y-69738095D01*
X170434342Y-69738095D02*
X170529580Y-69785714D01*
X170529580Y-69785714D02*
X170577200Y-69833333D01*
X170577200Y-69833333D02*
X170624819Y-69928571D01*
X170624819Y-69928571D02*
X170624819Y-70214285D01*
X170624819Y-70214285D02*
X170577200Y-70309523D01*
X170577200Y-70309523D02*
X170529580Y-70357142D01*
X181110476Y-85533200D02*
X181253333Y-85580819D01*
X181253333Y-85580819D02*
X181491428Y-85580819D01*
X181491428Y-85580819D02*
X181586666Y-85533200D01*
X181586666Y-85533200D02*
X181634285Y-85485580D01*
X181634285Y-85485580D02*
X181681904Y-85390342D01*
X181681904Y-85390342D02*
X181681904Y-85295104D01*
X181681904Y-85295104D02*
X181634285Y-85199866D01*
X181634285Y-85199866D02*
X181586666Y-85152247D01*
X181586666Y-85152247D02*
X181491428Y-85104628D01*
X181491428Y-85104628D02*
X181300952Y-85057009D01*
X181300952Y-85057009D02*
X181205714Y-85009390D01*
X181205714Y-85009390D02*
X181158095Y-84961771D01*
X181158095Y-84961771D02*
X181110476Y-84866533D01*
X181110476Y-84866533D02*
X181110476Y-84771295D01*
X181110476Y-84771295D02*
X181158095Y-84676057D01*
X181158095Y-84676057D02*
X181205714Y-84628438D01*
X181205714Y-84628438D02*
X181300952Y-84580819D01*
X181300952Y-84580819D02*
X181539047Y-84580819D01*
X181539047Y-84580819D02*
X181681904Y-84628438D01*
X182015238Y-84580819D02*
X182253333Y-85580819D01*
X182253333Y-85580819D02*
X182443809Y-84866533D01*
X182443809Y-84866533D02*
X182634285Y-85580819D01*
X182634285Y-85580819D02*
X182872381Y-84580819D01*
X183777142Y-85580819D02*
X183205714Y-85580819D01*
X183491428Y-85580819D02*
X183491428Y-84580819D01*
X183491428Y-84580819D02*
X183396190Y-84723676D01*
X183396190Y-84723676D02*
X183300952Y-84818914D01*
X183300952Y-84818914D02*
X183205714Y-84866533D01*
X184681904Y-84580819D02*
X184205714Y-84580819D01*
X184205714Y-84580819D02*
X184158095Y-85057009D01*
X184158095Y-85057009D02*
X184205714Y-85009390D01*
X184205714Y-85009390D02*
X184300952Y-84961771D01*
X184300952Y-84961771D02*
X184539047Y-84961771D01*
X184539047Y-84961771D02*
X184634285Y-85009390D01*
X184634285Y-85009390D02*
X184681904Y-85057009D01*
X184681904Y-85057009D02*
X184729523Y-85152247D01*
X184729523Y-85152247D02*
X184729523Y-85390342D01*
X184729523Y-85390342D02*
X184681904Y-85485580D01*
X184681904Y-85485580D02*
X184634285Y-85533200D01*
X184634285Y-85533200D02*
X184539047Y-85580819D01*
X184539047Y-85580819D02*
X184300952Y-85580819D01*
X184300952Y-85580819D02*
X184205714Y-85533200D01*
X184205714Y-85533200D02*
X184158095Y-85485580D01*
X257204819Y-130738094D02*
X256204819Y-130738094D01*
X256204819Y-130738094D02*
X256204819Y-130499999D01*
X256204819Y-130499999D02*
X256252438Y-130357142D01*
X256252438Y-130357142D02*
X256347676Y-130261904D01*
X256347676Y-130261904D02*
X256442914Y-130214285D01*
X256442914Y-130214285D02*
X256633390Y-130166666D01*
X256633390Y-130166666D02*
X256776247Y-130166666D01*
X256776247Y-130166666D02*
X256966723Y-130214285D01*
X256966723Y-130214285D02*
X257061961Y-130261904D01*
X257061961Y-130261904D02*
X257157200Y-130357142D01*
X257157200Y-130357142D02*
X257204819Y-130499999D01*
X257204819Y-130499999D02*
X257204819Y-130738094D01*
X257204819Y-129214285D02*
X257204819Y-129785713D01*
X257204819Y-129499999D02*
X256204819Y-129499999D01*
X256204819Y-129499999D02*
X256347676Y-129595237D01*
X256347676Y-129595237D02*
X256442914Y-129690475D01*
X256442914Y-129690475D02*
X256490533Y-129785713D01*
X48576667Y-68533200D02*
X48719524Y-68580819D01*
X48719524Y-68580819D02*
X48957619Y-68580819D01*
X48957619Y-68580819D02*
X49052857Y-68533200D01*
X49052857Y-68533200D02*
X49100476Y-68485580D01*
X49100476Y-68485580D02*
X49148095Y-68390342D01*
X49148095Y-68390342D02*
X49148095Y-68295104D01*
X49148095Y-68295104D02*
X49100476Y-68199866D01*
X49100476Y-68199866D02*
X49052857Y-68152247D01*
X49052857Y-68152247D02*
X48957619Y-68104628D01*
X48957619Y-68104628D02*
X48767143Y-68057009D01*
X48767143Y-68057009D02*
X48671905Y-68009390D01*
X48671905Y-68009390D02*
X48624286Y-67961771D01*
X48624286Y-67961771D02*
X48576667Y-67866533D01*
X48576667Y-67866533D02*
X48576667Y-67771295D01*
X48576667Y-67771295D02*
X48624286Y-67676057D01*
X48624286Y-67676057D02*
X48671905Y-67628438D01*
X48671905Y-67628438D02*
X48767143Y-67580819D01*
X48767143Y-67580819D02*
X49005238Y-67580819D01*
X49005238Y-67580819D02*
X49148095Y-67628438D01*
X49481429Y-67580819D02*
X49719524Y-68580819D01*
X49719524Y-68580819D02*
X49910000Y-67866533D01*
X49910000Y-67866533D02*
X50100476Y-68580819D01*
X50100476Y-68580819D02*
X50338572Y-67580819D01*
X51148095Y-67914152D02*
X51148095Y-68580819D01*
X50910000Y-67533200D02*
X50671905Y-68247485D01*
X50671905Y-68247485D02*
X51290952Y-68247485D01*
X193214819Y-110214285D02*
X192214819Y-110214285D01*
X192214819Y-110214285D02*
X192214819Y-109976190D01*
X192214819Y-109976190D02*
X192262438Y-109833333D01*
X192262438Y-109833333D02*
X192357676Y-109738095D01*
X192357676Y-109738095D02*
X192452914Y-109690476D01*
X192452914Y-109690476D02*
X192643390Y-109642857D01*
X192643390Y-109642857D02*
X192786247Y-109642857D01*
X192786247Y-109642857D02*
X192976723Y-109690476D01*
X192976723Y-109690476D02*
X193071961Y-109738095D01*
X193071961Y-109738095D02*
X193167200Y-109833333D01*
X193167200Y-109833333D02*
X193214819Y-109976190D01*
X193214819Y-109976190D02*
X193214819Y-110214285D01*
X192310057Y-109261904D02*
X192262438Y-109214285D01*
X192262438Y-109214285D02*
X192214819Y-109119047D01*
X192214819Y-109119047D02*
X192214819Y-108880952D01*
X192214819Y-108880952D02*
X192262438Y-108785714D01*
X192262438Y-108785714D02*
X192310057Y-108738095D01*
X192310057Y-108738095D02*
X192405295Y-108690476D01*
X192405295Y-108690476D02*
X192500533Y-108690476D01*
X192500533Y-108690476D02*
X192643390Y-108738095D01*
X192643390Y-108738095D02*
X193214819Y-109309523D01*
X193214819Y-109309523D02*
X193214819Y-108690476D01*
X192214819Y-107785714D02*
X192214819Y-108261904D01*
X192214819Y-108261904D02*
X192691009Y-108309523D01*
X192691009Y-108309523D02*
X192643390Y-108261904D01*
X192643390Y-108261904D02*
X192595771Y-108166666D01*
X192595771Y-108166666D02*
X192595771Y-107928571D01*
X192595771Y-107928571D02*
X192643390Y-107833333D01*
X192643390Y-107833333D02*
X192691009Y-107785714D01*
X192691009Y-107785714D02*
X192786247Y-107738095D01*
X192786247Y-107738095D02*
X193024342Y-107738095D01*
X193024342Y-107738095D02*
X193119580Y-107785714D01*
X193119580Y-107785714D02*
X193167200Y-107833333D01*
X193167200Y-107833333D02*
X193214819Y-107928571D01*
X193214819Y-107928571D02*
X193214819Y-108166666D01*
X193214819Y-108166666D02*
X193167200Y-108261904D01*
X193167200Y-108261904D02*
X193119580Y-108309523D01*
X18284819Y-131214285D02*
X17284819Y-131214285D01*
X17284819Y-131214285D02*
X17284819Y-130976190D01*
X17284819Y-130976190D02*
X17332438Y-130833333D01*
X17332438Y-130833333D02*
X17427676Y-130738095D01*
X17427676Y-130738095D02*
X17522914Y-130690476D01*
X17522914Y-130690476D02*
X17713390Y-130642857D01*
X17713390Y-130642857D02*
X17856247Y-130642857D01*
X17856247Y-130642857D02*
X18046723Y-130690476D01*
X18046723Y-130690476D02*
X18141961Y-130738095D01*
X18141961Y-130738095D02*
X18237200Y-130833333D01*
X18237200Y-130833333D02*
X18284819Y-130976190D01*
X18284819Y-130976190D02*
X18284819Y-131214285D01*
X17618152Y-129785714D02*
X18284819Y-129785714D01*
X17237200Y-130023809D02*
X17951485Y-130261904D01*
X17951485Y-130261904D02*
X17951485Y-129642857D01*
X17380057Y-129309523D02*
X17332438Y-129261904D01*
X17332438Y-129261904D02*
X17284819Y-129166666D01*
X17284819Y-129166666D02*
X17284819Y-128928571D01*
X17284819Y-128928571D02*
X17332438Y-128833333D01*
X17332438Y-128833333D02*
X17380057Y-128785714D01*
X17380057Y-128785714D02*
X17475295Y-128738095D01*
X17475295Y-128738095D02*
X17570533Y-128738095D01*
X17570533Y-128738095D02*
X17713390Y-128785714D01*
X17713390Y-128785714D02*
X18284819Y-129357142D01*
X18284819Y-129357142D02*
X18284819Y-128738095D01*
X181110476Y-43533200D02*
X181253333Y-43580819D01*
X181253333Y-43580819D02*
X181491428Y-43580819D01*
X181491428Y-43580819D02*
X181586666Y-43533200D01*
X181586666Y-43533200D02*
X181634285Y-43485580D01*
X181634285Y-43485580D02*
X181681904Y-43390342D01*
X181681904Y-43390342D02*
X181681904Y-43295104D01*
X181681904Y-43295104D02*
X181634285Y-43199866D01*
X181634285Y-43199866D02*
X181586666Y-43152247D01*
X181586666Y-43152247D02*
X181491428Y-43104628D01*
X181491428Y-43104628D02*
X181300952Y-43057009D01*
X181300952Y-43057009D02*
X181205714Y-43009390D01*
X181205714Y-43009390D02*
X181158095Y-42961771D01*
X181158095Y-42961771D02*
X181110476Y-42866533D01*
X181110476Y-42866533D02*
X181110476Y-42771295D01*
X181110476Y-42771295D02*
X181158095Y-42676057D01*
X181158095Y-42676057D02*
X181205714Y-42628438D01*
X181205714Y-42628438D02*
X181300952Y-42580819D01*
X181300952Y-42580819D02*
X181539047Y-42580819D01*
X181539047Y-42580819D02*
X181681904Y-42628438D01*
X182015238Y-42580819D02*
X182253333Y-43580819D01*
X182253333Y-43580819D02*
X182443809Y-42866533D01*
X182443809Y-42866533D02*
X182634285Y-43580819D01*
X182634285Y-43580819D02*
X182872381Y-42580819D01*
X183777142Y-43580819D02*
X183205714Y-43580819D01*
X183491428Y-43580819D02*
X183491428Y-42580819D01*
X183491428Y-42580819D02*
X183396190Y-42723676D01*
X183396190Y-42723676D02*
X183300952Y-42818914D01*
X183300952Y-42818914D02*
X183205714Y-42866533D01*
X184729523Y-43580819D02*
X184158095Y-43580819D01*
X184443809Y-43580819D02*
X184443809Y-42580819D01*
X184443809Y-42580819D02*
X184348571Y-42723676D01*
X184348571Y-42723676D02*
X184253333Y-42818914D01*
X184253333Y-42818914D02*
X184158095Y-42866533D01*
X237124819Y-51214285D02*
X236124819Y-51214285D01*
X236124819Y-51214285D02*
X236124819Y-50976190D01*
X236124819Y-50976190D02*
X236172438Y-50833333D01*
X236172438Y-50833333D02*
X236267676Y-50738095D01*
X236267676Y-50738095D02*
X236362914Y-50690476D01*
X236362914Y-50690476D02*
X236553390Y-50642857D01*
X236553390Y-50642857D02*
X236696247Y-50642857D01*
X236696247Y-50642857D02*
X236886723Y-50690476D01*
X236886723Y-50690476D02*
X236981961Y-50738095D01*
X236981961Y-50738095D02*
X237077200Y-50833333D01*
X237077200Y-50833333D02*
X237124819Y-50976190D01*
X237124819Y-50976190D02*
X237124819Y-51214285D01*
X236124819Y-50309523D02*
X236124819Y-49690476D01*
X236124819Y-49690476D02*
X236505771Y-50023809D01*
X236505771Y-50023809D02*
X236505771Y-49880952D01*
X236505771Y-49880952D02*
X236553390Y-49785714D01*
X236553390Y-49785714D02*
X236601009Y-49738095D01*
X236601009Y-49738095D02*
X236696247Y-49690476D01*
X236696247Y-49690476D02*
X236934342Y-49690476D01*
X236934342Y-49690476D02*
X237029580Y-49738095D01*
X237029580Y-49738095D02*
X237077200Y-49785714D01*
X237077200Y-49785714D02*
X237124819Y-49880952D01*
X237124819Y-49880952D02*
X237124819Y-50166666D01*
X237124819Y-50166666D02*
X237077200Y-50261904D01*
X237077200Y-50261904D02*
X237029580Y-50309523D01*
X236124819Y-48785714D02*
X236124819Y-49261904D01*
X236124819Y-49261904D02*
X236601009Y-49309523D01*
X236601009Y-49309523D02*
X236553390Y-49261904D01*
X236553390Y-49261904D02*
X236505771Y-49166666D01*
X236505771Y-49166666D02*
X236505771Y-48928571D01*
X236505771Y-48928571D02*
X236553390Y-48833333D01*
X236553390Y-48833333D02*
X236601009Y-48785714D01*
X236601009Y-48785714D02*
X236696247Y-48738095D01*
X236696247Y-48738095D02*
X236934342Y-48738095D01*
X236934342Y-48738095D02*
X237029580Y-48785714D01*
X237029580Y-48785714D02*
X237077200Y-48833333D01*
X237077200Y-48833333D02*
X237124819Y-48928571D01*
X237124819Y-48928571D02*
X237124819Y-49166666D01*
X237124819Y-49166666D02*
X237077200Y-49261904D01*
X237077200Y-49261904D02*
X237029580Y-49309523D01*
X278995833Y-93304819D02*
X278662500Y-92828628D01*
X278424405Y-93304819D02*
X278424405Y-92304819D01*
X278424405Y-92304819D02*
X278805357Y-92304819D01*
X278805357Y-92304819D02*
X278900595Y-92352438D01*
X278900595Y-92352438D02*
X278948214Y-92400057D01*
X278948214Y-92400057D02*
X278995833Y-92495295D01*
X278995833Y-92495295D02*
X278995833Y-92638152D01*
X278995833Y-92638152D02*
X278948214Y-92733390D01*
X278948214Y-92733390D02*
X278900595Y-92781009D01*
X278900595Y-92781009D02*
X278805357Y-92828628D01*
X278805357Y-92828628D02*
X278424405Y-92828628D01*
X279329167Y-92304819D02*
X279948214Y-92304819D01*
X279948214Y-92304819D02*
X279614881Y-92685771D01*
X279614881Y-92685771D02*
X279757738Y-92685771D01*
X279757738Y-92685771D02*
X279852976Y-92733390D01*
X279852976Y-92733390D02*
X279900595Y-92781009D01*
X279900595Y-92781009D02*
X279948214Y-92876247D01*
X279948214Y-92876247D02*
X279948214Y-93114342D01*
X279948214Y-93114342D02*
X279900595Y-93209580D01*
X279900595Y-93209580D02*
X279852976Y-93257200D01*
X279852976Y-93257200D02*
X279757738Y-93304819D01*
X279757738Y-93304819D02*
X279472024Y-93304819D01*
X279472024Y-93304819D02*
X279376786Y-93257200D01*
X279376786Y-93257200D02*
X279329167Y-93209580D01*
X151454819Y-75738094D02*
X150454819Y-75738094D01*
X150454819Y-75738094D02*
X150454819Y-75499999D01*
X150454819Y-75499999D02*
X150502438Y-75357142D01*
X150502438Y-75357142D02*
X150597676Y-75261904D01*
X150597676Y-75261904D02*
X150692914Y-75214285D01*
X150692914Y-75214285D02*
X150883390Y-75166666D01*
X150883390Y-75166666D02*
X151026247Y-75166666D01*
X151026247Y-75166666D02*
X151216723Y-75214285D01*
X151216723Y-75214285D02*
X151311961Y-75261904D01*
X151311961Y-75261904D02*
X151407200Y-75357142D01*
X151407200Y-75357142D02*
X151454819Y-75499999D01*
X151454819Y-75499999D02*
X151454819Y-75738094D01*
X150454819Y-74261904D02*
X150454819Y-74738094D01*
X150454819Y-74738094D02*
X150931009Y-74785713D01*
X150931009Y-74785713D02*
X150883390Y-74738094D01*
X150883390Y-74738094D02*
X150835771Y-74642856D01*
X150835771Y-74642856D02*
X150835771Y-74404761D01*
X150835771Y-74404761D02*
X150883390Y-74309523D01*
X150883390Y-74309523D02*
X150931009Y-74261904D01*
X150931009Y-74261904D02*
X151026247Y-74214285D01*
X151026247Y-74214285D02*
X151264342Y-74214285D01*
X151264342Y-74214285D02*
X151359580Y-74261904D01*
X151359580Y-74261904D02*
X151407200Y-74309523D01*
X151407200Y-74309523D02*
X151454819Y-74404761D01*
X151454819Y-74404761D02*
X151454819Y-74642856D01*
X151454819Y-74642856D02*
X151407200Y-74738094D01*
X151407200Y-74738094D02*
X151359580Y-74785713D01*
X224940476Y-106533200D02*
X225083333Y-106580819D01*
X225083333Y-106580819D02*
X225321428Y-106580819D01*
X225321428Y-106580819D02*
X225416666Y-106533200D01*
X225416666Y-106533200D02*
X225464285Y-106485580D01*
X225464285Y-106485580D02*
X225511904Y-106390342D01*
X225511904Y-106390342D02*
X225511904Y-106295104D01*
X225511904Y-106295104D02*
X225464285Y-106199866D01*
X225464285Y-106199866D02*
X225416666Y-106152247D01*
X225416666Y-106152247D02*
X225321428Y-106104628D01*
X225321428Y-106104628D02*
X225130952Y-106057009D01*
X225130952Y-106057009D02*
X225035714Y-106009390D01*
X225035714Y-106009390D02*
X224988095Y-105961771D01*
X224988095Y-105961771D02*
X224940476Y-105866533D01*
X224940476Y-105866533D02*
X224940476Y-105771295D01*
X224940476Y-105771295D02*
X224988095Y-105676057D01*
X224988095Y-105676057D02*
X225035714Y-105628438D01*
X225035714Y-105628438D02*
X225130952Y-105580819D01*
X225130952Y-105580819D02*
X225369047Y-105580819D01*
X225369047Y-105580819D02*
X225511904Y-105628438D01*
X225845238Y-105580819D02*
X226083333Y-106580819D01*
X226083333Y-106580819D02*
X226273809Y-105866533D01*
X226273809Y-105866533D02*
X226464285Y-106580819D01*
X226464285Y-106580819D02*
X226702381Y-105580819D01*
X226988095Y-105580819D02*
X227607142Y-105580819D01*
X227607142Y-105580819D02*
X227273809Y-105961771D01*
X227273809Y-105961771D02*
X227416666Y-105961771D01*
X227416666Y-105961771D02*
X227511904Y-106009390D01*
X227511904Y-106009390D02*
X227559523Y-106057009D01*
X227559523Y-106057009D02*
X227607142Y-106152247D01*
X227607142Y-106152247D02*
X227607142Y-106390342D01*
X227607142Y-106390342D02*
X227559523Y-106485580D01*
X227559523Y-106485580D02*
X227511904Y-106533200D01*
X227511904Y-106533200D02*
X227416666Y-106580819D01*
X227416666Y-106580819D02*
X227130952Y-106580819D01*
X227130952Y-106580819D02*
X227035714Y-106533200D01*
X227035714Y-106533200D02*
X226988095Y-106485580D01*
X227940476Y-105580819D02*
X228559523Y-105580819D01*
X228559523Y-105580819D02*
X228226190Y-105961771D01*
X228226190Y-105961771D02*
X228369047Y-105961771D01*
X228369047Y-105961771D02*
X228464285Y-106009390D01*
X228464285Y-106009390D02*
X228511904Y-106057009D01*
X228511904Y-106057009D02*
X228559523Y-106152247D01*
X228559523Y-106152247D02*
X228559523Y-106390342D01*
X228559523Y-106390342D02*
X228511904Y-106485580D01*
X228511904Y-106485580D02*
X228464285Y-106533200D01*
X228464285Y-106533200D02*
X228369047Y-106580819D01*
X228369047Y-106580819D02*
X228083333Y-106580819D01*
X228083333Y-106580819D02*
X227988095Y-106533200D01*
X227988095Y-106533200D02*
X227940476Y-106485580D01*
X237124819Y-72214285D02*
X236124819Y-72214285D01*
X236124819Y-72214285D02*
X236124819Y-71976190D01*
X236124819Y-71976190D02*
X236172438Y-71833333D01*
X236172438Y-71833333D02*
X236267676Y-71738095D01*
X236267676Y-71738095D02*
X236362914Y-71690476D01*
X236362914Y-71690476D02*
X236553390Y-71642857D01*
X236553390Y-71642857D02*
X236696247Y-71642857D01*
X236696247Y-71642857D02*
X236886723Y-71690476D01*
X236886723Y-71690476D02*
X236981961Y-71738095D01*
X236981961Y-71738095D02*
X237077200Y-71833333D01*
X237077200Y-71833333D02*
X237124819Y-71976190D01*
X237124819Y-71976190D02*
X237124819Y-72214285D01*
X236124819Y-71309523D02*
X236124819Y-70690476D01*
X236124819Y-70690476D02*
X236505771Y-71023809D01*
X236505771Y-71023809D02*
X236505771Y-70880952D01*
X236505771Y-70880952D02*
X236553390Y-70785714D01*
X236553390Y-70785714D02*
X236601009Y-70738095D01*
X236601009Y-70738095D02*
X236696247Y-70690476D01*
X236696247Y-70690476D02*
X236934342Y-70690476D01*
X236934342Y-70690476D02*
X237029580Y-70738095D01*
X237029580Y-70738095D02*
X237077200Y-70785714D01*
X237077200Y-70785714D02*
X237124819Y-70880952D01*
X237124819Y-70880952D02*
X237124819Y-71166666D01*
X237124819Y-71166666D02*
X237077200Y-71261904D01*
X237077200Y-71261904D02*
X237029580Y-71309523D01*
X236124819Y-70357142D02*
X236124819Y-69690476D01*
X236124819Y-69690476D02*
X237124819Y-70119047D01*
X125454819Y-72214285D02*
X124454819Y-72214285D01*
X124454819Y-72214285D02*
X124454819Y-71976190D01*
X124454819Y-71976190D02*
X124502438Y-71833333D01*
X124502438Y-71833333D02*
X124597676Y-71738095D01*
X124597676Y-71738095D02*
X124692914Y-71690476D01*
X124692914Y-71690476D02*
X124883390Y-71642857D01*
X124883390Y-71642857D02*
X125026247Y-71642857D01*
X125026247Y-71642857D02*
X125216723Y-71690476D01*
X125216723Y-71690476D02*
X125311961Y-71738095D01*
X125311961Y-71738095D02*
X125407200Y-71833333D01*
X125407200Y-71833333D02*
X125454819Y-71976190D01*
X125454819Y-71976190D02*
X125454819Y-72214285D01*
X124454819Y-71309523D02*
X124454819Y-70690476D01*
X124454819Y-70690476D02*
X124835771Y-71023809D01*
X124835771Y-71023809D02*
X124835771Y-70880952D01*
X124835771Y-70880952D02*
X124883390Y-70785714D01*
X124883390Y-70785714D02*
X124931009Y-70738095D01*
X124931009Y-70738095D02*
X125026247Y-70690476D01*
X125026247Y-70690476D02*
X125264342Y-70690476D01*
X125264342Y-70690476D02*
X125359580Y-70738095D01*
X125359580Y-70738095D02*
X125407200Y-70785714D01*
X125407200Y-70785714D02*
X125454819Y-70880952D01*
X125454819Y-70880952D02*
X125454819Y-71166666D01*
X125454819Y-71166666D02*
X125407200Y-71261904D01*
X125407200Y-71261904D02*
X125359580Y-71309523D01*
X124454819Y-69833333D02*
X124454819Y-70023809D01*
X124454819Y-70023809D02*
X124502438Y-70119047D01*
X124502438Y-70119047D02*
X124550057Y-70166666D01*
X124550057Y-70166666D02*
X124692914Y-70261904D01*
X124692914Y-70261904D02*
X124883390Y-70309523D01*
X124883390Y-70309523D02*
X125264342Y-70309523D01*
X125264342Y-70309523D02*
X125359580Y-70261904D01*
X125359580Y-70261904D02*
X125407200Y-70214285D01*
X125407200Y-70214285D02*
X125454819Y-70119047D01*
X125454819Y-70119047D02*
X125454819Y-69928571D01*
X125454819Y-69928571D02*
X125407200Y-69833333D01*
X125407200Y-69833333D02*
X125359580Y-69785714D01*
X125359580Y-69785714D02*
X125264342Y-69738095D01*
X125264342Y-69738095D02*
X125026247Y-69738095D01*
X125026247Y-69738095D02*
X124931009Y-69785714D01*
X124931009Y-69785714D02*
X124883390Y-69833333D01*
X124883390Y-69833333D02*
X124835771Y-69928571D01*
X124835771Y-69928571D02*
X124835771Y-70119047D01*
X124835771Y-70119047D02*
X124883390Y-70214285D01*
X124883390Y-70214285D02*
X124931009Y-70261904D01*
X124931009Y-70261904D02*
X125026247Y-70309523D01*
X102614819Y-93214285D02*
X101614819Y-93214285D01*
X101614819Y-93214285D02*
X101614819Y-92976190D01*
X101614819Y-92976190D02*
X101662438Y-92833333D01*
X101662438Y-92833333D02*
X101757676Y-92738095D01*
X101757676Y-92738095D02*
X101852914Y-92690476D01*
X101852914Y-92690476D02*
X102043390Y-92642857D01*
X102043390Y-92642857D02*
X102186247Y-92642857D01*
X102186247Y-92642857D02*
X102376723Y-92690476D01*
X102376723Y-92690476D02*
X102471961Y-92738095D01*
X102471961Y-92738095D02*
X102567200Y-92833333D01*
X102567200Y-92833333D02*
X102614819Y-92976190D01*
X102614819Y-92976190D02*
X102614819Y-93214285D01*
X101614819Y-92309523D02*
X101614819Y-91690476D01*
X101614819Y-91690476D02*
X101995771Y-92023809D01*
X101995771Y-92023809D02*
X101995771Y-91880952D01*
X101995771Y-91880952D02*
X102043390Y-91785714D01*
X102043390Y-91785714D02*
X102091009Y-91738095D01*
X102091009Y-91738095D02*
X102186247Y-91690476D01*
X102186247Y-91690476D02*
X102424342Y-91690476D01*
X102424342Y-91690476D02*
X102519580Y-91738095D01*
X102519580Y-91738095D02*
X102567200Y-91785714D01*
X102567200Y-91785714D02*
X102614819Y-91880952D01*
X102614819Y-91880952D02*
X102614819Y-92166666D01*
X102614819Y-92166666D02*
X102567200Y-92261904D01*
X102567200Y-92261904D02*
X102519580Y-92309523D01*
X101614819Y-91071428D02*
X101614819Y-90976190D01*
X101614819Y-90976190D02*
X101662438Y-90880952D01*
X101662438Y-90880952D02*
X101710057Y-90833333D01*
X101710057Y-90833333D02*
X101805295Y-90785714D01*
X101805295Y-90785714D02*
X101995771Y-90738095D01*
X101995771Y-90738095D02*
X102233866Y-90738095D01*
X102233866Y-90738095D02*
X102424342Y-90785714D01*
X102424342Y-90785714D02*
X102519580Y-90833333D01*
X102519580Y-90833333D02*
X102567200Y-90880952D01*
X102567200Y-90880952D02*
X102614819Y-90976190D01*
X102614819Y-90976190D02*
X102614819Y-91071428D01*
X102614819Y-91071428D02*
X102567200Y-91166666D01*
X102567200Y-91166666D02*
X102519580Y-91214285D01*
X102519580Y-91214285D02*
X102424342Y-91261904D01*
X102424342Y-91261904D02*
X102233866Y-91309523D01*
X102233866Y-91309523D02*
X101995771Y-91309523D01*
X101995771Y-91309523D02*
X101805295Y-91261904D01*
X101805295Y-91261904D02*
X101710057Y-91214285D01*
X101710057Y-91214285D02*
X101662438Y-91166666D01*
X101662438Y-91166666D02*
X101614819Y-91071428D01*
X203780476Y-81533200D02*
X203923333Y-81580819D01*
X203923333Y-81580819D02*
X204161428Y-81580819D01*
X204161428Y-81580819D02*
X204256666Y-81533200D01*
X204256666Y-81533200D02*
X204304285Y-81485580D01*
X204304285Y-81485580D02*
X204351904Y-81390342D01*
X204351904Y-81390342D02*
X204351904Y-81295104D01*
X204351904Y-81295104D02*
X204304285Y-81199866D01*
X204304285Y-81199866D02*
X204256666Y-81152247D01*
X204256666Y-81152247D02*
X204161428Y-81104628D01*
X204161428Y-81104628D02*
X203970952Y-81057009D01*
X203970952Y-81057009D02*
X203875714Y-81009390D01*
X203875714Y-81009390D02*
X203828095Y-80961771D01*
X203828095Y-80961771D02*
X203780476Y-80866533D01*
X203780476Y-80866533D02*
X203780476Y-80771295D01*
X203780476Y-80771295D02*
X203828095Y-80676057D01*
X203828095Y-80676057D02*
X203875714Y-80628438D01*
X203875714Y-80628438D02*
X203970952Y-80580819D01*
X203970952Y-80580819D02*
X204209047Y-80580819D01*
X204209047Y-80580819D02*
X204351904Y-80628438D01*
X204685238Y-80580819D02*
X204923333Y-81580819D01*
X204923333Y-81580819D02*
X205113809Y-80866533D01*
X205113809Y-80866533D02*
X205304285Y-81580819D01*
X205304285Y-81580819D02*
X205542381Y-80580819D01*
X205875714Y-80676057D02*
X205923333Y-80628438D01*
X205923333Y-80628438D02*
X206018571Y-80580819D01*
X206018571Y-80580819D02*
X206256666Y-80580819D01*
X206256666Y-80580819D02*
X206351904Y-80628438D01*
X206351904Y-80628438D02*
X206399523Y-80676057D01*
X206399523Y-80676057D02*
X206447142Y-80771295D01*
X206447142Y-80771295D02*
X206447142Y-80866533D01*
X206447142Y-80866533D02*
X206399523Y-81009390D01*
X206399523Y-81009390D02*
X205828095Y-81580819D01*
X205828095Y-81580819D02*
X206447142Y-81580819D01*
X206780476Y-80580819D02*
X207399523Y-80580819D01*
X207399523Y-80580819D02*
X207066190Y-80961771D01*
X207066190Y-80961771D02*
X207209047Y-80961771D01*
X207209047Y-80961771D02*
X207304285Y-81009390D01*
X207304285Y-81009390D02*
X207351904Y-81057009D01*
X207351904Y-81057009D02*
X207399523Y-81152247D01*
X207399523Y-81152247D02*
X207399523Y-81390342D01*
X207399523Y-81390342D02*
X207351904Y-81485580D01*
X207351904Y-81485580D02*
X207304285Y-81533200D01*
X207304285Y-81533200D02*
X207209047Y-81580819D01*
X207209047Y-81580819D02*
X206923333Y-81580819D01*
X206923333Y-81580819D02*
X206828095Y-81533200D01*
X206828095Y-81533200D02*
X206780476Y-81485580D01*
X160666667Y-68533200D02*
X160809524Y-68580819D01*
X160809524Y-68580819D02*
X161047619Y-68580819D01*
X161047619Y-68580819D02*
X161142857Y-68533200D01*
X161142857Y-68533200D02*
X161190476Y-68485580D01*
X161190476Y-68485580D02*
X161238095Y-68390342D01*
X161238095Y-68390342D02*
X161238095Y-68295104D01*
X161238095Y-68295104D02*
X161190476Y-68199866D01*
X161190476Y-68199866D02*
X161142857Y-68152247D01*
X161142857Y-68152247D02*
X161047619Y-68104628D01*
X161047619Y-68104628D02*
X160857143Y-68057009D01*
X160857143Y-68057009D02*
X160761905Y-68009390D01*
X160761905Y-68009390D02*
X160714286Y-67961771D01*
X160714286Y-67961771D02*
X160666667Y-67866533D01*
X160666667Y-67866533D02*
X160666667Y-67771295D01*
X160666667Y-67771295D02*
X160714286Y-67676057D01*
X160714286Y-67676057D02*
X160761905Y-67628438D01*
X160761905Y-67628438D02*
X160857143Y-67580819D01*
X160857143Y-67580819D02*
X161095238Y-67580819D01*
X161095238Y-67580819D02*
X161238095Y-67628438D01*
X161571429Y-67580819D02*
X161809524Y-68580819D01*
X161809524Y-68580819D02*
X162000000Y-67866533D01*
X162000000Y-67866533D02*
X162190476Y-68580819D01*
X162190476Y-68580819D02*
X162428572Y-67580819D01*
X163285714Y-67580819D02*
X162809524Y-67580819D01*
X162809524Y-67580819D02*
X162761905Y-68057009D01*
X162761905Y-68057009D02*
X162809524Y-68009390D01*
X162809524Y-68009390D02*
X162904762Y-67961771D01*
X162904762Y-67961771D02*
X163142857Y-67961771D01*
X163142857Y-67961771D02*
X163238095Y-68009390D01*
X163238095Y-68009390D02*
X163285714Y-68057009D01*
X163285714Y-68057009D02*
X163333333Y-68152247D01*
X163333333Y-68152247D02*
X163333333Y-68390342D01*
X163333333Y-68390342D02*
X163285714Y-68485580D01*
X163285714Y-68485580D02*
X163238095Y-68533200D01*
X163238095Y-68533200D02*
X163142857Y-68580819D01*
X163142857Y-68580819D02*
X162904762Y-68580819D01*
X162904762Y-68580819D02*
X162809524Y-68533200D01*
X162809524Y-68533200D02*
X162761905Y-68485580D01*
X160666667Y-47533200D02*
X160809524Y-47580819D01*
X160809524Y-47580819D02*
X161047619Y-47580819D01*
X161047619Y-47580819D02*
X161142857Y-47533200D01*
X161142857Y-47533200D02*
X161190476Y-47485580D01*
X161190476Y-47485580D02*
X161238095Y-47390342D01*
X161238095Y-47390342D02*
X161238095Y-47295104D01*
X161238095Y-47295104D02*
X161190476Y-47199866D01*
X161190476Y-47199866D02*
X161142857Y-47152247D01*
X161142857Y-47152247D02*
X161047619Y-47104628D01*
X161047619Y-47104628D02*
X160857143Y-47057009D01*
X160857143Y-47057009D02*
X160761905Y-47009390D01*
X160761905Y-47009390D02*
X160714286Y-46961771D01*
X160714286Y-46961771D02*
X160666667Y-46866533D01*
X160666667Y-46866533D02*
X160666667Y-46771295D01*
X160666667Y-46771295D02*
X160714286Y-46676057D01*
X160714286Y-46676057D02*
X160761905Y-46628438D01*
X160761905Y-46628438D02*
X160857143Y-46580819D01*
X160857143Y-46580819D02*
X161095238Y-46580819D01*
X161095238Y-46580819D02*
X161238095Y-46628438D01*
X161571429Y-46580819D02*
X161809524Y-47580819D01*
X161809524Y-47580819D02*
X162000000Y-46866533D01*
X162000000Y-46866533D02*
X162190476Y-47580819D01*
X162190476Y-47580819D02*
X162428572Y-46580819D01*
X162714286Y-46580819D02*
X163333333Y-46580819D01*
X163333333Y-46580819D02*
X163000000Y-46961771D01*
X163000000Y-46961771D02*
X163142857Y-46961771D01*
X163142857Y-46961771D02*
X163238095Y-47009390D01*
X163238095Y-47009390D02*
X163285714Y-47057009D01*
X163285714Y-47057009D02*
X163333333Y-47152247D01*
X163333333Y-47152247D02*
X163333333Y-47390342D01*
X163333333Y-47390342D02*
X163285714Y-47485580D01*
X163285714Y-47485580D02*
X163238095Y-47533200D01*
X163238095Y-47533200D02*
X163142857Y-47580819D01*
X163142857Y-47580819D02*
X162857143Y-47580819D01*
X162857143Y-47580819D02*
X162761905Y-47533200D01*
X162761905Y-47533200D02*
X162714286Y-47485580D01*
X193214819Y-89214285D02*
X192214819Y-89214285D01*
X192214819Y-89214285D02*
X192214819Y-88976190D01*
X192214819Y-88976190D02*
X192262438Y-88833333D01*
X192262438Y-88833333D02*
X192357676Y-88738095D01*
X192357676Y-88738095D02*
X192452914Y-88690476D01*
X192452914Y-88690476D02*
X192643390Y-88642857D01*
X192643390Y-88642857D02*
X192786247Y-88642857D01*
X192786247Y-88642857D02*
X192976723Y-88690476D01*
X192976723Y-88690476D02*
X193071961Y-88738095D01*
X193071961Y-88738095D02*
X193167200Y-88833333D01*
X193167200Y-88833333D02*
X193214819Y-88976190D01*
X193214819Y-88976190D02*
X193214819Y-89214285D01*
X192310057Y-88261904D02*
X192262438Y-88214285D01*
X192262438Y-88214285D02*
X192214819Y-88119047D01*
X192214819Y-88119047D02*
X192214819Y-87880952D01*
X192214819Y-87880952D02*
X192262438Y-87785714D01*
X192262438Y-87785714D02*
X192310057Y-87738095D01*
X192310057Y-87738095D02*
X192405295Y-87690476D01*
X192405295Y-87690476D02*
X192500533Y-87690476D01*
X192500533Y-87690476D02*
X192643390Y-87738095D01*
X192643390Y-87738095D02*
X193214819Y-88309523D01*
X193214819Y-88309523D02*
X193214819Y-87690476D01*
X192214819Y-87357142D02*
X192214819Y-86738095D01*
X192214819Y-86738095D02*
X192595771Y-87071428D01*
X192595771Y-87071428D02*
X192595771Y-86928571D01*
X192595771Y-86928571D02*
X192643390Y-86833333D01*
X192643390Y-86833333D02*
X192691009Y-86785714D01*
X192691009Y-86785714D02*
X192786247Y-86738095D01*
X192786247Y-86738095D02*
X193024342Y-86738095D01*
X193024342Y-86738095D02*
X193119580Y-86785714D01*
X193119580Y-86785714D02*
X193167200Y-86833333D01*
X193167200Y-86833333D02*
X193214819Y-86928571D01*
X193214819Y-86928571D02*
X193214819Y-87214285D01*
X193214819Y-87214285D02*
X193167200Y-87309523D01*
X193167200Y-87309523D02*
X193119580Y-87357142D01*
X216124819Y-93214285D02*
X215124819Y-93214285D01*
X215124819Y-93214285D02*
X215124819Y-92976190D01*
X215124819Y-92976190D02*
X215172438Y-92833333D01*
X215172438Y-92833333D02*
X215267676Y-92738095D01*
X215267676Y-92738095D02*
X215362914Y-92690476D01*
X215362914Y-92690476D02*
X215553390Y-92642857D01*
X215553390Y-92642857D02*
X215696247Y-92642857D01*
X215696247Y-92642857D02*
X215886723Y-92690476D01*
X215886723Y-92690476D02*
X215981961Y-92738095D01*
X215981961Y-92738095D02*
X216077200Y-92833333D01*
X216077200Y-92833333D02*
X216124819Y-92976190D01*
X216124819Y-92976190D02*
X216124819Y-93214285D01*
X215124819Y-92309523D02*
X215124819Y-91690476D01*
X215124819Y-91690476D02*
X215505771Y-92023809D01*
X215505771Y-92023809D02*
X215505771Y-91880952D01*
X215505771Y-91880952D02*
X215553390Y-91785714D01*
X215553390Y-91785714D02*
X215601009Y-91738095D01*
X215601009Y-91738095D02*
X215696247Y-91690476D01*
X215696247Y-91690476D02*
X215934342Y-91690476D01*
X215934342Y-91690476D02*
X216029580Y-91738095D01*
X216029580Y-91738095D02*
X216077200Y-91785714D01*
X216077200Y-91785714D02*
X216124819Y-91880952D01*
X216124819Y-91880952D02*
X216124819Y-92166666D01*
X216124819Y-92166666D02*
X216077200Y-92261904D01*
X216077200Y-92261904D02*
X216029580Y-92309523D01*
X216124819Y-90738095D02*
X216124819Y-91309523D01*
X216124819Y-91023809D02*
X215124819Y-91023809D01*
X215124819Y-91023809D02*
X215267676Y-91119047D01*
X215267676Y-91119047D02*
X215362914Y-91214285D01*
X215362914Y-91214285D02*
X215410533Y-91309523D01*
X90020476Y-39533200D02*
X90163333Y-39580819D01*
X90163333Y-39580819D02*
X90401428Y-39580819D01*
X90401428Y-39580819D02*
X90496666Y-39533200D01*
X90496666Y-39533200D02*
X90544285Y-39485580D01*
X90544285Y-39485580D02*
X90591904Y-39390342D01*
X90591904Y-39390342D02*
X90591904Y-39295104D01*
X90591904Y-39295104D02*
X90544285Y-39199866D01*
X90544285Y-39199866D02*
X90496666Y-39152247D01*
X90496666Y-39152247D02*
X90401428Y-39104628D01*
X90401428Y-39104628D02*
X90210952Y-39057009D01*
X90210952Y-39057009D02*
X90115714Y-39009390D01*
X90115714Y-39009390D02*
X90068095Y-38961771D01*
X90068095Y-38961771D02*
X90020476Y-38866533D01*
X90020476Y-38866533D02*
X90020476Y-38771295D01*
X90020476Y-38771295D02*
X90068095Y-38676057D01*
X90068095Y-38676057D02*
X90115714Y-38628438D01*
X90115714Y-38628438D02*
X90210952Y-38580819D01*
X90210952Y-38580819D02*
X90449047Y-38580819D01*
X90449047Y-38580819D02*
X90591904Y-38628438D01*
X90925238Y-38580819D02*
X91163333Y-39580819D01*
X91163333Y-39580819D02*
X91353809Y-38866533D01*
X91353809Y-38866533D02*
X91544285Y-39580819D01*
X91544285Y-39580819D02*
X91782381Y-38580819D01*
X92687142Y-39580819D02*
X92115714Y-39580819D01*
X92401428Y-39580819D02*
X92401428Y-38580819D01*
X92401428Y-38580819D02*
X92306190Y-38723676D01*
X92306190Y-38723676D02*
X92210952Y-38818914D01*
X92210952Y-38818914D02*
X92115714Y-38866533D01*
X93258571Y-39009390D02*
X93163333Y-38961771D01*
X93163333Y-38961771D02*
X93115714Y-38914152D01*
X93115714Y-38914152D02*
X93068095Y-38818914D01*
X93068095Y-38818914D02*
X93068095Y-38771295D01*
X93068095Y-38771295D02*
X93115714Y-38676057D01*
X93115714Y-38676057D02*
X93163333Y-38628438D01*
X93163333Y-38628438D02*
X93258571Y-38580819D01*
X93258571Y-38580819D02*
X93449047Y-38580819D01*
X93449047Y-38580819D02*
X93544285Y-38628438D01*
X93544285Y-38628438D02*
X93591904Y-38676057D01*
X93591904Y-38676057D02*
X93639523Y-38771295D01*
X93639523Y-38771295D02*
X93639523Y-38818914D01*
X93639523Y-38818914D02*
X93591904Y-38914152D01*
X93591904Y-38914152D02*
X93544285Y-38961771D01*
X93544285Y-38961771D02*
X93449047Y-39009390D01*
X93449047Y-39009390D02*
X93258571Y-39009390D01*
X93258571Y-39009390D02*
X93163333Y-39057009D01*
X93163333Y-39057009D02*
X93115714Y-39104628D01*
X93115714Y-39104628D02*
X93068095Y-39199866D01*
X93068095Y-39199866D02*
X93068095Y-39390342D01*
X93068095Y-39390342D02*
X93115714Y-39485580D01*
X93115714Y-39485580D02*
X93163333Y-39533200D01*
X93163333Y-39533200D02*
X93258571Y-39580819D01*
X93258571Y-39580819D02*
X93449047Y-39580819D01*
X93449047Y-39580819D02*
X93544285Y-39533200D01*
X93544285Y-39533200D02*
X93591904Y-39485580D01*
X93591904Y-39485580D02*
X93639523Y-39390342D01*
X93639523Y-39390342D02*
X93639523Y-39199866D01*
X93639523Y-39199866D02*
X93591904Y-39104628D01*
X93591904Y-39104628D02*
X93544285Y-39057009D01*
X93544285Y-39057009D02*
X93449047Y-39009390D01*
X267416667Y-123533200D02*
X267559524Y-123580819D01*
X267559524Y-123580819D02*
X267797619Y-123580819D01*
X267797619Y-123580819D02*
X267892857Y-123533200D01*
X267892857Y-123533200D02*
X267940476Y-123485580D01*
X267940476Y-123485580D02*
X267988095Y-123390342D01*
X267988095Y-123390342D02*
X267988095Y-123295104D01*
X267988095Y-123295104D02*
X267940476Y-123199866D01*
X267940476Y-123199866D02*
X267892857Y-123152247D01*
X267892857Y-123152247D02*
X267797619Y-123104628D01*
X267797619Y-123104628D02*
X267607143Y-123057009D01*
X267607143Y-123057009D02*
X267511905Y-123009390D01*
X267511905Y-123009390D02*
X267464286Y-122961771D01*
X267464286Y-122961771D02*
X267416667Y-122866533D01*
X267416667Y-122866533D02*
X267416667Y-122771295D01*
X267416667Y-122771295D02*
X267464286Y-122676057D01*
X267464286Y-122676057D02*
X267511905Y-122628438D01*
X267511905Y-122628438D02*
X267607143Y-122580819D01*
X267607143Y-122580819D02*
X267845238Y-122580819D01*
X267845238Y-122580819D02*
X267988095Y-122628438D01*
X268321429Y-122580819D02*
X268559524Y-123580819D01*
X268559524Y-123580819D02*
X268750000Y-122866533D01*
X268750000Y-122866533D02*
X268940476Y-123580819D01*
X268940476Y-123580819D02*
X269178572Y-122580819D01*
X270083333Y-123580819D02*
X269511905Y-123580819D01*
X269797619Y-123580819D02*
X269797619Y-122580819D01*
X269797619Y-122580819D02*
X269702381Y-122723676D01*
X269702381Y-122723676D02*
X269607143Y-122818914D01*
X269607143Y-122818914D02*
X269511905Y-122866533D01*
X216124819Y-72214285D02*
X215124819Y-72214285D01*
X215124819Y-72214285D02*
X215124819Y-71976190D01*
X215124819Y-71976190D02*
X215172438Y-71833333D01*
X215172438Y-71833333D02*
X215267676Y-71738095D01*
X215267676Y-71738095D02*
X215362914Y-71690476D01*
X215362914Y-71690476D02*
X215553390Y-71642857D01*
X215553390Y-71642857D02*
X215696247Y-71642857D01*
X215696247Y-71642857D02*
X215886723Y-71690476D01*
X215886723Y-71690476D02*
X215981961Y-71738095D01*
X215981961Y-71738095D02*
X216077200Y-71833333D01*
X216077200Y-71833333D02*
X216124819Y-71976190D01*
X216124819Y-71976190D02*
X216124819Y-72214285D01*
X215220057Y-71261904D02*
X215172438Y-71214285D01*
X215172438Y-71214285D02*
X215124819Y-71119047D01*
X215124819Y-71119047D02*
X215124819Y-70880952D01*
X215124819Y-70880952D02*
X215172438Y-70785714D01*
X215172438Y-70785714D02*
X215220057Y-70738095D01*
X215220057Y-70738095D02*
X215315295Y-70690476D01*
X215315295Y-70690476D02*
X215410533Y-70690476D01*
X215410533Y-70690476D02*
X215553390Y-70738095D01*
X215553390Y-70738095D02*
X216124819Y-71309523D01*
X216124819Y-71309523D02*
X216124819Y-70690476D01*
X216124819Y-70214285D02*
X216124819Y-70023809D01*
X216124819Y-70023809D02*
X216077200Y-69928571D01*
X216077200Y-69928571D02*
X216029580Y-69880952D01*
X216029580Y-69880952D02*
X215886723Y-69785714D01*
X215886723Y-69785714D02*
X215696247Y-69738095D01*
X215696247Y-69738095D02*
X215315295Y-69738095D01*
X215315295Y-69738095D02*
X215220057Y-69785714D01*
X215220057Y-69785714D02*
X215172438Y-69833333D01*
X215172438Y-69833333D02*
X215124819Y-69928571D01*
X215124819Y-69928571D02*
X215124819Y-70119047D01*
X215124819Y-70119047D02*
X215172438Y-70214285D01*
X215172438Y-70214285D02*
X215220057Y-70261904D01*
X215220057Y-70261904D02*
X215315295Y-70309523D01*
X215315295Y-70309523D02*
X215553390Y-70309523D01*
X215553390Y-70309523D02*
X215648628Y-70261904D01*
X215648628Y-70261904D02*
X215696247Y-70214285D01*
X215696247Y-70214285D02*
X215743866Y-70119047D01*
X215743866Y-70119047D02*
X215743866Y-69928571D01*
X215743866Y-69928571D02*
X215696247Y-69833333D01*
X215696247Y-69833333D02*
X215648628Y-69785714D01*
X215648628Y-69785714D02*
X215553390Y-69738095D01*
X134110476Y-47533200D02*
X134253333Y-47580819D01*
X134253333Y-47580819D02*
X134491428Y-47580819D01*
X134491428Y-47580819D02*
X134586666Y-47533200D01*
X134586666Y-47533200D02*
X134634285Y-47485580D01*
X134634285Y-47485580D02*
X134681904Y-47390342D01*
X134681904Y-47390342D02*
X134681904Y-47295104D01*
X134681904Y-47295104D02*
X134634285Y-47199866D01*
X134634285Y-47199866D02*
X134586666Y-47152247D01*
X134586666Y-47152247D02*
X134491428Y-47104628D01*
X134491428Y-47104628D02*
X134300952Y-47057009D01*
X134300952Y-47057009D02*
X134205714Y-47009390D01*
X134205714Y-47009390D02*
X134158095Y-46961771D01*
X134158095Y-46961771D02*
X134110476Y-46866533D01*
X134110476Y-46866533D02*
X134110476Y-46771295D01*
X134110476Y-46771295D02*
X134158095Y-46676057D01*
X134158095Y-46676057D02*
X134205714Y-46628438D01*
X134205714Y-46628438D02*
X134300952Y-46580819D01*
X134300952Y-46580819D02*
X134539047Y-46580819D01*
X134539047Y-46580819D02*
X134681904Y-46628438D01*
X135015238Y-46580819D02*
X135253333Y-47580819D01*
X135253333Y-47580819D02*
X135443809Y-46866533D01*
X135443809Y-46866533D02*
X135634285Y-47580819D01*
X135634285Y-47580819D02*
X135872381Y-46580819D01*
X136158095Y-46580819D02*
X136777142Y-46580819D01*
X136777142Y-46580819D02*
X136443809Y-46961771D01*
X136443809Y-46961771D02*
X136586666Y-46961771D01*
X136586666Y-46961771D02*
X136681904Y-47009390D01*
X136681904Y-47009390D02*
X136729523Y-47057009D01*
X136729523Y-47057009D02*
X136777142Y-47152247D01*
X136777142Y-47152247D02*
X136777142Y-47390342D01*
X136777142Y-47390342D02*
X136729523Y-47485580D01*
X136729523Y-47485580D02*
X136681904Y-47533200D01*
X136681904Y-47533200D02*
X136586666Y-47580819D01*
X136586666Y-47580819D02*
X136300952Y-47580819D01*
X136300952Y-47580819D02*
X136205714Y-47533200D01*
X136205714Y-47533200D02*
X136158095Y-47485580D01*
X137634285Y-46914152D02*
X137634285Y-47580819D01*
X137396190Y-46533200D02*
X137158095Y-47247485D01*
X137158095Y-47247485D02*
X137777142Y-47247485D01*
X48496667Y-47533200D02*
X48639524Y-47580819D01*
X48639524Y-47580819D02*
X48877619Y-47580819D01*
X48877619Y-47580819D02*
X48972857Y-47533200D01*
X48972857Y-47533200D02*
X49020476Y-47485580D01*
X49020476Y-47485580D02*
X49068095Y-47390342D01*
X49068095Y-47390342D02*
X49068095Y-47295104D01*
X49068095Y-47295104D02*
X49020476Y-47199866D01*
X49020476Y-47199866D02*
X48972857Y-47152247D01*
X48972857Y-47152247D02*
X48877619Y-47104628D01*
X48877619Y-47104628D02*
X48687143Y-47057009D01*
X48687143Y-47057009D02*
X48591905Y-47009390D01*
X48591905Y-47009390D02*
X48544286Y-46961771D01*
X48544286Y-46961771D02*
X48496667Y-46866533D01*
X48496667Y-46866533D02*
X48496667Y-46771295D01*
X48496667Y-46771295D02*
X48544286Y-46676057D01*
X48544286Y-46676057D02*
X48591905Y-46628438D01*
X48591905Y-46628438D02*
X48687143Y-46580819D01*
X48687143Y-46580819D02*
X48925238Y-46580819D01*
X48925238Y-46580819D02*
X49068095Y-46628438D01*
X49401429Y-46580819D02*
X49639524Y-47580819D01*
X49639524Y-47580819D02*
X49830000Y-46866533D01*
X49830000Y-46866533D02*
X50020476Y-47580819D01*
X50020476Y-47580819D02*
X50258572Y-46580819D01*
X50591905Y-46676057D02*
X50639524Y-46628438D01*
X50639524Y-46628438D02*
X50734762Y-46580819D01*
X50734762Y-46580819D02*
X50972857Y-46580819D01*
X50972857Y-46580819D02*
X51068095Y-46628438D01*
X51068095Y-46628438D02*
X51115714Y-46676057D01*
X51115714Y-46676057D02*
X51163333Y-46771295D01*
X51163333Y-46771295D02*
X51163333Y-46866533D01*
X51163333Y-46866533D02*
X51115714Y-47009390D01*
X51115714Y-47009390D02*
X50544286Y-47580819D01*
X50544286Y-47580819D02*
X51163333Y-47580819D01*
X245940476Y-110533200D02*
X246083333Y-110580819D01*
X246083333Y-110580819D02*
X246321428Y-110580819D01*
X246321428Y-110580819D02*
X246416666Y-110533200D01*
X246416666Y-110533200D02*
X246464285Y-110485580D01*
X246464285Y-110485580D02*
X246511904Y-110390342D01*
X246511904Y-110390342D02*
X246511904Y-110295104D01*
X246511904Y-110295104D02*
X246464285Y-110199866D01*
X246464285Y-110199866D02*
X246416666Y-110152247D01*
X246416666Y-110152247D02*
X246321428Y-110104628D01*
X246321428Y-110104628D02*
X246130952Y-110057009D01*
X246130952Y-110057009D02*
X246035714Y-110009390D01*
X246035714Y-110009390D02*
X245988095Y-109961771D01*
X245988095Y-109961771D02*
X245940476Y-109866533D01*
X245940476Y-109866533D02*
X245940476Y-109771295D01*
X245940476Y-109771295D02*
X245988095Y-109676057D01*
X245988095Y-109676057D02*
X246035714Y-109628438D01*
X246035714Y-109628438D02*
X246130952Y-109580819D01*
X246130952Y-109580819D02*
X246369047Y-109580819D01*
X246369047Y-109580819D02*
X246511904Y-109628438D01*
X246845238Y-109580819D02*
X247083333Y-110580819D01*
X247083333Y-110580819D02*
X247273809Y-109866533D01*
X247273809Y-109866533D02*
X247464285Y-110580819D01*
X247464285Y-110580819D02*
X247702381Y-109580819D01*
X248511904Y-109914152D02*
X248511904Y-110580819D01*
X248273809Y-109533200D02*
X248035714Y-110247485D01*
X248035714Y-110247485D02*
X248654761Y-110247485D01*
X249559523Y-110580819D02*
X248988095Y-110580819D01*
X249273809Y-110580819D02*
X249273809Y-109580819D01*
X249273809Y-109580819D02*
X249178571Y-109723676D01*
X249178571Y-109723676D02*
X249083333Y-109818914D01*
X249083333Y-109818914D02*
X248988095Y-109866533D01*
X102614819Y-72214285D02*
X101614819Y-72214285D01*
X101614819Y-72214285D02*
X101614819Y-71976190D01*
X101614819Y-71976190D02*
X101662438Y-71833333D01*
X101662438Y-71833333D02*
X101757676Y-71738095D01*
X101757676Y-71738095D02*
X101852914Y-71690476D01*
X101852914Y-71690476D02*
X102043390Y-71642857D01*
X102043390Y-71642857D02*
X102186247Y-71642857D01*
X102186247Y-71642857D02*
X102376723Y-71690476D01*
X102376723Y-71690476D02*
X102471961Y-71738095D01*
X102471961Y-71738095D02*
X102567200Y-71833333D01*
X102567200Y-71833333D02*
X102614819Y-71976190D01*
X102614819Y-71976190D02*
X102614819Y-72214285D01*
X101710057Y-71261904D02*
X101662438Y-71214285D01*
X101662438Y-71214285D02*
X101614819Y-71119047D01*
X101614819Y-71119047D02*
X101614819Y-70880952D01*
X101614819Y-70880952D02*
X101662438Y-70785714D01*
X101662438Y-70785714D02*
X101710057Y-70738095D01*
X101710057Y-70738095D02*
X101805295Y-70690476D01*
X101805295Y-70690476D02*
X101900533Y-70690476D01*
X101900533Y-70690476D02*
X102043390Y-70738095D01*
X102043390Y-70738095D02*
X102614819Y-71309523D01*
X102614819Y-71309523D02*
X102614819Y-70690476D01*
X102043390Y-70119047D02*
X101995771Y-70214285D01*
X101995771Y-70214285D02*
X101948152Y-70261904D01*
X101948152Y-70261904D02*
X101852914Y-70309523D01*
X101852914Y-70309523D02*
X101805295Y-70309523D01*
X101805295Y-70309523D02*
X101710057Y-70261904D01*
X101710057Y-70261904D02*
X101662438Y-70214285D01*
X101662438Y-70214285D02*
X101614819Y-70119047D01*
X101614819Y-70119047D02*
X101614819Y-69928571D01*
X101614819Y-69928571D02*
X101662438Y-69833333D01*
X101662438Y-69833333D02*
X101710057Y-69785714D01*
X101710057Y-69785714D02*
X101805295Y-69738095D01*
X101805295Y-69738095D02*
X101852914Y-69738095D01*
X101852914Y-69738095D02*
X101948152Y-69785714D01*
X101948152Y-69785714D02*
X101995771Y-69833333D01*
X101995771Y-69833333D02*
X102043390Y-69928571D01*
X102043390Y-69928571D02*
X102043390Y-70119047D01*
X102043390Y-70119047D02*
X102091009Y-70214285D01*
X102091009Y-70214285D02*
X102138628Y-70261904D01*
X102138628Y-70261904D02*
X102233866Y-70309523D01*
X102233866Y-70309523D02*
X102424342Y-70309523D01*
X102424342Y-70309523D02*
X102519580Y-70261904D01*
X102519580Y-70261904D02*
X102567200Y-70214285D01*
X102567200Y-70214285D02*
X102614819Y-70119047D01*
X102614819Y-70119047D02*
X102614819Y-69928571D01*
X102614819Y-69928571D02*
X102567200Y-69833333D01*
X102567200Y-69833333D02*
X102519580Y-69785714D01*
X102519580Y-69785714D02*
X102424342Y-69738095D01*
X102424342Y-69738095D02*
X102233866Y-69738095D01*
X102233866Y-69738095D02*
X102138628Y-69785714D01*
X102138628Y-69785714D02*
X102091009Y-69833333D01*
X102091009Y-69833333D02*
X102043390Y-69928571D01*
X39364819Y-54738094D02*
X38364819Y-54738094D01*
X38364819Y-54738094D02*
X38364819Y-54499999D01*
X38364819Y-54499999D02*
X38412438Y-54357142D01*
X38412438Y-54357142D02*
X38507676Y-54261904D01*
X38507676Y-54261904D02*
X38602914Y-54214285D01*
X38602914Y-54214285D02*
X38793390Y-54166666D01*
X38793390Y-54166666D02*
X38936247Y-54166666D01*
X38936247Y-54166666D02*
X39126723Y-54214285D01*
X39126723Y-54214285D02*
X39221961Y-54261904D01*
X39221961Y-54261904D02*
X39317200Y-54357142D01*
X39317200Y-54357142D02*
X39364819Y-54499999D01*
X39364819Y-54499999D02*
X39364819Y-54738094D01*
X38460057Y-53785713D02*
X38412438Y-53738094D01*
X38412438Y-53738094D02*
X38364819Y-53642856D01*
X38364819Y-53642856D02*
X38364819Y-53404761D01*
X38364819Y-53404761D02*
X38412438Y-53309523D01*
X38412438Y-53309523D02*
X38460057Y-53261904D01*
X38460057Y-53261904D02*
X38555295Y-53214285D01*
X38555295Y-53214285D02*
X38650533Y-53214285D01*
X38650533Y-53214285D02*
X38793390Y-53261904D01*
X38793390Y-53261904D02*
X39364819Y-53833332D01*
X39364819Y-53833332D02*
X39364819Y-53214285D01*
X160666667Y-110533200D02*
X160809524Y-110580819D01*
X160809524Y-110580819D02*
X161047619Y-110580819D01*
X161047619Y-110580819D02*
X161142857Y-110533200D01*
X161142857Y-110533200D02*
X161190476Y-110485580D01*
X161190476Y-110485580D02*
X161238095Y-110390342D01*
X161238095Y-110390342D02*
X161238095Y-110295104D01*
X161238095Y-110295104D02*
X161190476Y-110199866D01*
X161190476Y-110199866D02*
X161142857Y-110152247D01*
X161142857Y-110152247D02*
X161047619Y-110104628D01*
X161047619Y-110104628D02*
X160857143Y-110057009D01*
X160857143Y-110057009D02*
X160761905Y-110009390D01*
X160761905Y-110009390D02*
X160714286Y-109961771D01*
X160714286Y-109961771D02*
X160666667Y-109866533D01*
X160666667Y-109866533D02*
X160666667Y-109771295D01*
X160666667Y-109771295D02*
X160714286Y-109676057D01*
X160714286Y-109676057D02*
X160761905Y-109628438D01*
X160761905Y-109628438D02*
X160857143Y-109580819D01*
X160857143Y-109580819D02*
X161095238Y-109580819D01*
X161095238Y-109580819D02*
X161238095Y-109628438D01*
X161571429Y-109580819D02*
X161809524Y-110580819D01*
X161809524Y-110580819D02*
X162000000Y-109866533D01*
X162000000Y-109866533D02*
X162190476Y-110580819D01*
X162190476Y-110580819D02*
X162428572Y-109580819D01*
X162857143Y-110580819D02*
X163047619Y-110580819D01*
X163047619Y-110580819D02*
X163142857Y-110533200D01*
X163142857Y-110533200D02*
X163190476Y-110485580D01*
X163190476Y-110485580D02*
X163285714Y-110342723D01*
X163285714Y-110342723D02*
X163333333Y-110152247D01*
X163333333Y-110152247D02*
X163333333Y-109771295D01*
X163333333Y-109771295D02*
X163285714Y-109676057D01*
X163285714Y-109676057D02*
X163238095Y-109628438D01*
X163238095Y-109628438D02*
X163142857Y-109580819D01*
X163142857Y-109580819D02*
X162952381Y-109580819D01*
X162952381Y-109580819D02*
X162857143Y-109628438D01*
X162857143Y-109628438D02*
X162809524Y-109676057D01*
X162809524Y-109676057D02*
X162761905Y-109771295D01*
X162761905Y-109771295D02*
X162761905Y-110009390D01*
X162761905Y-110009390D02*
X162809524Y-110104628D01*
X162809524Y-110104628D02*
X162857143Y-110152247D01*
X162857143Y-110152247D02*
X162952381Y-110199866D01*
X162952381Y-110199866D02*
X163142857Y-110199866D01*
X163142857Y-110199866D02*
X163238095Y-110152247D01*
X163238095Y-110152247D02*
X163285714Y-110104628D01*
X163285714Y-110104628D02*
X163333333Y-110009390D01*
X224860476Y-64533200D02*
X225003333Y-64580819D01*
X225003333Y-64580819D02*
X225241428Y-64580819D01*
X225241428Y-64580819D02*
X225336666Y-64533200D01*
X225336666Y-64533200D02*
X225384285Y-64485580D01*
X225384285Y-64485580D02*
X225431904Y-64390342D01*
X225431904Y-64390342D02*
X225431904Y-64295104D01*
X225431904Y-64295104D02*
X225384285Y-64199866D01*
X225384285Y-64199866D02*
X225336666Y-64152247D01*
X225336666Y-64152247D02*
X225241428Y-64104628D01*
X225241428Y-64104628D02*
X225050952Y-64057009D01*
X225050952Y-64057009D02*
X224955714Y-64009390D01*
X224955714Y-64009390D02*
X224908095Y-63961771D01*
X224908095Y-63961771D02*
X224860476Y-63866533D01*
X224860476Y-63866533D02*
X224860476Y-63771295D01*
X224860476Y-63771295D02*
X224908095Y-63676057D01*
X224908095Y-63676057D02*
X224955714Y-63628438D01*
X224955714Y-63628438D02*
X225050952Y-63580819D01*
X225050952Y-63580819D02*
X225289047Y-63580819D01*
X225289047Y-63580819D02*
X225431904Y-63628438D01*
X225765238Y-63580819D02*
X226003333Y-64580819D01*
X226003333Y-64580819D02*
X226193809Y-63866533D01*
X226193809Y-63866533D02*
X226384285Y-64580819D01*
X226384285Y-64580819D02*
X226622381Y-63580819D01*
X226955714Y-63676057D02*
X227003333Y-63628438D01*
X227003333Y-63628438D02*
X227098571Y-63580819D01*
X227098571Y-63580819D02*
X227336666Y-63580819D01*
X227336666Y-63580819D02*
X227431904Y-63628438D01*
X227431904Y-63628438D02*
X227479523Y-63676057D01*
X227479523Y-63676057D02*
X227527142Y-63771295D01*
X227527142Y-63771295D02*
X227527142Y-63866533D01*
X227527142Y-63866533D02*
X227479523Y-64009390D01*
X227479523Y-64009390D02*
X226908095Y-64580819D01*
X226908095Y-64580819D02*
X227527142Y-64580819D01*
X228003333Y-64580819D02*
X228193809Y-64580819D01*
X228193809Y-64580819D02*
X228289047Y-64533200D01*
X228289047Y-64533200D02*
X228336666Y-64485580D01*
X228336666Y-64485580D02*
X228431904Y-64342723D01*
X228431904Y-64342723D02*
X228479523Y-64152247D01*
X228479523Y-64152247D02*
X228479523Y-63771295D01*
X228479523Y-63771295D02*
X228431904Y-63676057D01*
X228431904Y-63676057D02*
X228384285Y-63628438D01*
X228384285Y-63628438D02*
X228289047Y-63580819D01*
X228289047Y-63580819D02*
X228098571Y-63580819D01*
X228098571Y-63580819D02*
X228003333Y-63628438D01*
X228003333Y-63628438D02*
X227955714Y-63676057D01*
X227955714Y-63676057D02*
X227908095Y-63771295D01*
X227908095Y-63771295D02*
X227908095Y-64009390D01*
X227908095Y-64009390D02*
X227955714Y-64104628D01*
X227955714Y-64104628D02*
X228003333Y-64152247D01*
X228003333Y-64152247D02*
X228098571Y-64199866D01*
X228098571Y-64199866D02*
X228289047Y-64199866D01*
X228289047Y-64199866D02*
X228384285Y-64152247D01*
X228384285Y-64152247D02*
X228431904Y-64104628D01*
X228431904Y-64104628D02*
X228479523Y-64009390D01*
X69100476Y-43533200D02*
X69243333Y-43580819D01*
X69243333Y-43580819D02*
X69481428Y-43580819D01*
X69481428Y-43580819D02*
X69576666Y-43533200D01*
X69576666Y-43533200D02*
X69624285Y-43485580D01*
X69624285Y-43485580D02*
X69671904Y-43390342D01*
X69671904Y-43390342D02*
X69671904Y-43295104D01*
X69671904Y-43295104D02*
X69624285Y-43199866D01*
X69624285Y-43199866D02*
X69576666Y-43152247D01*
X69576666Y-43152247D02*
X69481428Y-43104628D01*
X69481428Y-43104628D02*
X69290952Y-43057009D01*
X69290952Y-43057009D02*
X69195714Y-43009390D01*
X69195714Y-43009390D02*
X69148095Y-42961771D01*
X69148095Y-42961771D02*
X69100476Y-42866533D01*
X69100476Y-42866533D02*
X69100476Y-42771295D01*
X69100476Y-42771295D02*
X69148095Y-42676057D01*
X69148095Y-42676057D02*
X69195714Y-42628438D01*
X69195714Y-42628438D02*
X69290952Y-42580819D01*
X69290952Y-42580819D02*
X69529047Y-42580819D01*
X69529047Y-42580819D02*
X69671904Y-42628438D01*
X70005238Y-42580819D02*
X70243333Y-43580819D01*
X70243333Y-43580819D02*
X70433809Y-42866533D01*
X70433809Y-42866533D02*
X70624285Y-43580819D01*
X70624285Y-43580819D02*
X70862381Y-42580819D01*
X71767142Y-43580819D02*
X71195714Y-43580819D01*
X71481428Y-43580819D02*
X71481428Y-42580819D01*
X71481428Y-42580819D02*
X71386190Y-42723676D01*
X71386190Y-42723676D02*
X71290952Y-42818914D01*
X71290952Y-42818914D02*
X71195714Y-42866533D01*
X72386190Y-42580819D02*
X72481428Y-42580819D01*
X72481428Y-42580819D02*
X72576666Y-42628438D01*
X72576666Y-42628438D02*
X72624285Y-42676057D01*
X72624285Y-42676057D02*
X72671904Y-42771295D01*
X72671904Y-42771295D02*
X72719523Y-42961771D01*
X72719523Y-42961771D02*
X72719523Y-43199866D01*
X72719523Y-43199866D02*
X72671904Y-43390342D01*
X72671904Y-43390342D02*
X72624285Y-43485580D01*
X72624285Y-43485580D02*
X72576666Y-43533200D01*
X72576666Y-43533200D02*
X72481428Y-43580819D01*
X72481428Y-43580819D02*
X72386190Y-43580819D01*
X72386190Y-43580819D02*
X72290952Y-43533200D01*
X72290952Y-43533200D02*
X72243333Y-43485580D01*
X72243333Y-43485580D02*
X72195714Y-43390342D01*
X72195714Y-43390342D02*
X72148095Y-43199866D01*
X72148095Y-43199866D02*
X72148095Y-42961771D01*
X72148095Y-42961771D02*
X72195714Y-42771295D01*
X72195714Y-42771295D02*
X72243333Y-42676057D01*
X72243333Y-42676057D02*
X72290952Y-42628438D01*
X72290952Y-42628438D02*
X72386190Y-42580819D01*
X111270476Y-85533200D02*
X111413333Y-85580819D01*
X111413333Y-85580819D02*
X111651428Y-85580819D01*
X111651428Y-85580819D02*
X111746666Y-85533200D01*
X111746666Y-85533200D02*
X111794285Y-85485580D01*
X111794285Y-85485580D02*
X111841904Y-85390342D01*
X111841904Y-85390342D02*
X111841904Y-85295104D01*
X111841904Y-85295104D02*
X111794285Y-85199866D01*
X111794285Y-85199866D02*
X111746666Y-85152247D01*
X111746666Y-85152247D02*
X111651428Y-85104628D01*
X111651428Y-85104628D02*
X111460952Y-85057009D01*
X111460952Y-85057009D02*
X111365714Y-85009390D01*
X111365714Y-85009390D02*
X111318095Y-84961771D01*
X111318095Y-84961771D02*
X111270476Y-84866533D01*
X111270476Y-84866533D02*
X111270476Y-84771295D01*
X111270476Y-84771295D02*
X111318095Y-84676057D01*
X111318095Y-84676057D02*
X111365714Y-84628438D01*
X111365714Y-84628438D02*
X111460952Y-84580819D01*
X111460952Y-84580819D02*
X111699047Y-84580819D01*
X111699047Y-84580819D02*
X111841904Y-84628438D01*
X112175238Y-84580819D02*
X112413333Y-85580819D01*
X112413333Y-85580819D02*
X112603809Y-84866533D01*
X112603809Y-84866533D02*
X112794285Y-85580819D01*
X112794285Y-85580819D02*
X113032381Y-84580819D01*
X113318095Y-84580819D02*
X113937142Y-84580819D01*
X113937142Y-84580819D02*
X113603809Y-84961771D01*
X113603809Y-84961771D02*
X113746666Y-84961771D01*
X113746666Y-84961771D02*
X113841904Y-85009390D01*
X113841904Y-85009390D02*
X113889523Y-85057009D01*
X113889523Y-85057009D02*
X113937142Y-85152247D01*
X113937142Y-85152247D02*
X113937142Y-85390342D01*
X113937142Y-85390342D02*
X113889523Y-85485580D01*
X113889523Y-85485580D02*
X113841904Y-85533200D01*
X113841904Y-85533200D02*
X113746666Y-85580819D01*
X113746666Y-85580819D02*
X113460952Y-85580819D01*
X113460952Y-85580819D02*
X113365714Y-85533200D01*
X113365714Y-85533200D02*
X113318095Y-85485580D01*
X114556190Y-84580819D02*
X114651428Y-84580819D01*
X114651428Y-84580819D02*
X114746666Y-84628438D01*
X114746666Y-84628438D02*
X114794285Y-84676057D01*
X114794285Y-84676057D02*
X114841904Y-84771295D01*
X114841904Y-84771295D02*
X114889523Y-84961771D01*
X114889523Y-84961771D02*
X114889523Y-85199866D01*
X114889523Y-85199866D02*
X114841904Y-85390342D01*
X114841904Y-85390342D02*
X114794285Y-85485580D01*
X114794285Y-85485580D02*
X114746666Y-85533200D01*
X114746666Y-85533200D02*
X114651428Y-85580819D01*
X114651428Y-85580819D02*
X114556190Y-85580819D01*
X114556190Y-85580819D02*
X114460952Y-85533200D01*
X114460952Y-85533200D02*
X114413333Y-85485580D01*
X114413333Y-85485580D02*
X114365714Y-85390342D01*
X114365714Y-85390342D02*
X114318095Y-85199866D01*
X114318095Y-85199866D02*
X114318095Y-84961771D01*
X114318095Y-84961771D02*
X114365714Y-84771295D01*
X114365714Y-84771295D02*
X114413333Y-84676057D01*
X114413333Y-84676057D02*
X114460952Y-84628438D01*
X114460952Y-84628438D02*
X114556190Y-84580819D01*
X245940476Y-89533200D02*
X246083333Y-89580819D01*
X246083333Y-89580819D02*
X246321428Y-89580819D01*
X246321428Y-89580819D02*
X246416666Y-89533200D01*
X246416666Y-89533200D02*
X246464285Y-89485580D01*
X246464285Y-89485580D02*
X246511904Y-89390342D01*
X246511904Y-89390342D02*
X246511904Y-89295104D01*
X246511904Y-89295104D02*
X246464285Y-89199866D01*
X246464285Y-89199866D02*
X246416666Y-89152247D01*
X246416666Y-89152247D02*
X246321428Y-89104628D01*
X246321428Y-89104628D02*
X246130952Y-89057009D01*
X246130952Y-89057009D02*
X246035714Y-89009390D01*
X246035714Y-89009390D02*
X245988095Y-88961771D01*
X245988095Y-88961771D02*
X245940476Y-88866533D01*
X245940476Y-88866533D02*
X245940476Y-88771295D01*
X245940476Y-88771295D02*
X245988095Y-88676057D01*
X245988095Y-88676057D02*
X246035714Y-88628438D01*
X246035714Y-88628438D02*
X246130952Y-88580819D01*
X246130952Y-88580819D02*
X246369047Y-88580819D01*
X246369047Y-88580819D02*
X246511904Y-88628438D01*
X246845238Y-88580819D02*
X247083333Y-89580819D01*
X247083333Y-89580819D02*
X247273809Y-88866533D01*
X247273809Y-88866533D02*
X247464285Y-89580819D01*
X247464285Y-89580819D02*
X247702381Y-88580819D01*
X247988095Y-88580819D02*
X248607142Y-88580819D01*
X248607142Y-88580819D02*
X248273809Y-88961771D01*
X248273809Y-88961771D02*
X248416666Y-88961771D01*
X248416666Y-88961771D02*
X248511904Y-89009390D01*
X248511904Y-89009390D02*
X248559523Y-89057009D01*
X248559523Y-89057009D02*
X248607142Y-89152247D01*
X248607142Y-89152247D02*
X248607142Y-89390342D01*
X248607142Y-89390342D02*
X248559523Y-89485580D01*
X248559523Y-89485580D02*
X248511904Y-89533200D01*
X248511904Y-89533200D02*
X248416666Y-89580819D01*
X248416666Y-89580819D02*
X248130952Y-89580819D01*
X248130952Y-89580819D02*
X248035714Y-89533200D01*
X248035714Y-89533200D02*
X247988095Y-89485580D01*
X249083333Y-89580819D02*
X249273809Y-89580819D01*
X249273809Y-89580819D02*
X249369047Y-89533200D01*
X249369047Y-89533200D02*
X249416666Y-89485580D01*
X249416666Y-89485580D02*
X249511904Y-89342723D01*
X249511904Y-89342723D02*
X249559523Y-89152247D01*
X249559523Y-89152247D02*
X249559523Y-88771295D01*
X249559523Y-88771295D02*
X249511904Y-88676057D01*
X249511904Y-88676057D02*
X249464285Y-88628438D01*
X249464285Y-88628438D02*
X249369047Y-88580819D01*
X249369047Y-88580819D02*
X249178571Y-88580819D01*
X249178571Y-88580819D02*
X249083333Y-88628438D01*
X249083333Y-88628438D02*
X249035714Y-88676057D01*
X249035714Y-88676057D02*
X248988095Y-88771295D01*
X248988095Y-88771295D02*
X248988095Y-89009390D01*
X248988095Y-89009390D02*
X249035714Y-89104628D01*
X249035714Y-89104628D02*
X249083333Y-89152247D01*
X249083333Y-89152247D02*
X249178571Y-89199866D01*
X249178571Y-89199866D02*
X249369047Y-89199866D01*
X249369047Y-89199866D02*
X249464285Y-89152247D01*
X249464285Y-89152247D02*
X249511904Y-89104628D01*
X249511904Y-89104628D02*
X249559523Y-89009390D01*
X111270476Y-43533200D02*
X111413333Y-43580819D01*
X111413333Y-43580819D02*
X111651428Y-43580819D01*
X111651428Y-43580819D02*
X111746666Y-43533200D01*
X111746666Y-43533200D02*
X111794285Y-43485580D01*
X111794285Y-43485580D02*
X111841904Y-43390342D01*
X111841904Y-43390342D02*
X111841904Y-43295104D01*
X111841904Y-43295104D02*
X111794285Y-43199866D01*
X111794285Y-43199866D02*
X111746666Y-43152247D01*
X111746666Y-43152247D02*
X111651428Y-43104628D01*
X111651428Y-43104628D02*
X111460952Y-43057009D01*
X111460952Y-43057009D02*
X111365714Y-43009390D01*
X111365714Y-43009390D02*
X111318095Y-42961771D01*
X111318095Y-42961771D02*
X111270476Y-42866533D01*
X111270476Y-42866533D02*
X111270476Y-42771295D01*
X111270476Y-42771295D02*
X111318095Y-42676057D01*
X111318095Y-42676057D02*
X111365714Y-42628438D01*
X111365714Y-42628438D02*
X111460952Y-42580819D01*
X111460952Y-42580819D02*
X111699047Y-42580819D01*
X111699047Y-42580819D02*
X111841904Y-42628438D01*
X112175238Y-42580819D02*
X112413333Y-43580819D01*
X112413333Y-43580819D02*
X112603809Y-42866533D01*
X112603809Y-42866533D02*
X112794285Y-43580819D01*
X112794285Y-43580819D02*
X113032381Y-42580819D01*
X113365714Y-42676057D02*
X113413333Y-42628438D01*
X113413333Y-42628438D02*
X113508571Y-42580819D01*
X113508571Y-42580819D02*
X113746666Y-42580819D01*
X113746666Y-42580819D02*
X113841904Y-42628438D01*
X113841904Y-42628438D02*
X113889523Y-42676057D01*
X113889523Y-42676057D02*
X113937142Y-42771295D01*
X113937142Y-42771295D02*
X113937142Y-42866533D01*
X113937142Y-42866533D02*
X113889523Y-43009390D01*
X113889523Y-43009390D02*
X113318095Y-43580819D01*
X113318095Y-43580819D02*
X113937142Y-43580819D01*
X114794285Y-42580819D02*
X114603809Y-42580819D01*
X114603809Y-42580819D02*
X114508571Y-42628438D01*
X114508571Y-42628438D02*
X114460952Y-42676057D01*
X114460952Y-42676057D02*
X114365714Y-42818914D01*
X114365714Y-42818914D02*
X114318095Y-43009390D01*
X114318095Y-43009390D02*
X114318095Y-43390342D01*
X114318095Y-43390342D02*
X114365714Y-43485580D01*
X114365714Y-43485580D02*
X114413333Y-43533200D01*
X114413333Y-43533200D02*
X114508571Y-43580819D01*
X114508571Y-43580819D02*
X114699047Y-43580819D01*
X114699047Y-43580819D02*
X114794285Y-43533200D01*
X114794285Y-43533200D02*
X114841904Y-43485580D01*
X114841904Y-43485580D02*
X114889523Y-43390342D01*
X114889523Y-43390342D02*
X114889523Y-43152247D01*
X114889523Y-43152247D02*
X114841904Y-43057009D01*
X114841904Y-43057009D02*
X114794285Y-43009390D01*
X114794285Y-43009390D02*
X114699047Y-42961771D01*
X114699047Y-42961771D02*
X114508571Y-42961771D01*
X114508571Y-42961771D02*
X114413333Y-43009390D01*
X114413333Y-43009390D02*
X114365714Y-43057009D01*
X114365714Y-43057009D02*
X114318095Y-43152247D01*
X151454819Y-117738094D02*
X150454819Y-117738094D01*
X150454819Y-117738094D02*
X150454819Y-117499999D01*
X150454819Y-117499999D02*
X150502438Y-117357142D01*
X150502438Y-117357142D02*
X150597676Y-117261904D01*
X150597676Y-117261904D02*
X150692914Y-117214285D01*
X150692914Y-117214285D02*
X150883390Y-117166666D01*
X150883390Y-117166666D02*
X151026247Y-117166666D01*
X151026247Y-117166666D02*
X151216723Y-117214285D01*
X151216723Y-117214285D02*
X151311961Y-117261904D01*
X151311961Y-117261904D02*
X151407200Y-117357142D01*
X151407200Y-117357142D02*
X151454819Y-117499999D01*
X151454819Y-117499999D02*
X151454819Y-117738094D01*
X151454819Y-116690475D02*
X151454819Y-116499999D01*
X151454819Y-116499999D02*
X151407200Y-116404761D01*
X151407200Y-116404761D02*
X151359580Y-116357142D01*
X151359580Y-116357142D02*
X151216723Y-116261904D01*
X151216723Y-116261904D02*
X151026247Y-116214285D01*
X151026247Y-116214285D02*
X150645295Y-116214285D01*
X150645295Y-116214285D02*
X150550057Y-116261904D01*
X150550057Y-116261904D02*
X150502438Y-116309523D01*
X150502438Y-116309523D02*
X150454819Y-116404761D01*
X150454819Y-116404761D02*
X150454819Y-116595237D01*
X150454819Y-116595237D02*
X150502438Y-116690475D01*
X150502438Y-116690475D02*
X150550057Y-116738094D01*
X150550057Y-116738094D02*
X150645295Y-116785713D01*
X150645295Y-116785713D02*
X150883390Y-116785713D01*
X150883390Y-116785713D02*
X150978628Y-116738094D01*
X150978628Y-116738094D02*
X151026247Y-116690475D01*
X151026247Y-116690475D02*
X151073866Y-116595237D01*
X151073866Y-116595237D02*
X151073866Y-116404761D01*
X151073866Y-116404761D02*
X151026247Y-116309523D01*
X151026247Y-116309523D02*
X150978628Y-116261904D01*
X150978628Y-116261904D02*
X150883390Y-116214285D01*
X151454819Y-54738094D02*
X150454819Y-54738094D01*
X150454819Y-54738094D02*
X150454819Y-54499999D01*
X150454819Y-54499999D02*
X150502438Y-54357142D01*
X150502438Y-54357142D02*
X150597676Y-54261904D01*
X150597676Y-54261904D02*
X150692914Y-54214285D01*
X150692914Y-54214285D02*
X150883390Y-54166666D01*
X150883390Y-54166666D02*
X151026247Y-54166666D01*
X151026247Y-54166666D02*
X151216723Y-54214285D01*
X151216723Y-54214285D02*
X151311961Y-54261904D01*
X151311961Y-54261904D02*
X151407200Y-54357142D01*
X151407200Y-54357142D02*
X151454819Y-54499999D01*
X151454819Y-54499999D02*
X151454819Y-54738094D01*
X150454819Y-53833332D02*
X150454819Y-53214285D01*
X150454819Y-53214285D02*
X150835771Y-53547618D01*
X150835771Y-53547618D02*
X150835771Y-53404761D01*
X150835771Y-53404761D02*
X150883390Y-53309523D01*
X150883390Y-53309523D02*
X150931009Y-53261904D01*
X150931009Y-53261904D02*
X151026247Y-53214285D01*
X151026247Y-53214285D02*
X151264342Y-53214285D01*
X151264342Y-53214285D02*
X151359580Y-53261904D01*
X151359580Y-53261904D02*
X151407200Y-53309523D01*
X151407200Y-53309523D02*
X151454819Y-53404761D01*
X151454819Y-53404761D02*
X151454819Y-53690475D01*
X151454819Y-53690475D02*
X151407200Y-53785713D01*
X151407200Y-53785713D02*
X151359580Y-53833332D01*
X258238095Y-102206819D02*
X258809523Y-102206819D01*
X258523809Y-103206819D02*
X258523809Y-102206819D01*
X259142857Y-103206819D02*
X259142857Y-102206819D01*
X259142857Y-102206819D02*
X259523809Y-102206819D01*
X259523809Y-102206819D02*
X259619047Y-102254438D01*
X259619047Y-102254438D02*
X259666666Y-102302057D01*
X259666666Y-102302057D02*
X259714285Y-102397295D01*
X259714285Y-102397295D02*
X259714285Y-102540152D01*
X259714285Y-102540152D02*
X259666666Y-102635390D01*
X259666666Y-102635390D02*
X259619047Y-102683009D01*
X259619047Y-102683009D02*
X259523809Y-102730628D01*
X259523809Y-102730628D02*
X259142857Y-102730628D01*
X260047619Y-102206819D02*
X260666666Y-102206819D01*
X260666666Y-102206819D02*
X260333333Y-102587771D01*
X260333333Y-102587771D02*
X260476190Y-102587771D01*
X260476190Y-102587771D02*
X260571428Y-102635390D01*
X260571428Y-102635390D02*
X260619047Y-102683009D01*
X260619047Y-102683009D02*
X260666666Y-102778247D01*
X260666666Y-102778247D02*
X260666666Y-103016342D01*
X260666666Y-103016342D02*
X260619047Y-103111580D01*
X260619047Y-103111580D02*
X260571428Y-103159200D01*
X260571428Y-103159200D02*
X260476190Y-103206819D01*
X260476190Y-103206819D02*
X260190476Y-103206819D01*
X260190476Y-103206819D02*
X260095238Y-103159200D01*
X260095238Y-103159200D02*
X260047619Y-103111580D01*
X81364819Y-110214285D02*
X80364819Y-110214285D01*
X80364819Y-110214285D02*
X80364819Y-109976190D01*
X80364819Y-109976190D02*
X80412438Y-109833333D01*
X80412438Y-109833333D02*
X80507676Y-109738095D01*
X80507676Y-109738095D02*
X80602914Y-109690476D01*
X80602914Y-109690476D02*
X80793390Y-109642857D01*
X80793390Y-109642857D02*
X80936247Y-109642857D01*
X80936247Y-109642857D02*
X81126723Y-109690476D01*
X81126723Y-109690476D02*
X81221961Y-109738095D01*
X81221961Y-109738095D02*
X81317200Y-109833333D01*
X81317200Y-109833333D02*
X81364819Y-109976190D01*
X81364819Y-109976190D02*
X81364819Y-110214285D01*
X80460057Y-109261904D02*
X80412438Y-109214285D01*
X80412438Y-109214285D02*
X80364819Y-109119047D01*
X80364819Y-109119047D02*
X80364819Y-108880952D01*
X80364819Y-108880952D02*
X80412438Y-108785714D01*
X80412438Y-108785714D02*
X80460057Y-108738095D01*
X80460057Y-108738095D02*
X80555295Y-108690476D01*
X80555295Y-108690476D02*
X80650533Y-108690476D01*
X80650533Y-108690476D02*
X80793390Y-108738095D01*
X80793390Y-108738095D02*
X81364819Y-109309523D01*
X81364819Y-109309523D02*
X81364819Y-108690476D01*
X80698152Y-107833333D02*
X81364819Y-107833333D01*
X80317200Y-108071428D02*
X81031485Y-108309523D01*
X81031485Y-108309523D02*
X81031485Y-107690476D01*
X160666667Y-89533200D02*
X160809524Y-89580819D01*
X160809524Y-89580819D02*
X161047619Y-89580819D01*
X161047619Y-89580819D02*
X161142857Y-89533200D01*
X161142857Y-89533200D02*
X161190476Y-89485580D01*
X161190476Y-89485580D02*
X161238095Y-89390342D01*
X161238095Y-89390342D02*
X161238095Y-89295104D01*
X161238095Y-89295104D02*
X161190476Y-89199866D01*
X161190476Y-89199866D02*
X161142857Y-89152247D01*
X161142857Y-89152247D02*
X161047619Y-89104628D01*
X161047619Y-89104628D02*
X160857143Y-89057009D01*
X160857143Y-89057009D02*
X160761905Y-89009390D01*
X160761905Y-89009390D02*
X160714286Y-88961771D01*
X160714286Y-88961771D02*
X160666667Y-88866533D01*
X160666667Y-88866533D02*
X160666667Y-88771295D01*
X160666667Y-88771295D02*
X160714286Y-88676057D01*
X160714286Y-88676057D02*
X160761905Y-88628438D01*
X160761905Y-88628438D02*
X160857143Y-88580819D01*
X160857143Y-88580819D02*
X161095238Y-88580819D01*
X161095238Y-88580819D02*
X161238095Y-88628438D01*
X161571429Y-88580819D02*
X161809524Y-89580819D01*
X161809524Y-89580819D02*
X162000000Y-88866533D01*
X162000000Y-88866533D02*
X162190476Y-89580819D01*
X162190476Y-89580819D02*
X162428572Y-88580819D01*
X162714286Y-88580819D02*
X163380952Y-88580819D01*
X163380952Y-88580819D02*
X162952381Y-89580819D01*
X203780476Y-60533200D02*
X203923333Y-60580819D01*
X203923333Y-60580819D02*
X204161428Y-60580819D01*
X204161428Y-60580819D02*
X204256666Y-60533200D01*
X204256666Y-60533200D02*
X204304285Y-60485580D01*
X204304285Y-60485580D02*
X204351904Y-60390342D01*
X204351904Y-60390342D02*
X204351904Y-60295104D01*
X204351904Y-60295104D02*
X204304285Y-60199866D01*
X204304285Y-60199866D02*
X204256666Y-60152247D01*
X204256666Y-60152247D02*
X204161428Y-60104628D01*
X204161428Y-60104628D02*
X203970952Y-60057009D01*
X203970952Y-60057009D02*
X203875714Y-60009390D01*
X203875714Y-60009390D02*
X203828095Y-59961771D01*
X203828095Y-59961771D02*
X203780476Y-59866533D01*
X203780476Y-59866533D02*
X203780476Y-59771295D01*
X203780476Y-59771295D02*
X203828095Y-59676057D01*
X203828095Y-59676057D02*
X203875714Y-59628438D01*
X203875714Y-59628438D02*
X203970952Y-59580819D01*
X203970952Y-59580819D02*
X204209047Y-59580819D01*
X204209047Y-59580819D02*
X204351904Y-59628438D01*
X204685238Y-59580819D02*
X204923333Y-60580819D01*
X204923333Y-60580819D02*
X205113809Y-59866533D01*
X205113809Y-59866533D02*
X205304285Y-60580819D01*
X205304285Y-60580819D02*
X205542381Y-59580819D01*
X205875714Y-59676057D02*
X205923333Y-59628438D01*
X205923333Y-59628438D02*
X206018571Y-59580819D01*
X206018571Y-59580819D02*
X206256666Y-59580819D01*
X206256666Y-59580819D02*
X206351904Y-59628438D01*
X206351904Y-59628438D02*
X206399523Y-59676057D01*
X206399523Y-59676057D02*
X206447142Y-59771295D01*
X206447142Y-59771295D02*
X206447142Y-59866533D01*
X206447142Y-59866533D02*
X206399523Y-60009390D01*
X206399523Y-60009390D02*
X205828095Y-60580819D01*
X205828095Y-60580819D02*
X206447142Y-60580819D01*
X207399523Y-60580819D02*
X206828095Y-60580819D01*
X207113809Y-60580819D02*
X207113809Y-59580819D01*
X207113809Y-59580819D02*
X207018571Y-59723676D01*
X207018571Y-59723676D02*
X206923333Y-59818914D01*
X206923333Y-59818914D02*
X206828095Y-59866533D01*
X203780476Y-39533200D02*
X203923333Y-39580819D01*
X203923333Y-39580819D02*
X204161428Y-39580819D01*
X204161428Y-39580819D02*
X204256666Y-39533200D01*
X204256666Y-39533200D02*
X204304285Y-39485580D01*
X204304285Y-39485580D02*
X204351904Y-39390342D01*
X204351904Y-39390342D02*
X204351904Y-39295104D01*
X204351904Y-39295104D02*
X204304285Y-39199866D01*
X204304285Y-39199866D02*
X204256666Y-39152247D01*
X204256666Y-39152247D02*
X204161428Y-39104628D01*
X204161428Y-39104628D02*
X203970952Y-39057009D01*
X203970952Y-39057009D02*
X203875714Y-39009390D01*
X203875714Y-39009390D02*
X203828095Y-38961771D01*
X203828095Y-38961771D02*
X203780476Y-38866533D01*
X203780476Y-38866533D02*
X203780476Y-38771295D01*
X203780476Y-38771295D02*
X203828095Y-38676057D01*
X203828095Y-38676057D02*
X203875714Y-38628438D01*
X203875714Y-38628438D02*
X203970952Y-38580819D01*
X203970952Y-38580819D02*
X204209047Y-38580819D01*
X204209047Y-38580819D02*
X204351904Y-38628438D01*
X204685238Y-38580819D02*
X204923333Y-39580819D01*
X204923333Y-39580819D02*
X205113809Y-38866533D01*
X205113809Y-38866533D02*
X205304285Y-39580819D01*
X205304285Y-39580819D02*
X205542381Y-38580819D01*
X206447142Y-39580819D02*
X205875714Y-39580819D01*
X206161428Y-39580819D02*
X206161428Y-38580819D01*
X206161428Y-38580819D02*
X206066190Y-38723676D01*
X206066190Y-38723676D02*
X205970952Y-38818914D01*
X205970952Y-38818914D02*
X205875714Y-38866533D01*
X206923333Y-39580819D02*
X207113809Y-39580819D01*
X207113809Y-39580819D02*
X207209047Y-39533200D01*
X207209047Y-39533200D02*
X207256666Y-39485580D01*
X207256666Y-39485580D02*
X207351904Y-39342723D01*
X207351904Y-39342723D02*
X207399523Y-39152247D01*
X207399523Y-39152247D02*
X207399523Y-38771295D01*
X207399523Y-38771295D02*
X207351904Y-38676057D01*
X207351904Y-38676057D02*
X207304285Y-38628438D01*
X207304285Y-38628438D02*
X207209047Y-38580819D01*
X207209047Y-38580819D02*
X207018571Y-38580819D01*
X207018571Y-38580819D02*
X206923333Y-38628438D01*
X206923333Y-38628438D02*
X206875714Y-38676057D01*
X206875714Y-38676057D02*
X206828095Y-38771295D01*
X206828095Y-38771295D02*
X206828095Y-39009390D01*
X206828095Y-39009390D02*
X206875714Y-39104628D01*
X206875714Y-39104628D02*
X206923333Y-39152247D01*
X206923333Y-39152247D02*
X207018571Y-39199866D01*
X207018571Y-39199866D02*
X207209047Y-39199866D01*
X207209047Y-39199866D02*
X207304285Y-39152247D01*
X207304285Y-39152247D02*
X207351904Y-39104628D01*
X207351904Y-39104628D02*
X207399523Y-39009390D01*
X193214819Y-68214285D02*
X192214819Y-68214285D01*
X192214819Y-68214285D02*
X192214819Y-67976190D01*
X192214819Y-67976190D02*
X192262438Y-67833333D01*
X192262438Y-67833333D02*
X192357676Y-67738095D01*
X192357676Y-67738095D02*
X192452914Y-67690476D01*
X192452914Y-67690476D02*
X192643390Y-67642857D01*
X192643390Y-67642857D02*
X192786247Y-67642857D01*
X192786247Y-67642857D02*
X192976723Y-67690476D01*
X192976723Y-67690476D02*
X193071961Y-67738095D01*
X193071961Y-67738095D02*
X193167200Y-67833333D01*
X193167200Y-67833333D02*
X193214819Y-67976190D01*
X193214819Y-67976190D02*
X193214819Y-68214285D01*
X192310057Y-67261904D02*
X192262438Y-67214285D01*
X192262438Y-67214285D02*
X192214819Y-67119047D01*
X192214819Y-67119047D02*
X192214819Y-66880952D01*
X192214819Y-66880952D02*
X192262438Y-66785714D01*
X192262438Y-66785714D02*
X192310057Y-66738095D01*
X192310057Y-66738095D02*
X192405295Y-66690476D01*
X192405295Y-66690476D02*
X192500533Y-66690476D01*
X192500533Y-66690476D02*
X192643390Y-66738095D01*
X192643390Y-66738095D02*
X193214819Y-67309523D01*
X193214819Y-67309523D02*
X193214819Y-66690476D01*
X193214819Y-65738095D02*
X193214819Y-66309523D01*
X193214819Y-66023809D02*
X192214819Y-66023809D01*
X192214819Y-66023809D02*
X192357676Y-66119047D01*
X192357676Y-66119047D02*
X192452914Y-66214285D01*
X192452914Y-66214285D02*
X192500533Y-66309523D01*
X224860476Y-85533200D02*
X225003333Y-85580819D01*
X225003333Y-85580819D02*
X225241428Y-85580819D01*
X225241428Y-85580819D02*
X225336666Y-85533200D01*
X225336666Y-85533200D02*
X225384285Y-85485580D01*
X225384285Y-85485580D02*
X225431904Y-85390342D01*
X225431904Y-85390342D02*
X225431904Y-85295104D01*
X225431904Y-85295104D02*
X225384285Y-85199866D01*
X225384285Y-85199866D02*
X225336666Y-85152247D01*
X225336666Y-85152247D02*
X225241428Y-85104628D01*
X225241428Y-85104628D02*
X225050952Y-85057009D01*
X225050952Y-85057009D02*
X224955714Y-85009390D01*
X224955714Y-85009390D02*
X224908095Y-84961771D01*
X224908095Y-84961771D02*
X224860476Y-84866533D01*
X224860476Y-84866533D02*
X224860476Y-84771295D01*
X224860476Y-84771295D02*
X224908095Y-84676057D01*
X224908095Y-84676057D02*
X224955714Y-84628438D01*
X224955714Y-84628438D02*
X225050952Y-84580819D01*
X225050952Y-84580819D02*
X225289047Y-84580819D01*
X225289047Y-84580819D02*
X225431904Y-84628438D01*
X225765238Y-84580819D02*
X226003333Y-85580819D01*
X226003333Y-85580819D02*
X226193809Y-84866533D01*
X226193809Y-84866533D02*
X226384285Y-85580819D01*
X226384285Y-85580819D02*
X226622381Y-84580819D01*
X226908095Y-84580819D02*
X227527142Y-84580819D01*
X227527142Y-84580819D02*
X227193809Y-84961771D01*
X227193809Y-84961771D02*
X227336666Y-84961771D01*
X227336666Y-84961771D02*
X227431904Y-85009390D01*
X227431904Y-85009390D02*
X227479523Y-85057009D01*
X227479523Y-85057009D02*
X227527142Y-85152247D01*
X227527142Y-85152247D02*
X227527142Y-85390342D01*
X227527142Y-85390342D02*
X227479523Y-85485580D01*
X227479523Y-85485580D02*
X227431904Y-85533200D01*
X227431904Y-85533200D02*
X227336666Y-85580819D01*
X227336666Y-85580819D02*
X227050952Y-85580819D01*
X227050952Y-85580819D02*
X226955714Y-85533200D01*
X226955714Y-85533200D02*
X226908095Y-85485580D01*
X228479523Y-85580819D02*
X227908095Y-85580819D01*
X228193809Y-85580819D02*
X228193809Y-84580819D01*
X228193809Y-84580819D02*
X228098571Y-84723676D01*
X228098571Y-84723676D02*
X228003333Y-84818914D01*
X228003333Y-84818914D02*
X227908095Y-84866533D01*
X170624819Y-93214285D02*
X169624819Y-93214285D01*
X169624819Y-93214285D02*
X169624819Y-92976190D01*
X169624819Y-92976190D02*
X169672438Y-92833333D01*
X169672438Y-92833333D02*
X169767676Y-92738095D01*
X169767676Y-92738095D02*
X169862914Y-92690476D01*
X169862914Y-92690476D02*
X170053390Y-92642857D01*
X170053390Y-92642857D02*
X170196247Y-92642857D01*
X170196247Y-92642857D02*
X170386723Y-92690476D01*
X170386723Y-92690476D02*
X170481961Y-92738095D01*
X170481961Y-92738095D02*
X170577200Y-92833333D01*
X170577200Y-92833333D02*
X170624819Y-92976190D01*
X170624819Y-92976190D02*
X170624819Y-93214285D01*
X170624819Y-91690476D02*
X170624819Y-92261904D01*
X170624819Y-91976190D02*
X169624819Y-91976190D01*
X169624819Y-91976190D02*
X169767676Y-92071428D01*
X169767676Y-92071428D02*
X169862914Y-92166666D01*
X169862914Y-92166666D02*
X169910533Y-92261904D01*
X169624819Y-90785714D02*
X169624819Y-91261904D01*
X169624819Y-91261904D02*
X170101009Y-91309523D01*
X170101009Y-91309523D02*
X170053390Y-91261904D01*
X170053390Y-91261904D02*
X170005771Y-91166666D01*
X170005771Y-91166666D02*
X170005771Y-90928571D01*
X170005771Y-90928571D02*
X170053390Y-90833333D01*
X170053390Y-90833333D02*
X170101009Y-90785714D01*
X170101009Y-90785714D02*
X170196247Y-90738095D01*
X170196247Y-90738095D02*
X170434342Y-90738095D01*
X170434342Y-90738095D02*
X170529580Y-90785714D01*
X170529580Y-90785714D02*
X170577200Y-90833333D01*
X170577200Y-90833333D02*
X170624819Y-90928571D01*
X170624819Y-90928571D02*
X170624819Y-91166666D01*
X170624819Y-91166666D02*
X170577200Y-91261904D01*
X170577200Y-91261904D02*
X170529580Y-91309523D01*
X102614819Y-114214285D02*
X101614819Y-114214285D01*
X101614819Y-114214285D02*
X101614819Y-113976190D01*
X101614819Y-113976190D02*
X101662438Y-113833333D01*
X101662438Y-113833333D02*
X101757676Y-113738095D01*
X101757676Y-113738095D02*
X101852914Y-113690476D01*
X101852914Y-113690476D02*
X102043390Y-113642857D01*
X102043390Y-113642857D02*
X102186247Y-113642857D01*
X102186247Y-113642857D02*
X102376723Y-113690476D01*
X102376723Y-113690476D02*
X102471961Y-113738095D01*
X102471961Y-113738095D02*
X102567200Y-113833333D01*
X102567200Y-113833333D02*
X102614819Y-113976190D01*
X102614819Y-113976190D02*
X102614819Y-114214285D01*
X101614819Y-113309523D02*
X101614819Y-112690476D01*
X101614819Y-112690476D02*
X101995771Y-113023809D01*
X101995771Y-113023809D02*
X101995771Y-112880952D01*
X101995771Y-112880952D02*
X102043390Y-112785714D01*
X102043390Y-112785714D02*
X102091009Y-112738095D01*
X102091009Y-112738095D02*
X102186247Y-112690476D01*
X102186247Y-112690476D02*
X102424342Y-112690476D01*
X102424342Y-112690476D02*
X102519580Y-112738095D01*
X102519580Y-112738095D02*
X102567200Y-112785714D01*
X102567200Y-112785714D02*
X102614819Y-112880952D01*
X102614819Y-112880952D02*
X102614819Y-113166666D01*
X102614819Y-113166666D02*
X102567200Y-113261904D01*
X102567200Y-113261904D02*
X102519580Y-113309523D01*
X101710057Y-112309523D02*
X101662438Y-112261904D01*
X101662438Y-112261904D02*
X101614819Y-112166666D01*
X101614819Y-112166666D02*
X101614819Y-111928571D01*
X101614819Y-111928571D02*
X101662438Y-111833333D01*
X101662438Y-111833333D02*
X101710057Y-111785714D01*
X101710057Y-111785714D02*
X101805295Y-111738095D01*
X101805295Y-111738095D02*
X101900533Y-111738095D01*
X101900533Y-111738095D02*
X102043390Y-111785714D01*
X102043390Y-111785714D02*
X102614819Y-112357142D01*
X102614819Y-112357142D02*
X102614819Y-111738095D01*
X36238095Y-108456819D02*
X36809523Y-108456819D01*
X36523809Y-109456819D02*
X36523809Y-108456819D01*
X37142857Y-109456819D02*
X37142857Y-108456819D01*
X37142857Y-108456819D02*
X37523809Y-108456819D01*
X37523809Y-108456819D02*
X37619047Y-108504438D01*
X37619047Y-108504438D02*
X37666666Y-108552057D01*
X37666666Y-108552057D02*
X37714285Y-108647295D01*
X37714285Y-108647295D02*
X37714285Y-108790152D01*
X37714285Y-108790152D02*
X37666666Y-108885390D01*
X37666666Y-108885390D02*
X37619047Y-108933009D01*
X37619047Y-108933009D02*
X37523809Y-108980628D01*
X37523809Y-108980628D02*
X37142857Y-108980628D01*
X38571428Y-108790152D02*
X38571428Y-109456819D01*
X38333333Y-108409200D02*
X38095238Y-109123485D01*
X38095238Y-109123485D02*
X38714285Y-109123485D01*
X258488095Y-111706819D02*
X259059523Y-111706819D01*
X258773809Y-112706819D02*
X258773809Y-111706819D01*
X259392857Y-112706819D02*
X259392857Y-111706819D01*
X259392857Y-111706819D02*
X259773809Y-111706819D01*
X259773809Y-111706819D02*
X259869047Y-111754438D01*
X259869047Y-111754438D02*
X259916666Y-111802057D01*
X259916666Y-111802057D02*
X259964285Y-111897295D01*
X259964285Y-111897295D02*
X259964285Y-112040152D01*
X259964285Y-112040152D02*
X259916666Y-112135390D01*
X259916666Y-112135390D02*
X259869047Y-112183009D01*
X259869047Y-112183009D02*
X259773809Y-112230628D01*
X259773809Y-112230628D02*
X259392857Y-112230628D01*
X260916666Y-112706819D02*
X260345238Y-112706819D01*
X260630952Y-112706819D02*
X260630952Y-111706819D01*
X260630952Y-111706819D02*
X260535714Y-111849676D01*
X260535714Y-111849676D02*
X260440476Y-111944914D01*
X260440476Y-111944914D02*
X260345238Y-111992533D01*
X245940476Y-47533200D02*
X246083333Y-47580819D01*
X246083333Y-47580819D02*
X246321428Y-47580819D01*
X246321428Y-47580819D02*
X246416666Y-47533200D01*
X246416666Y-47533200D02*
X246464285Y-47485580D01*
X246464285Y-47485580D02*
X246511904Y-47390342D01*
X246511904Y-47390342D02*
X246511904Y-47295104D01*
X246511904Y-47295104D02*
X246464285Y-47199866D01*
X246464285Y-47199866D02*
X246416666Y-47152247D01*
X246416666Y-47152247D02*
X246321428Y-47104628D01*
X246321428Y-47104628D02*
X246130952Y-47057009D01*
X246130952Y-47057009D02*
X246035714Y-47009390D01*
X246035714Y-47009390D02*
X245988095Y-46961771D01*
X245988095Y-46961771D02*
X245940476Y-46866533D01*
X245940476Y-46866533D02*
X245940476Y-46771295D01*
X245940476Y-46771295D02*
X245988095Y-46676057D01*
X245988095Y-46676057D02*
X246035714Y-46628438D01*
X246035714Y-46628438D02*
X246130952Y-46580819D01*
X246130952Y-46580819D02*
X246369047Y-46580819D01*
X246369047Y-46580819D02*
X246511904Y-46628438D01*
X246845238Y-46580819D02*
X247083333Y-47580819D01*
X247083333Y-47580819D02*
X247273809Y-46866533D01*
X247273809Y-46866533D02*
X247464285Y-47580819D01*
X247464285Y-47580819D02*
X247702381Y-46580819D01*
X247988095Y-46580819D02*
X248607142Y-46580819D01*
X248607142Y-46580819D02*
X248273809Y-46961771D01*
X248273809Y-46961771D02*
X248416666Y-46961771D01*
X248416666Y-46961771D02*
X248511904Y-47009390D01*
X248511904Y-47009390D02*
X248559523Y-47057009D01*
X248559523Y-47057009D02*
X248607142Y-47152247D01*
X248607142Y-47152247D02*
X248607142Y-47390342D01*
X248607142Y-47390342D02*
X248559523Y-47485580D01*
X248559523Y-47485580D02*
X248511904Y-47533200D01*
X248511904Y-47533200D02*
X248416666Y-47580819D01*
X248416666Y-47580819D02*
X248130952Y-47580819D01*
X248130952Y-47580819D02*
X248035714Y-47533200D01*
X248035714Y-47533200D02*
X247988095Y-47485580D01*
X249511904Y-46580819D02*
X249035714Y-46580819D01*
X249035714Y-46580819D02*
X248988095Y-47057009D01*
X248988095Y-47057009D02*
X249035714Y-47009390D01*
X249035714Y-47009390D02*
X249130952Y-46961771D01*
X249130952Y-46961771D02*
X249369047Y-46961771D01*
X249369047Y-46961771D02*
X249464285Y-47009390D01*
X249464285Y-47009390D02*
X249511904Y-47057009D01*
X249511904Y-47057009D02*
X249559523Y-47152247D01*
X249559523Y-47152247D02*
X249559523Y-47390342D01*
X249559523Y-47390342D02*
X249511904Y-47485580D01*
X249511904Y-47485580D02*
X249464285Y-47533200D01*
X249464285Y-47533200D02*
X249369047Y-47580819D01*
X249369047Y-47580819D02*
X249130952Y-47580819D01*
X249130952Y-47580819D02*
X249035714Y-47533200D01*
X249035714Y-47533200D02*
X248988095Y-47485580D01*
X111270476Y-106533200D02*
X111413333Y-106580819D01*
X111413333Y-106580819D02*
X111651428Y-106580819D01*
X111651428Y-106580819D02*
X111746666Y-106533200D01*
X111746666Y-106533200D02*
X111794285Y-106485580D01*
X111794285Y-106485580D02*
X111841904Y-106390342D01*
X111841904Y-106390342D02*
X111841904Y-106295104D01*
X111841904Y-106295104D02*
X111794285Y-106199866D01*
X111794285Y-106199866D02*
X111746666Y-106152247D01*
X111746666Y-106152247D02*
X111651428Y-106104628D01*
X111651428Y-106104628D02*
X111460952Y-106057009D01*
X111460952Y-106057009D02*
X111365714Y-106009390D01*
X111365714Y-106009390D02*
X111318095Y-105961771D01*
X111318095Y-105961771D02*
X111270476Y-105866533D01*
X111270476Y-105866533D02*
X111270476Y-105771295D01*
X111270476Y-105771295D02*
X111318095Y-105676057D01*
X111318095Y-105676057D02*
X111365714Y-105628438D01*
X111365714Y-105628438D02*
X111460952Y-105580819D01*
X111460952Y-105580819D02*
X111699047Y-105580819D01*
X111699047Y-105580819D02*
X111841904Y-105628438D01*
X112175238Y-105580819D02*
X112413333Y-106580819D01*
X112413333Y-106580819D02*
X112603809Y-105866533D01*
X112603809Y-105866533D02*
X112794285Y-106580819D01*
X112794285Y-106580819D02*
X113032381Y-105580819D01*
X113318095Y-105580819D02*
X113937142Y-105580819D01*
X113937142Y-105580819D02*
X113603809Y-105961771D01*
X113603809Y-105961771D02*
X113746666Y-105961771D01*
X113746666Y-105961771D02*
X113841904Y-106009390D01*
X113841904Y-106009390D02*
X113889523Y-106057009D01*
X113889523Y-106057009D02*
X113937142Y-106152247D01*
X113937142Y-106152247D02*
X113937142Y-106390342D01*
X113937142Y-106390342D02*
X113889523Y-106485580D01*
X113889523Y-106485580D02*
X113841904Y-106533200D01*
X113841904Y-106533200D02*
X113746666Y-106580819D01*
X113746666Y-106580819D02*
X113460952Y-106580819D01*
X113460952Y-106580819D02*
X113365714Y-106533200D01*
X113365714Y-106533200D02*
X113318095Y-106485580D01*
X114318095Y-105676057D02*
X114365714Y-105628438D01*
X114365714Y-105628438D02*
X114460952Y-105580819D01*
X114460952Y-105580819D02*
X114699047Y-105580819D01*
X114699047Y-105580819D02*
X114794285Y-105628438D01*
X114794285Y-105628438D02*
X114841904Y-105676057D01*
X114841904Y-105676057D02*
X114889523Y-105771295D01*
X114889523Y-105771295D02*
X114889523Y-105866533D01*
X114889523Y-105866533D02*
X114841904Y-106009390D01*
X114841904Y-106009390D02*
X114270476Y-106580819D01*
X114270476Y-106580819D02*
X114889523Y-106580819D01*
X193214819Y-47214285D02*
X192214819Y-47214285D01*
X192214819Y-47214285D02*
X192214819Y-46976190D01*
X192214819Y-46976190D02*
X192262438Y-46833333D01*
X192262438Y-46833333D02*
X192357676Y-46738095D01*
X192357676Y-46738095D02*
X192452914Y-46690476D01*
X192452914Y-46690476D02*
X192643390Y-46642857D01*
X192643390Y-46642857D02*
X192786247Y-46642857D01*
X192786247Y-46642857D02*
X192976723Y-46690476D01*
X192976723Y-46690476D02*
X193071961Y-46738095D01*
X193071961Y-46738095D02*
X193167200Y-46833333D01*
X193167200Y-46833333D02*
X193214819Y-46976190D01*
X193214819Y-46976190D02*
X193214819Y-47214285D01*
X193214819Y-45690476D02*
X193214819Y-46261904D01*
X193214819Y-45976190D02*
X192214819Y-45976190D01*
X192214819Y-45976190D02*
X192357676Y-46071428D01*
X192357676Y-46071428D02*
X192452914Y-46166666D01*
X192452914Y-46166666D02*
X192500533Y-46261904D01*
X193214819Y-45214285D02*
X193214819Y-45023809D01*
X193214819Y-45023809D02*
X193167200Y-44928571D01*
X193167200Y-44928571D02*
X193119580Y-44880952D01*
X193119580Y-44880952D02*
X192976723Y-44785714D01*
X192976723Y-44785714D02*
X192786247Y-44738095D01*
X192786247Y-44738095D02*
X192405295Y-44738095D01*
X192405295Y-44738095D02*
X192310057Y-44785714D01*
X192310057Y-44785714D02*
X192262438Y-44833333D01*
X192262438Y-44833333D02*
X192214819Y-44928571D01*
X192214819Y-44928571D02*
X192214819Y-45119047D01*
X192214819Y-45119047D02*
X192262438Y-45214285D01*
X192262438Y-45214285D02*
X192310057Y-45261904D01*
X192310057Y-45261904D02*
X192405295Y-45309523D01*
X192405295Y-45309523D02*
X192643390Y-45309523D01*
X192643390Y-45309523D02*
X192738628Y-45261904D01*
X192738628Y-45261904D02*
X192786247Y-45214285D01*
X192786247Y-45214285D02*
X192833866Y-45119047D01*
X192833866Y-45119047D02*
X192833866Y-44928571D01*
X192833866Y-44928571D02*
X192786247Y-44833333D01*
X192786247Y-44833333D02*
X192738628Y-44785714D01*
X192738628Y-44785714D02*
X192643390Y-44738095D01*
X60364819Y-72214285D02*
X59364819Y-72214285D01*
X59364819Y-72214285D02*
X59364819Y-71976190D01*
X59364819Y-71976190D02*
X59412438Y-71833333D01*
X59412438Y-71833333D02*
X59507676Y-71738095D01*
X59507676Y-71738095D02*
X59602914Y-71690476D01*
X59602914Y-71690476D02*
X59793390Y-71642857D01*
X59793390Y-71642857D02*
X59936247Y-71642857D01*
X59936247Y-71642857D02*
X60126723Y-71690476D01*
X60126723Y-71690476D02*
X60221961Y-71738095D01*
X60221961Y-71738095D02*
X60317200Y-71833333D01*
X60317200Y-71833333D02*
X60364819Y-71976190D01*
X60364819Y-71976190D02*
X60364819Y-72214285D01*
X60364819Y-70690476D02*
X60364819Y-71261904D01*
X60364819Y-70976190D02*
X59364819Y-70976190D01*
X59364819Y-70976190D02*
X59507676Y-71071428D01*
X59507676Y-71071428D02*
X59602914Y-71166666D01*
X59602914Y-71166666D02*
X59650533Y-71261904D01*
X59460057Y-70309523D02*
X59412438Y-70261904D01*
X59412438Y-70261904D02*
X59364819Y-70166666D01*
X59364819Y-70166666D02*
X59364819Y-69928571D01*
X59364819Y-69928571D02*
X59412438Y-69833333D01*
X59412438Y-69833333D02*
X59460057Y-69785714D01*
X59460057Y-69785714D02*
X59555295Y-69738095D01*
X59555295Y-69738095D02*
X59650533Y-69738095D01*
X59650533Y-69738095D02*
X59793390Y-69785714D01*
X59793390Y-69785714D02*
X60364819Y-70357142D01*
X60364819Y-70357142D02*
X60364819Y-69738095D01*
X81364819Y-89214285D02*
X80364819Y-89214285D01*
X80364819Y-89214285D02*
X80364819Y-88976190D01*
X80364819Y-88976190D02*
X80412438Y-88833333D01*
X80412438Y-88833333D02*
X80507676Y-88738095D01*
X80507676Y-88738095D02*
X80602914Y-88690476D01*
X80602914Y-88690476D02*
X80793390Y-88642857D01*
X80793390Y-88642857D02*
X80936247Y-88642857D01*
X80936247Y-88642857D02*
X81126723Y-88690476D01*
X81126723Y-88690476D02*
X81221961Y-88738095D01*
X81221961Y-88738095D02*
X81317200Y-88833333D01*
X81317200Y-88833333D02*
X81364819Y-88976190D01*
X81364819Y-88976190D02*
X81364819Y-89214285D01*
X80460057Y-88261904D02*
X80412438Y-88214285D01*
X80412438Y-88214285D02*
X80364819Y-88119047D01*
X80364819Y-88119047D02*
X80364819Y-87880952D01*
X80364819Y-87880952D02*
X80412438Y-87785714D01*
X80412438Y-87785714D02*
X80460057Y-87738095D01*
X80460057Y-87738095D02*
X80555295Y-87690476D01*
X80555295Y-87690476D02*
X80650533Y-87690476D01*
X80650533Y-87690476D02*
X80793390Y-87738095D01*
X80793390Y-87738095D02*
X81364819Y-88309523D01*
X81364819Y-88309523D02*
X81364819Y-87690476D01*
X80460057Y-87309523D02*
X80412438Y-87261904D01*
X80412438Y-87261904D02*
X80364819Y-87166666D01*
X80364819Y-87166666D02*
X80364819Y-86928571D01*
X80364819Y-86928571D02*
X80412438Y-86833333D01*
X80412438Y-86833333D02*
X80460057Y-86785714D01*
X80460057Y-86785714D02*
X80555295Y-86738095D01*
X80555295Y-86738095D02*
X80650533Y-86738095D01*
X80650533Y-86738095D02*
X80793390Y-86785714D01*
X80793390Y-86785714D02*
X81364819Y-87357142D01*
X81364819Y-87357142D02*
X81364819Y-86738095D01*
X125454819Y-93214285D02*
X124454819Y-93214285D01*
X124454819Y-93214285D02*
X124454819Y-92976190D01*
X124454819Y-92976190D02*
X124502438Y-92833333D01*
X124502438Y-92833333D02*
X124597676Y-92738095D01*
X124597676Y-92738095D02*
X124692914Y-92690476D01*
X124692914Y-92690476D02*
X124883390Y-92642857D01*
X124883390Y-92642857D02*
X125026247Y-92642857D01*
X125026247Y-92642857D02*
X125216723Y-92690476D01*
X125216723Y-92690476D02*
X125311961Y-92738095D01*
X125311961Y-92738095D02*
X125407200Y-92833333D01*
X125407200Y-92833333D02*
X125454819Y-92976190D01*
X125454819Y-92976190D02*
X125454819Y-93214285D01*
X124454819Y-92309523D02*
X124454819Y-91690476D01*
X124454819Y-91690476D02*
X124835771Y-92023809D01*
X124835771Y-92023809D02*
X124835771Y-91880952D01*
X124835771Y-91880952D02*
X124883390Y-91785714D01*
X124883390Y-91785714D02*
X124931009Y-91738095D01*
X124931009Y-91738095D02*
X125026247Y-91690476D01*
X125026247Y-91690476D02*
X125264342Y-91690476D01*
X125264342Y-91690476D02*
X125359580Y-91738095D01*
X125359580Y-91738095D02*
X125407200Y-91785714D01*
X125407200Y-91785714D02*
X125454819Y-91880952D01*
X125454819Y-91880952D02*
X125454819Y-92166666D01*
X125454819Y-92166666D02*
X125407200Y-92261904D01*
X125407200Y-92261904D02*
X125359580Y-92309523D01*
X124883390Y-91119047D02*
X124835771Y-91214285D01*
X124835771Y-91214285D02*
X124788152Y-91261904D01*
X124788152Y-91261904D02*
X124692914Y-91309523D01*
X124692914Y-91309523D02*
X124645295Y-91309523D01*
X124645295Y-91309523D02*
X124550057Y-91261904D01*
X124550057Y-91261904D02*
X124502438Y-91214285D01*
X124502438Y-91214285D02*
X124454819Y-91119047D01*
X124454819Y-91119047D02*
X124454819Y-90928571D01*
X124454819Y-90928571D02*
X124502438Y-90833333D01*
X124502438Y-90833333D02*
X124550057Y-90785714D01*
X124550057Y-90785714D02*
X124645295Y-90738095D01*
X124645295Y-90738095D02*
X124692914Y-90738095D01*
X124692914Y-90738095D02*
X124788152Y-90785714D01*
X124788152Y-90785714D02*
X124835771Y-90833333D01*
X124835771Y-90833333D02*
X124883390Y-90928571D01*
X124883390Y-90928571D02*
X124883390Y-91119047D01*
X124883390Y-91119047D02*
X124931009Y-91214285D01*
X124931009Y-91214285D02*
X124978628Y-91261904D01*
X124978628Y-91261904D02*
X125073866Y-91309523D01*
X125073866Y-91309523D02*
X125264342Y-91309523D01*
X125264342Y-91309523D02*
X125359580Y-91261904D01*
X125359580Y-91261904D02*
X125407200Y-91214285D01*
X125407200Y-91214285D02*
X125454819Y-91119047D01*
X125454819Y-91119047D02*
X125454819Y-90928571D01*
X125454819Y-90928571D02*
X125407200Y-90833333D01*
X125407200Y-90833333D02*
X125359580Y-90785714D01*
X125359580Y-90785714D02*
X125264342Y-90738095D01*
X125264342Y-90738095D02*
X125073866Y-90738095D01*
X125073866Y-90738095D02*
X124978628Y-90785714D01*
X124978628Y-90785714D02*
X124931009Y-90833333D01*
X124931009Y-90833333D02*
X124883390Y-90928571D01*
D12*
%TO.C,SW20*%
X84925000Y-61015000D02*
X98895000Y-61015000D01*
X84925000Y-74985000D02*
X84925000Y-61015000D01*
X98895000Y-61015000D02*
X98895000Y-74985000D01*
X98895000Y-74985000D02*
X84925000Y-74985000D01*
%TO.C,SW36*%
X128935000Y-69015000D02*
X142905000Y-69015000D01*
X128935000Y-82985000D02*
X128935000Y-69015000D01*
X142905000Y-69015000D02*
X142905000Y-82985000D01*
X142905000Y-82985000D02*
X128935000Y-82985000D01*
%TO.C,D14*%
X60910000Y-94360000D02*
X60910000Y-90350000D01*
X60910000Y-94360000D02*
X62910000Y-94360000D01*
X62910000Y-94360000D02*
X62910000Y-90350000D01*
%TO.C,SW42*%
X21765000Y-124015000D02*
X35735000Y-124015000D01*
X21765000Y-137985000D02*
X21765000Y-124015000D01*
X35735000Y-124015000D02*
X35735000Y-137985000D01*
X35735000Y-137985000D02*
X21765000Y-137985000D01*
%TO.C,SW37*%
X240765000Y-69015000D02*
X254735000Y-69015000D01*
X240765000Y-82985000D02*
X240765000Y-69015000D01*
X254735000Y-69015000D02*
X254735000Y-82985000D01*
X254735000Y-82985000D02*
X240765000Y-82985000D01*
%TO.C,D18*%
X81910000Y-48360000D02*
X81910000Y-44350000D01*
X81910000Y-48360000D02*
X83910000Y-48360000D01*
X83910000Y-48360000D02*
X83910000Y-44350000D01*
%TO.C,SW40*%
X128935000Y-111015000D02*
X142905000Y-111015000D01*
X128935000Y-124985000D02*
X128935000Y-111015000D01*
X142905000Y-111015000D02*
X142905000Y-124985000D01*
X142905000Y-124985000D02*
X128935000Y-124985000D01*
%TO.C,D26*%
X103160000Y-52360000D02*
X103160000Y-48350000D01*
X103160000Y-52360000D02*
X105160000Y-52360000D01*
X105160000Y-52360000D02*
X105160000Y-48350000D01*
D13*
%TO.C,B2*%
X146170000Y-122000000D02*
G75*
G02*
X151170000Y-122000000I2500000J0D01*
G01*
X151170000Y-112000000D02*
G75*
G02*
X146170000Y-112000000I-2500000J0D01*
G01*
D12*
%TO.C,R4*%
X27110436Y-93515000D02*
X27564564Y-93515000D01*
X27110436Y-94985000D02*
X27564564Y-94985000D01*
%TO.C,D11*%
X172920000Y-52360000D02*
X172920000Y-48350000D01*
X172920000Y-52360000D02*
X174920000Y-52360000D01*
X174920000Y-52360000D02*
X174920000Y-48350000D01*
%TO.C,SW38*%
X128935000Y-90015000D02*
X142905000Y-90015000D01*
X128935000Y-103985000D02*
X128935000Y-90015000D01*
X142905000Y-90015000D02*
X142905000Y-103985000D01*
X142905000Y-103985000D02*
X128935000Y-103985000D01*
%TO.C,SW27*%
X219685000Y-44015000D02*
X233655000Y-44015000D01*
X219685000Y-57985000D02*
X219685000Y-44015000D01*
X233655000Y-44015000D02*
X233655000Y-57985000D01*
X233655000Y-57985000D02*
X219685000Y-57985000D01*
%TO.C,SW6*%
X42845000Y-90015000D02*
X56815000Y-90015000D01*
X42845000Y-103985000D02*
X42845000Y-90015000D01*
X56815000Y-90015000D02*
X56815000Y-103985000D01*
X56815000Y-103985000D02*
X42845000Y-103985000D01*
%TO.C,SW12*%
X63845000Y-65015000D02*
X77815000Y-65015000D01*
X63845000Y-78985000D02*
X63845000Y-65015000D01*
X77815000Y-65015000D02*
X77815000Y-78985000D01*
X77815000Y-78985000D02*
X63845000Y-78985000D01*
%TO.C,D8*%
X39910000Y-119360000D02*
X39910000Y-115350000D01*
X39910000Y-119360000D02*
X41910000Y-119360000D01*
X41910000Y-119360000D02*
X41910000Y-115350000D01*
%TO.C,D6*%
X39910000Y-98360000D02*
X39910000Y-94350000D01*
X39910000Y-98360000D02*
X41910000Y-98360000D01*
X41910000Y-98360000D02*
X41910000Y-94350000D01*
%TO.C,D40*%
X126000000Y-119360000D02*
X126000000Y-115350000D01*
X126000000Y-119360000D02*
X128000000Y-119360000D01*
X128000000Y-119360000D02*
X128000000Y-115350000D01*
%TO.C,D41*%
X237750000Y-119360000D02*
X237750000Y-115350000D01*
X237750000Y-119360000D02*
X239750000Y-119360000D01*
X239750000Y-119360000D02*
X239750000Y-115350000D01*
%TO.C,R2*%
X18360436Y-93515000D02*
X18814564Y-93515000D01*
X18360436Y-94985000D02*
X18814564Y-94985000D01*
%TO.C,D4*%
X39910000Y-77360000D02*
X39910000Y-73350000D01*
X39910000Y-77360000D02*
X41910000Y-77360000D01*
X41910000Y-77360000D02*
X41910000Y-73350000D01*
%TO.C,SW8*%
X42845000Y-111015000D02*
X56815000Y-111015000D01*
X42845000Y-124985000D02*
X42845000Y-111015000D01*
X56815000Y-111015000D02*
X56815000Y-124985000D01*
X56815000Y-124985000D02*
X42845000Y-124985000D01*
%TO.C,D39*%
X237750000Y-98360000D02*
X237750000Y-94350000D01*
X237750000Y-98360000D02*
X239750000Y-98360000D01*
X239750000Y-98360000D02*
X239750000Y-94350000D01*
%TO.C,SW14*%
X63845000Y-86015000D02*
X77815000Y-86015000D01*
X63845000Y-99985000D02*
X63845000Y-86015000D01*
X77815000Y-86015000D02*
X77815000Y-99985000D01*
X77815000Y-99985000D02*
X63845000Y-99985000D01*
%TO.C,SW17*%
X175935000Y-107015000D02*
X189905000Y-107015000D01*
X175935000Y-120985000D02*
X175935000Y-107015000D01*
X189905000Y-107015000D02*
X189905000Y-120985000D01*
X189905000Y-120985000D02*
X175935000Y-120985000D01*
%TO.C,D34*%
X125000000Y-52360000D02*
X125000000Y-48350000D01*
X125000000Y-52360000D02*
X127000000Y-52360000D01*
X127000000Y-52360000D02*
X127000000Y-48350000D01*
%TO.C,TP2*%
X38950000Y-102250000D02*
G75*
G02*
X36550000Y-102250000I-1200000J0D01*
G01*
X36550000Y-102250000D02*
G75*
G02*
X38950000Y-102250000I1200000J0D01*
G01*
%TO.C,D33*%
X216670000Y-115360000D02*
X216670000Y-111350000D01*
X216670000Y-115360000D02*
X218670000Y-115360000D01*
X218670000Y-115360000D02*
X218670000Y-111350000D01*
%TO.C,D17*%
X172920000Y-115360000D02*
X172920000Y-111350000D01*
X172920000Y-115360000D02*
X174920000Y-115360000D01*
X174920000Y-115360000D02*
X174920000Y-111350000D01*
%TO.C,SW25*%
X198685000Y-103015000D02*
X212655000Y-103015000D01*
X198685000Y-116985000D02*
X198685000Y-103015000D01*
X212655000Y-103015000D02*
X212655000Y-116985000D01*
X212655000Y-116985000D02*
X198685000Y-116985000D01*
%TO.C,SW13*%
X175935000Y-65015000D02*
X189905000Y-65015000D01*
X175935000Y-78985000D02*
X175935000Y-65015000D01*
X189905000Y-65015000D02*
X189905000Y-78985000D01*
X189905000Y-78985000D02*
X175935000Y-78985000D01*
D13*
%TO.C,U1*%
X262303500Y-102495000D02*
X262303500Y-116465000D01*
X264208500Y-100590000D02*
X281353500Y-100590000D01*
X264208500Y-118370000D02*
X281353500Y-118370000D01*
D14*
X283258500Y-104985000D02*
X284268772Y-104988728D01*
D13*
X283258500Y-116465000D02*
X283258500Y-102495000D01*
D14*
X284268500Y-113984000D02*
X283258500Y-113984000D01*
X284768500Y-105488728D02*
X284768500Y-113484000D01*
D13*
X262303500Y-102495000D02*
G75*
G02*
X264208500Y-100590000I1905001J-1D01*
G01*
X264208500Y-118370000D02*
G75*
G02*
X262303500Y-116465000I0J1905000D01*
G01*
X281357500Y-100590000D02*
G75*
G02*
X283262500Y-102495000I-1J-1905001D01*
G01*
X283258500Y-116465000D02*
G75*
G02*
X281353500Y-118370000I-1905050J50D01*
G01*
D14*
X284268772Y-104988728D02*
G75*
G02*
X284768499Y-105488728I-291J-500018D01*
G01*
X284768500Y-113484000D02*
G75*
G02*
X284268500Y-113984000I-500100J100D01*
G01*
D15*
X282377500Y-101654000D02*
G75*
G02*
X281873500Y-101654000I-252000J0D01*
G01*
X281873500Y-101654000D02*
G75*
G02*
X282377500Y-101654000I252000J0D01*
G01*
X283094500Y-100380000D02*
G75*
G02*
X282590500Y-100380000I-252000J0D01*
G01*
X282590500Y-100380000D02*
G75*
G02*
X283094500Y-100380000I252000J0D01*
G01*
D12*
%TO.C,D7*%
X152000000Y-98360000D02*
X152000000Y-94350000D01*
X152000000Y-98360000D02*
X154000000Y-98360000D01*
X154000000Y-98360000D02*
X154000000Y-94350000D01*
%TO.C,SW16*%
X63925000Y-107015000D02*
X77895000Y-107015000D01*
X63925000Y-120985000D02*
X63925000Y-107015000D01*
X77895000Y-107015000D02*
X77895000Y-120985000D01*
X77895000Y-120985000D02*
X63925000Y-120985000D01*
%TO.C,SW28*%
X106175000Y-65015000D02*
X120145000Y-65015000D01*
X106175000Y-78985000D02*
X106175000Y-65015000D01*
X120145000Y-65015000D02*
X120145000Y-78985000D01*
X120145000Y-78985000D02*
X106175000Y-78985000D01*
%TO.C,SW24*%
X84845000Y-103015000D02*
X98815000Y-103015000D01*
X84845000Y-116985000D02*
X84845000Y-103015000D01*
X98815000Y-103015000D02*
X98815000Y-116985000D01*
X98815000Y-116985000D02*
X84845000Y-116985000D01*
%TO.C,SW22*%
X84845000Y-82015000D02*
X98815000Y-82015000D01*
X84845000Y-95985000D02*
X84845000Y-82015000D01*
X98815000Y-82015000D02*
X98815000Y-95985000D01*
X98815000Y-95985000D02*
X84845000Y-95985000D01*
%TO.C,D16*%
X60910000Y-115360000D02*
X60910000Y-111350000D01*
X60910000Y-115360000D02*
X62910000Y-115360000D01*
X62910000Y-115360000D02*
X62910000Y-111350000D01*
%TO.C,R1*%
X268272936Y-93765000D02*
X268727064Y-93765000D01*
X268272936Y-95235000D02*
X268727064Y-95235000D01*
%TO.C,D27*%
X216670000Y-52360000D02*
X216670000Y-48350000D01*
X216670000Y-52360000D02*
X218670000Y-52360000D01*
X218670000Y-52360000D02*
X218670000Y-48350000D01*
D14*
%TO.C,U2*%
X12191500Y-112221272D02*
X12191500Y-104226000D01*
X12691500Y-103726000D02*
X13701500Y-103726000D01*
D13*
X13701500Y-101245000D02*
X13701500Y-115215000D01*
D14*
X13701500Y-112725000D02*
X12691228Y-112721272D01*
D13*
X32751500Y-99340000D02*
X15606500Y-99340000D01*
X32751500Y-117120000D02*
X15606500Y-117120000D01*
X34656500Y-115215000D02*
X34656500Y-101245000D01*
D14*
X12191500Y-104226000D02*
G75*
G02*
X12691500Y-103726000I500100J-100D01*
G01*
X12691228Y-112721272D02*
G75*
G02*
X12191501Y-112221272I291J500018D01*
G01*
D13*
X13701500Y-101245000D02*
G75*
G02*
X15606500Y-99340000I1905050J-50D01*
G01*
X15602500Y-117120000D02*
G75*
G02*
X13697500Y-115215000I1J1905001D01*
G01*
X32751500Y-99340000D02*
G75*
G02*
X34656500Y-101245000I0J-1905000D01*
G01*
X34656500Y-115215000D02*
G75*
G02*
X32751500Y-117120000I-1905001J1D01*
G01*
D15*
X14369500Y-117330000D02*
G75*
G02*
X13865500Y-117330000I-252000J0D01*
G01*
X13865500Y-117330000D02*
G75*
G02*
X14369500Y-117330000I252000J0D01*
G01*
X15086500Y-116056000D02*
G75*
G02*
X14582500Y-116056000I-252000J0D01*
G01*
X14582500Y-116056000D02*
G75*
G02*
X15086500Y-116056000I252000J0D01*
G01*
D12*
%TO.C,D20*%
X81910000Y-69360000D02*
X81910000Y-65350000D01*
X81910000Y-69360000D02*
X83910000Y-69360000D01*
X83910000Y-69360000D02*
X83910000Y-65350000D01*
%TO.C,D10*%
X60910000Y-52360000D02*
X60910000Y-48350000D01*
X60910000Y-52360000D02*
X62910000Y-52360000D01*
X62910000Y-52360000D02*
X62910000Y-48350000D01*
%TO.C,D13*%
X172920000Y-73360000D02*
X172920000Y-69350000D01*
X172920000Y-73360000D02*
X174920000Y-73360000D01*
X174920000Y-73360000D02*
X174920000Y-69350000D01*
%TO.C,SW15*%
X175935000Y-86015000D02*
X189905000Y-86015000D01*
X175935000Y-99985000D02*
X175935000Y-86015000D01*
X189905000Y-86015000D02*
X189905000Y-99985000D01*
X189905000Y-99985000D02*
X175935000Y-99985000D01*
%TO.C,D1*%
X257750000Y-132360000D02*
X257750000Y-128350000D01*
X257750000Y-132360000D02*
X259750000Y-132360000D01*
X259750000Y-132360000D02*
X259750000Y-128350000D01*
%TO.C,SW4*%
X42925000Y-69015000D02*
X56895000Y-69015000D01*
X42925000Y-82985000D02*
X42925000Y-69015000D01*
X56895000Y-69015000D02*
X56895000Y-82985000D01*
X56895000Y-82985000D02*
X42925000Y-82985000D01*
%TO.C,D25*%
X195590000Y-111360000D02*
X195590000Y-107350000D01*
X195590000Y-111360000D02*
X197590000Y-111360000D01*
X197590000Y-111360000D02*
X197590000Y-107350000D01*
%TO.C,D42*%
X18830000Y-132360000D02*
X18830000Y-128350000D01*
X18830000Y-132360000D02*
X20830000Y-132360000D01*
X20830000Y-132360000D02*
X20830000Y-128350000D01*
%TO.C,SW11*%
X175935000Y-44015000D02*
X189905000Y-44015000D01*
X175935000Y-57985000D02*
X175935000Y-44015000D01*
X189905000Y-44015000D02*
X189905000Y-57985000D01*
X189905000Y-57985000D02*
X175935000Y-57985000D01*
%TO.C,D35*%
X237750000Y-56360000D02*
X237750000Y-52350000D01*
X237750000Y-56360000D02*
X239750000Y-56360000D01*
X239750000Y-56360000D02*
X239750000Y-52350000D01*
%TO.C,R3*%
X278935436Y-93765000D02*
X279389564Y-93765000D01*
X278935436Y-95235000D02*
X279389564Y-95235000D01*
%TO.C,D5*%
X152000000Y-77360000D02*
X152000000Y-73350000D01*
X152000000Y-77360000D02*
X154000000Y-77360000D01*
X154000000Y-77360000D02*
X154000000Y-73350000D01*
%TO.C,SW33*%
X219765000Y-107015000D02*
X233735000Y-107015000D01*
X219765000Y-120985000D02*
X219765000Y-107015000D01*
X233735000Y-107015000D02*
X233735000Y-120985000D01*
X233735000Y-120985000D02*
X219765000Y-120985000D01*
%TO.C,D37*%
X237750000Y-77360000D02*
X237750000Y-73350000D01*
X237750000Y-77360000D02*
X239750000Y-77360000D01*
X239750000Y-77360000D02*
X239750000Y-73350000D01*
%TO.C,D36*%
X126000000Y-77360000D02*
X126000000Y-73350000D01*
X126000000Y-77360000D02*
X128000000Y-77360000D01*
X128000000Y-77360000D02*
X128000000Y-73350000D01*
D13*
%TO.C,B1*%
X146170000Y-92000000D02*
G75*
G02*
X151170000Y-92000000I2500000J0D01*
G01*
X151170000Y-82000000D02*
G75*
G02*
X146170000Y-82000000I-2500000J0D01*
G01*
D12*
%TO.C,D30*%
X103160000Y-94360000D02*
X103160000Y-90350000D01*
X103160000Y-94360000D02*
X105160000Y-94360000D01*
X105160000Y-94360000D02*
X105160000Y-90350000D01*
%TO.C,SW23*%
X198605000Y-82015000D02*
X212575000Y-82015000D01*
X198605000Y-95985000D02*
X198605000Y-82015000D01*
X212575000Y-82015000D02*
X212575000Y-95985000D01*
X212575000Y-95985000D02*
X198605000Y-95985000D01*
%TO.C,SW5*%
X155015000Y-69015000D02*
X168985000Y-69015000D01*
X155015000Y-82985000D02*
X155015000Y-69015000D01*
X168985000Y-69015000D02*
X168985000Y-82985000D01*
X168985000Y-82985000D02*
X155015000Y-82985000D01*
%TO.C,SW3*%
X155015000Y-48015000D02*
X168985000Y-48015000D01*
X155015000Y-61985000D02*
X155015000Y-48015000D01*
X168985000Y-48015000D02*
X168985000Y-61985000D01*
X168985000Y-61985000D02*
X155015000Y-61985000D01*
%TO.C,D23*%
X195590000Y-90360000D02*
X195590000Y-86350000D01*
X195590000Y-90360000D02*
X197590000Y-90360000D01*
X197590000Y-90360000D02*
X197590000Y-86350000D01*
%TO.C,D31*%
X216670000Y-94360000D02*
X216670000Y-90350000D01*
X216670000Y-94360000D02*
X218670000Y-94360000D01*
X218670000Y-94360000D02*
X218670000Y-90350000D01*
%TO.C,SW18*%
X84845000Y-40015000D02*
X98815000Y-40015000D01*
X84845000Y-53985000D02*
X84845000Y-40015000D01*
X98815000Y-40015000D02*
X98815000Y-53985000D01*
X98815000Y-53985000D02*
X84845000Y-53985000D01*
%TO.C,SW1*%
X261765000Y-124015000D02*
X275735000Y-124015000D01*
X261765000Y-137985000D02*
X261765000Y-124015000D01*
X275735000Y-124015000D02*
X275735000Y-137985000D01*
X275735000Y-137985000D02*
X261765000Y-137985000D01*
%TO.C,D29*%
X216670000Y-73360000D02*
X216670000Y-69350000D01*
X216670000Y-73360000D02*
X218670000Y-73360000D01*
X218670000Y-73360000D02*
X218670000Y-69350000D01*
%TO.C,SW34*%
X128935000Y-48015000D02*
X142905000Y-48015000D01*
X128935000Y-61985000D02*
X128935000Y-48015000D01*
X142905000Y-48015000D02*
X142905000Y-61985000D01*
X142905000Y-61985000D02*
X128935000Y-61985000D01*
%TO.C,SW2*%
X42845000Y-48015000D02*
X56815000Y-48015000D01*
X42845000Y-61985000D02*
X42845000Y-48015000D01*
X56815000Y-48015000D02*
X56815000Y-61985000D01*
X56815000Y-61985000D02*
X42845000Y-61985000D01*
%TO.C,SW41*%
X240765000Y-111015000D02*
X254735000Y-111015000D01*
X240765000Y-124985000D02*
X240765000Y-111015000D01*
X254735000Y-111015000D02*
X254735000Y-124985000D01*
X254735000Y-124985000D02*
X240765000Y-124985000D01*
%TO.C,D28*%
X103160000Y-73360000D02*
X103160000Y-69350000D01*
X103160000Y-73360000D02*
X105160000Y-73360000D01*
X105160000Y-73360000D02*
X105160000Y-69350000D01*
%TO.C,D2*%
X39910000Y-56360000D02*
X39910000Y-52350000D01*
X39910000Y-56360000D02*
X41910000Y-56360000D01*
X41910000Y-56360000D02*
X41910000Y-52350000D01*
%TO.C,SW9*%
X155015000Y-111015000D02*
X168985000Y-111015000D01*
X155015000Y-124985000D02*
X155015000Y-111015000D01*
X168985000Y-111015000D02*
X168985000Y-124985000D01*
X168985000Y-124985000D02*
X155015000Y-124985000D01*
%TO.C,SW29*%
X219685000Y-65015000D02*
X233655000Y-65015000D01*
X219685000Y-78985000D02*
X219685000Y-65015000D01*
X233655000Y-65015000D02*
X233655000Y-78985000D01*
X233655000Y-78985000D02*
X219685000Y-78985000D01*
%TO.C,SW10*%
X63925000Y-44015000D02*
X77895000Y-44015000D01*
X63925000Y-57985000D02*
X63925000Y-44015000D01*
X77895000Y-44015000D02*
X77895000Y-57985000D01*
X77895000Y-57985000D02*
X63925000Y-57985000D01*
%TO.C,SW30*%
X106095000Y-86015000D02*
X120065000Y-86015000D01*
X106095000Y-99985000D02*
X106095000Y-86015000D01*
X120065000Y-86015000D02*
X120065000Y-99985000D01*
X120065000Y-99985000D02*
X106095000Y-99985000D01*
%TO.C,SW39*%
X240765000Y-90015000D02*
X254735000Y-90015000D01*
X240765000Y-103985000D02*
X240765000Y-90015000D01*
X254735000Y-90015000D02*
X254735000Y-103985000D01*
X254735000Y-103985000D02*
X240765000Y-103985000D01*
%TO.C,SW26*%
X106095000Y-44015000D02*
X120065000Y-44015000D01*
X106095000Y-57985000D02*
X106095000Y-44015000D01*
X120065000Y-44015000D02*
X120065000Y-57985000D01*
X120065000Y-57985000D02*
X106095000Y-57985000D01*
%TO.C,D9*%
X152000000Y-119360000D02*
X152000000Y-115350000D01*
X152000000Y-119360000D02*
X154000000Y-119360000D01*
X154000000Y-119360000D02*
X154000000Y-115350000D01*
%TO.C,D3*%
X152000000Y-56360000D02*
X152000000Y-52350000D01*
X152000000Y-56360000D02*
X154000000Y-56360000D01*
X154000000Y-56360000D02*
X154000000Y-52350000D01*
%TO.C,TP3*%
X260700000Y-104750000D02*
G75*
G02*
X258300000Y-104750000I-1200000J0D01*
G01*
X258300000Y-104750000D02*
G75*
G02*
X260700000Y-104750000I1200000J0D01*
G01*
%TO.C,D24*%
X81910000Y-111360000D02*
X81910000Y-107350000D01*
X81910000Y-111360000D02*
X83910000Y-111360000D01*
X83910000Y-111360000D02*
X83910000Y-107350000D01*
%TO.C,SW7*%
X155015000Y-90015000D02*
X168985000Y-90015000D01*
X155015000Y-103985000D02*
X155015000Y-90015000D01*
X168985000Y-90015000D02*
X168985000Y-103985000D01*
X168985000Y-103985000D02*
X155015000Y-103985000D01*
%TO.C,SW21*%
X198605000Y-61015000D02*
X212575000Y-61015000D01*
X198605000Y-74985000D02*
X198605000Y-61015000D01*
X212575000Y-61015000D02*
X212575000Y-74985000D01*
X212575000Y-74985000D02*
X198605000Y-74985000D01*
%TO.C,SW19*%
X198605000Y-40015000D02*
X212575000Y-40015000D01*
X198605000Y-53985000D02*
X198605000Y-40015000D01*
X212575000Y-40015000D02*
X212575000Y-53985000D01*
X212575000Y-53985000D02*
X198605000Y-53985000D01*
D13*
%TO.C,B3*%
X146170000Y-59000000D02*
G75*
G02*
X151170000Y-59000000I2500000J0D01*
G01*
X151170000Y-49000000D02*
G75*
G02*
X146170000Y-49000000I-2500000J0D01*
G01*
D12*
%TO.C,D21*%
X195590000Y-69360000D02*
X195590000Y-65350000D01*
X195590000Y-69360000D02*
X197590000Y-69360000D01*
X197590000Y-69360000D02*
X197590000Y-65350000D01*
%TO.C,SW31*%
X219685000Y-86015000D02*
X233655000Y-86015000D01*
X219685000Y-99985000D02*
X219685000Y-86015000D01*
X233655000Y-86015000D02*
X233655000Y-99985000D01*
X233655000Y-99985000D02*
X219685000Y-99985000D01*
%TO.C,D15*%
X172920000Y-94360000D02*
X172920000Y-90350000D01*
X172920000Y-94360000D02*
X174920000Y-94360000D01*
X174920000Y-94360000D02*
X174920000Y-90350000D01*
%TO.C,D32*%
X103160000Y-115360000D02*
X103160000Y-111350000D01*
X103160000Y-115360000D02*
X105160000Y-115360000D01*
X105160000Y-115360000D02*
X105160000Y-111350000D01*
%TO.C,TP4*%
X38700000Y-111000000D02*
G75*
G02*
X36300000Y-111000000I-1200000J0D01*
G01*
X36300000Y-111000000D02*
G75*
G02*
X38700000Y-111000000I1200000J0D01*
G01*
%TO.C,TP1*%
X260950000Y-114250000D02*
G75*
G02*
X258550000Y-114250000I-1200000J0D01*
G01*
X258550000Y-114250000D02*
G75*
G02*
X260950000Y-114250000I1200000J0D01*
G01*
%TO.C,SW35*%
X240765000Y-48015000D02*
X254735000Y-48015000D01*
X240765000Y-61985000D02*
X240765000Y-48015000D01*
X254735000Y-48015000D02*
X254735000Y-61985000D01*
X254735000Y-61985000D02*
X240765000Y-61985000D01*
%TO.C,SW32*%
X106095000Y-107015000D02*
X120065000Y-107015000D01*
X106095000Y-120985000D02*
X106095000Y-107015000D01*
X120065000Y-107015000D02*
X120065000Y-120985000D01*
X120065000Y-120985000D02*
X106095000Y-120985000D01*
%TO.C,D19*%
X195590000Y-48360000D02*
X195590000Y-44350000D01*
X195590000Y-48360000D02*
X197590000Y-48360000D01*
X197590000Y-48360000D02*
X197590000Y-44350000D01*
%TO.C,D12*%
X60910000Y-73360000D02*
X60910000Y-69350000D01*
X60910000Y-73360000D02*
X62910000Y-73360000D01*
X62910000Y-73360000D02*
X62910000Y-69350000D01*
%TO.C,D22*%
X81910000Y-90360000D02*
X81910000Y-86350000D01*
X81910000Y-90360000D02*
X83910000Y-90360000D01*
X83910000Y-90360000D02*
X83910000Y-86350000D01*
%TO.C,D38*%
X126000000Y-98360000D02*
X126000000Y-94350000D01*
X126000000Y-98360000D02*
X128000000Y-98360000D01*
X128000000Y-98360000D02*
X128000000Y-94350000D01*
%TD*%
M02*
