%TF.GenerationSoftware,KiCad,Pcbnew,9.0.6*%
%TF.CreationDate,2026-01-14T16:12:01+11:00*%
%TF.ProjectId,Split Keyboard,53706c69-7420-44b6-9579-626f6172642e,rev?*%
%TF.SameCoordinates,Original*%
%TF.FileFunction,Copper,L2,Bot*%
%TF.FilePolarity,Positive*%
%FSLAX46Y46*%
G04 Gerber Fmt 4.6, Leading zero omitted, Abs format (unit mm)*
G04 Created by KiCad (PCBNEW 9.0.6) date 2026-01-14 16:12:01*
%MOMM*%
%LPD*%
G01*
G04 APERTURE LIST*
G04 Aperture macros list*
%AMRoundRect*
0 Rectangle with rounded corners*
0 $1 Rounding radius*
0 $2 $3 $4 $5 $6 $7 $8 $9 X,Y pos of 4 corners*
0 Add a 4 corners polygon primitive as box body*
4,1,4,$2,$3,$4,$5,$6,$7,$8,$9,$2,$3,0*
0 Add four circle primitives for the rounded corners*
1,1,$1+$1,$2,$3*
1,1,$1+$1,$4,$5*
1,1,$1+$1,$6,$7*
1,1,$1+$1,$8,$9*
0 Add four rect primitives between the rounded corners*
20,1,$1+$1,$2,$3,$4,$5,0*
20,1,$1+$1,$4,$5,$6,$7,0*
20,1,$1+$1,$6,$7,$8,$9,0*
20,1,$1+$1,$8,$9,$2,$3,0*%
G04 Aperture macros list end*
%TA.AperFunction,ComponentPad*%
%ADD10C,2.200000*%
%TD*%
%TA.AperFunction,ComponentPad*%
%ADD11RoundRect,0.750000X0.750000X-0.750000X0.750000X0.750000X-0.750000X0.750000X-0.750000X-0.750000X0*%
%TD*%
%TA.AperFunction,ComponentPad*%
%ADD12RoundRect,0.750000X-0.750000X0.750000X-0.750000X-0.750000X0.750000X-0.750000X0.750000X0.750000X0*%
%TD*%
%TA.AperFunction,ViaPad*%
%ADD13C,0.600000*%
%TD*%
%TA.AperFunction,Conductor*%
%ADD14C,0.200000*%
%TD*%
G04 APERTURE END LIST*
D10*
%TO.P,SW20,1,1*%
%TO.N,/Right/COL4*%
X94450000Y-62920000D03*
%TO.P,SW20,2,2*%
%TO.N,Net-(D20-A)*%
X88100000Y-65460000D03*
%TD*%
%TO.P,SW36,1,1*%
%TO.N,/Right/COL2*%
X138460000Y-70920000D03*
%TO.P,SW36,2,2*%
%TO.N,Net-(D36-A)*%
X132110000Y-73460000D03*
%TD*%
%TO.P,SW42,1,1*%
%TO.N,/Right/COL4*%
X31290000Y-125920000D03*
%TO.P,SW42,2,2*%
%TO.N,Net-(D42-A)*%
X24940000Y-128460000D03*
%TD*%
%TO.P,SW37,1,1*%
%TO.N,/left/COL3*%
X250290000Y-70920000D03*
%TO.P,SW37,2,2*%
%TO.N,Net-(D37-A)*%
X243940000Y-73460000D03*
%TD*%
%TO.P,SW40,1,1*%
%TO.N,/Right/COL4*%
X138460000Y-112920000D03*
%TO.P,SW40,2,2*%
%TO.N,Net-(D40-A)*%
X132110000Y-115460000D03*
%TD*%
%TO.P,SW38,1,1*%
%TO.N,/Right/COL3*%
X138460000Y-91920000D03*
%TO.P,SW38,2,2*%
%TO.N,Net-(D38-A)*%
X132110000Y-94460000D03*
%TD*%
%TO.P,SW27,1,1*%
%TO.N,/left/COL3*%
X229210000Y-45920000D03*
%TO.P,SW27,2,2*%
%TO.N,Net-(D27-A)*%
X222860000Y-48460000D03*
%TD*%
%TO.P,SW6,1,1*%
%TO.N,/Right/COL2*%
X52370000Y-91920000D03*
%TO.P,SW6,2,2*%
%TO.N,Net-(D6-A)*%
X46020000Y-94460000D03*
%TD*%
%TO.P,SW12,1,1*%
%TO.N,/Right/COL0*%
X73370000Y-66920000D03*
%TO.P,SW12,2,2*%
%TO.N,Net-(D12-A)*%
X67020000Y-69460000D03*
%TD*%
%TO.P,SW8,1,1*%
%TO.N,/Right/COL3*%
X52370000Y-112920000D03*
%TO.P,SW8,2,2*%
%TO.N,Net-(D8-A)*%
X46020000Y-115460000D03*
%TD*%
%TO.P,SW14,1,1*%
%TO.N,/Right/COL1*%
X73370000Y-87920000D03*
%TO.P,SW14,2,2*%
%TO.N,Net-(D14-A)*%
X67020000Y-90460000D03*
%TD*%
%TO.P,SW17,1,1*%
%TO.N,/left/COL3*%
X185460000Y-108920000D03*
%TO.P,SW17,2,2*%
%TO.N,Net-(D17-A)*%
X179110000Y-111460000D03*
%TD*%
%TO.P,SW25,1,1*%
%TO.N,/left/COL2*%
X208210000Y-104920000D03*
%TO.P,SW25,2,2*%
%TO.N,Net-(D25-A)*%
X201860000Y-107460000D03*
%TD*%
%TO.P,SW13,1,1*%
%TO.N,/left/COL1*%
X185460000Y-66920000D03*
%TO.P,SW13,2,2*%
%TO.N,Net-(D13-A)*%
X179110000Y-69460000D03*
%TD*%
D11*
%TO.P,U1,15,BAT*%
%TO.N,/left/VBAT*%
X272321500Y-105035000D03*
%TO.P,U1,16,GND*%
%TO.N,GND*%
X275721500Y-105035000D03*
%TD*%
D10*
%TO.P,SW16,1,1*%
%TO.N,/Right/COL2*%
X73450000Y-108920000D03*
%TO.P,SW16,2,2*%
%TO.N,Net-(D16-A)*%
X67100000Y-111460000D03*
%TD*%
%TO.P,SW28,1,1*%
%TO.N,/Right/COL3*%
X115700000Y-66920000D03*
%TO.P,SW28,2,2*%
%TO.N,Net-(D28-A)*%
X109350000Y-69460000D03*
%TD*%
%TO.P,SW24,1,1*%
%TO.N,/Right/COL1*%
X94370000Y-104920000D03*
%TO.P,SW24,2,2*%
%TO.N,Net-(D24-A)*%
X88020000Y-107460000D03*
%TD*%
%TO.P,SW22,1,1*%
%TO.N,/Right/COL0*%
X94370000Y-83920000D03*
%TO.P,SW22,2,2*%
%TO.N,Net-(D22-A)*%
X88020000Y-86460000D03*
%TD*%
D12*
%TO.P,U2,15,BAT*%
%TO.N,/Right/VBAT*%
X24638500Y-112675000D03*
%TO.P,U2,16,GND*%
%TO.N,GND*%
X21238500Y-112675000D03*
%TD*%
D10*
%TO.P,SW15,1,1*%
%TO.N,/left/COL2*%
X185460000Y-87920000D03*
%TO.P,SW15,2,2*%
%TO.N,Net-(D15-A)*%
X179110000Y-90460000D03*
%TD*%
%TO.P,SW4,1,1*%
%TO.N,/Right/COL1*%
X52450000Y-70920000D03*
%TO.P,SW4,2,2*%
%TO.N,Net-(D4-A)*%
X46100000Y-73460000D03*
%TD*%
%TO.P,SW11,1,1*%
%TO.N,/left/COL0*%
X185460000Y-45920000D03*
%TO.P,SW11,2,2*%
%TO.N,Net-(D11-A)*%
X179110000Y-48460000D03*
%TD*%
%TO.P,SW33,1,1*%
%TO.N,/left/COL1*%
X229290000Y-108920000D03*
%TO.P,SW33,2,2*%
%TO.N,Net-(D33-A)*%
X222940000Y-111460000D03*
%TD*%
%TO.P,SW23,1,1*%
%TO.N,/left/COL1*%
X208130000Y-83920000D03*
%TO.P,SW23,2,2*%
%TO.N,Net-(D23-A)*%
X201780000Y-86460000D03*
%TD*%
%TO.P,SW5,1,1*%
%TO.N,/left/COL2*%
X164540000Y-70920000D03*
%TO.P,SW5,2,2*%
%TO.N,Net-(D5-A)*%
X158190000Y-73460000D03*
%TD*%
%TO.P,SW3,1,1*%
%TO.N,/left/COL1*%
X164540000Y-49920000D03*
%TO.P,SW3,2,2*%
%TO.N,Net-(D3-A)*%
X158190000Y-52460000D03*
%TD*%
%TO.P,SW18,1,1*%
%TO.N,/Right/COL3*%
X94370000Y-41920000D03*
%TO.P,SW18,2,2*%
%TO.N,Net-(D18-A)*%
X88020000Y-44460000D03*
%TD*%
%TO.P,SW1,1,1*%
%TO.N,/left/COL0*%
X271290000Y-125920000D03*
%TO.P,SW1,2,2*%
%TO.N,Net-(D1-A)*%
X264940000Y-128460000D03*
%TD*%
%TO.P,SW34,1,1*%
%TO.N,/Right/COL1*%
X138460000Y-49920000D03*
%TO.P,SW34,2,2*%
%TO.N,Net-(D34-A)*%
X132110000Y-52460000D03*
%TD*%
%TO.P,SW2,1,1*%
%TO.N,/Right/COL0*%
X52370000Y-49920000D03*
%TO.P,SW2,2,2*%
%TO.N,Net-(D2-A)*%
X46020000Y-52460000D03*
%TD*%
%TO.P,SW41,1,1*%
%TO.N,/left/COL4*%
X250290000Y-112920000D03*
%TO.P,SW41,2,2*%
%TO.N,Net-(D41-A)*%
X243940000Y-115460000D03*
%TD*%
%TO.P,SW9,1,1*%
%TO.N,/left/COL4*%
X164540000Y-112920000D03*
%TO.P,SW9,2,2*%
%TO.N,Net-(D9-A)*%
X158190000Y-115460000D03*
%TD*%
%TO.P,SW29,1,1*%
%TO.N,/left/COL4*%
X229210000Y-66920000D03*
%TO.P,SW29,2,2*%
%TO.N,Net-(D29-A)*%
X222860000Y-69460000D03*
%TD*%
%TO.P,SW10,1,1*%
%TO.N,/Right/COL4*%
X73450000Y-45920000D03*
%TO.P,SW10,2,2*%
%TO.N,Net-(D10-A)*%
X67100000Y-48460000D03*
%TD*%
%TO.P,SW30,1,1*%
%TO.N,/Right/COL4*%
X115620000Y-87920000D03*
%TO.P,SW30,2,2*%
%TO.N,Net-(D30-A)*%
X109270000Y-90460000D03*
%TD*%
%TO.P,SW39,1,1*%
%TO.N,/left/COL4*%
X250290000Y-91920000D03*
%TO.P,SW39,2,2*%
%TO.N,Net-(D39-A)*%
X243940000Y-94460000D03*
%TD*%
%TO.P,SW26,1,1*%
%TO.N,/Right/COL2*%
X115620000Y-45920000D03*
%TO.P,SW26,2,2*%
%TO.N,Net-(D26-A)*%
X109270000Y-48460000D03*
%TD*%
%TO.P,SW7,1,1*%
%TO.N,/left/COL3*%
X164540000Y-91920000D03*
%TO.P,SW7,2,2*%
%TO.N,Net-(D7-A)*%
X158190000Y-94460000D03*
%TD*%
%TO.P,SW21,1,1*%
%TO.N,/left/COL0*%
X208130000Y-62920000D03*
%TO.P,SW21,2,2*%
%TO.N,Net-(D21-A)*%
X201780000Y-65460000D03*
%TD*%
%TO.P,SW19,1,1*%
%TO.N,/left/COL4*%
X208130000Y-41920000D03*
%TO.P,SW19,2,2*%
%TO.N,Net-(D19-A)*%
X201780000Y-44460000D03*
%TD*%
%TO.P,SW31,1,1*%
%TO.N,/left/COL0*%
X229210000Y-87920000D03*
%TO.P,SW31,2,2*%
%TO.N,Net-(D31-A)*%
X222860000Y-90460000D03*
%TD*%
%TO.P,SW35,1,1*%
%TO.N,/left/COL2*%
X250290000Y-49920000D03*
%TO.P,SW35,2,2*%
%TO.N,Net-(D35-A)*%
X243940000Y-52460000D03*
%TD*%
%TO.P,SW32,1,1*%
%TO.N,/Right/COL0*%
X115620000Y-108920000D03*
%TO.P,SW32,2,2*%
%TO.N,Net-(D32-A)*%
X109270000Y-111460000D03*
%TD*%
D13*
%TO.N,Net-(D1-A)*%
X263086000Y-126607000D03*
%TO.N,/left/ROW0*%
X152958000Y-77885000D03*
X153064000Y-57055100D03*
X155139000Y-117746000D03*
X152958000Y-98714900D03*
%TO.N,/Right/ROW0*%
X42528500Y-97817400D03*
X47844300Y-52922600D03*
X45044800Y-57054700D03*
X42528500Y-77193500D03*
X42528500Y-115567000D03*
%TO.N,Net-(D9-A)*%
X156164000Y-115493000D03*
%TO.N,/left/ROW1*%
X176090000Y-72155400D03*
X169843000Y-51709100D03*
X176939000Y-95238800D03*
X170944000Y-115562000D03*
%TO.N,/Right/ROW1*%
X83012900Y-48628000D03*
X59784100Y-115370000D03*
X53409800Y-74121100D03*
X52682100Y-97738800D03*
X84511700Y-68339300D03*
%TO.N,/left/ROW2*%
X198306000Y-109659000D03*
X201773000Y-69215900D03*
X218627000Y-53860900D03*
X197922400Y-113298500D03*
X198300000Y-88999100D03*
X202512000Y-72650000D03*
X219338000Y-72482700D03*
%TO.N,/Right/ROW2*%
X84013600Y-94901900D03*
X102799000Y-71290700D03*
X101999000Y-94901900D03*
X84511700Y-107817000D03*
X102833000Y-52760300D03*
%TO.N,/left/ROW3*%
X242886000Y-57054700D03*
X240369000Y-97853300D03*
X236771000Y-77193500D03*
X215739000Y-94901900D03*
X217304000Y-112943000D03*
%TO.N,/Right/ROW3*%
X120199000Y-51498000D03*
X125676000Y-76186800D03*
X125440000Y-118513000D03*
X128754000Y-95413800D03*
%TO.N,/left/ROW4*%
X240369000Y-118513000D03*
X239889000Y-105741000D03*
%TO.N,/left/VBAT*%
X270698000Y-97031300D03*
%TO.N,/Right/VBAT*%
X35738300Y-102058000D03*
X22230800Y-95405200D03*
%TO.N,/Right/BT_PIN*%
X17778300Y-114607000D03*
X21288200Y-94901900D03*
%TO.N,GND*%
X20538800Y-101778000D03*
X263950000Y-104221000D03*
X278460000Y-95789300D03*
X276421000Y-115260000D03*
X267563000Y-107381000D03*
%TO.N,/left/COL0*%
X269865000Y-97853300D03*
%TO.N,/Right/COL0*%
X37318300Y-109092000D03*
X115326000Y-89747400D03*
%TO.N,/left/COL1*%
X207181000Y-71448100D03*
%TO.N,/Right/COL1*%
X99006700Y-47928000D03*
X29108700Y-118369000D03*
%TO.N,/left/COL2*%
X207565000Y-90959300D03*
X182934000Y-74983900D03*
X244943000Y-97154700D03*
%TO.N,/Right/COL2*%
X50405600Y-112124000D03*
X57018200Y-77717900D03*
%TO.N,/left/COL3*%
X269066000Y-103409000D03*
X232679000Y-70622700D03*
X182934000Y-95813800D03*
%TO.N,/Right/COL3*%
X125980000Y-91950500D03*
X137970000Y-100805000D03*
%TO.N,/left/COL4*%
X250290000Y-103152000D03*
X232679000Y-91452600D03*
%TO.N,/Right/COL4*%
X119985000Y-109659000D03*
X30480000Y-114608000D03*
X104997000Y-62436500D03*
%TD*%
D14*
%TO.N,Net-(D1-A)*%
X264940000Y-128460000D02*
X264939000Y-128460000D01*
X264939000Y-128460000D02*
X263086000Y-126607000D01*
%TO.N,/left/ROW0*%
X153064000Y-57055100D02*
X152958000Y-57160300D01*
X155139000Y-117746000D02*
X155139000Y-100895000D01*
X152958000Y-77885000D02*
X152958000Y-98714900D01*
X152958000Y-57160300D02*
X152958000Y-77885000D01*
X155139000Y-100895000D02*
X152958000Y-98714900D01*
%TO.N,/Right/ROW0*%
X42528500Y-113212000D02*
X42126800Y-112811000D01*
X46998600Y-55100900D02*
X46998600Y-53768300D01*
X42528500Y-115567000D02*
X42528500Y-113212000D01*
X42126800Y-112811000D02*
X42126800Y-97817400D01*
X46998600Y-53768300D02*
X47844300Y-52922600D01*
X42126800Y-97817400D02*
X42528500Y-97817400D01*
X42528500Y-77193500D02*
X42528500Y-97817400D01*
X45044800Y-57054700D02*
X46998600Y-55100900D01*
X42528500Y-77193500D02*
X42528500Y-59571000D01*
X42528500Y-59571000D02*
X45044800Y-57054700D01*
%TO.N,Net-(D9-A)*%
X156197000Y-115460000D02*
X156164000Y-115493000D01*
X158190000Y-115460000D02*
X156197000Y-115460000D01*
%TO.N,/left/ROW1*%
X176939000Y-95238800D02*
X170944000Y-101234000D01*
X176090000Y-94389800D02*
X176090000Y-72155400D01*
X176090000Y-59369600D02*
X169843000Y-53122100D01*
X176090000Y-72155400D02*
X176090000Y-59369600D01*
X169843000Y-53122100D02*
X169843000Y-51709100D01*
X170944000Y-101234000D02*
X170944000Y-115562000D01*
X176939000Y-95238800D02*
X176090000Y-94389800D01*
%TO.N,/Right/ROW1*%
X52682100Y-97738800D02*
X52682100Y-95291600D01*
X53409800Y-81173200D02*
X53409800Y-74121100D01*
X50960800Y-83622200D02*
X53409800Y-81173200D01*
X83012900Y-66840500D02*
X84511700Y-68339300D01*
X52682100Y-95291600D02*
X50960800Y-93570300D01*
X52682100Y-97738800D02*
X52682100Y-108847000D01*
X50960800Y-93570300D02*
X50960800Y-83622200D01*
X49756700Y-112387000D02*
X52739700Y-115370000D01*
X52682100Y-108847000D02*
X49756700Y-111773000D01*
X83012900Y-48628000D02*
X83012900Y-66840500D01*
X49756700Y-111773000D02*
X49756700Y-112387000D01*
X52739700Y-115370000D02*
X59784100Y-115370000D01*
%TO.N,/left/ROW2*%
X198306000Y-89004700D02*
X198306000Y-109659000D01*
X197922400Y-110042600D02*
X197922400Y-113298500D01*
X198300000Y-76861600D02*
X198300000Y-88999100D01*
X198306000Y-109659000D02*
X197922400Y-110042600D01*
X201773000Y-69215900D02*
X201773000Y-71910800D01*
X198300000Y-88999100D02*
X198306000Y-89004700D01*
X201773000Y-71910800D02*
X202512000Y-72650000D01*
X218627000Y-71772000D02*
X219338000Y-72482700D01*
X202512000Y-72650000D02*
X198300000Y-76861600D01*
X218627000Y-53860900D02*
X218627000Y-71772000D01*
%TO.N,/Right/ROW2*%
X102799000Y-94102500D02*
X101999000Y-94901900D01*
X102833000Y-52760300D02*
X102833000Y-71256600D01*
X102799000Y-71290700D02*
X102799000Y-94102500D01*
X102833000Y-71256600D02*
X102799000Y-71290700D01*
X84511700Y-95400000D02*
X84013600Y-94901900D01*
X84511700Y-107817000D02*
X84511700Y-95400000D01*
%TO.N,/left/ROW3*%
X242886000Y-57054700D02*
X236771000Y-63170300D01*
X236771000Y-77193500D02*
X240369000Y-80792000D01*
X236771000Y-63170300D02*
X236771000Y-77193500D01*
X240369000Y-80792000D02*
X240369000Y-97853300D01*
X217304000Y-112943000D02*
X215739000Y-111378000D01*
X215739000Y-111378000D02*
X215739000Y-94901900D01*
%TO.N,/Right/ROW3*%
X125676000Y-76186800D02*
X120199000Y-70710500D01*
X128754000Y-79265200D02*
X125676000Y-76186800D01*
X128754000Y-95413800D02*
X125440000Y-98727500D01*
X128754000Y-95413800D02*
X128754000Y-79265200D01*
X125440000Y-98727500D02*
X125440000Y-118513000D01*
X120199000Y-70710500D02*
X120199000Y-51498000D01*
%TO.N,/left/ROW4*%
X239889000Y-118033000D02*
X240369000Y-118513000D01*
X239889000Y-105741000D02*
X239889000Y-118033000D01*
%TO.N,/left/VBAT*%
X272322000Y-104234000D02*
X272322000Y-105035000D01*
X270698000Y-97031300D02*
X272321000Y-98654400D01*
X272322000Y-98654400D02*
X272322000Y-104234000D01*
X272321000Y-98654400D02*
X272322000Y-98654400D01*
X272321500Y-105035000D02*
X272322000Y-105035000D01*
X272322000Y-104234000D02*
X272322000Y-105035000D01*
%TO.N,/Right/VBAT*%
X22230800Y-110267000D02*
X24638500Y-112675000D01*
X24638500Y-112675000D02*
X25121400Y-112675000D01*
X22230800Y-95405200D02*
X22230800Y-110267000D01*
X25121400Y-112675000D02*
X35738300Y-102058000D01*
%TO.N,/Right/BT_PIN*%
X17778300Y-98411800D02*
X21288200Y-94901900D01*
X17778300Y-114607000D02*
X17778300Y-98411800D01*
%TO.N,GND*%
X21238500Y-112675000D02*
X21238500Y-102478000D01*
X263950000Y-104221000D02*
X264403000Y-104221000D01*
X264403000Y-104221000D02*
X267563000Y-107381000D01*
X275722000Y-98528000D02*
X275722000Y-105035000D01*
X275722000Y-114560000D02*
X275722000Y-105035000D01*
X275721500Y-105035000D02*
X275722000Y-105035000D01*
X21238500Y-102478000D02*
X20538800Y-101778000D01*
X276421000Y-115260000D02*
X275722000Y-114560000D01*
X278460000Y-95789300D02*
X275722000Y-98528000D01*
%TO.N,/left/COL0*%
X202460000Y-62920000D02*
X208130000Y-62920000D01*
X229210000Y-84000000D02*
X229210000Y-87920000D01*
X269865000Y-97853300D02*
X269865000Y-124495000D01*
X208130000Y-62920000D02*
X229210000Y-84000000D01*
X269865000Y-124495000D02*
X271290000Y-125920000D01*
X185460000Y-45920000D02*
X202460000Y-62920000D01*
%TO.N,/Right/COL0*%
X90370000Y-83920000D02*
X73370000Y-66920000D01*
X94370000Y-83920000D02*
X90370000Y-83920000D01*
X115671000Y-108869000D02*
X115620000Y-108920000D01*
X37318300Y-59105000D02*
X46503300Y-49920000D01*
X115671000Y-90091800D02*
X115671000Y-108869000D01*
X37318300Y-109092000D02*
X37318300Y-59105000D01*
X69370000Y-66920000D02*
X52370000Y-49920000D01*
X73370000Y-66920000D02*
X69370000Y-66920000D01*
X46503300Y-49920000D02*
X52370000Y-49920000D01*
X115326000Y-89747400D02*
X115671000Y-90091800D01*
%TO.N,/left/COL1*%
X185460000Y-66475500D02*
X168904000Y-49920000D01*
X208130000Y-83920000D02*
X229290000Y-105080000D01*
X207181000Y-82970800D02*
X208130000Y-83920000D01*
X168904000Y-49920000D02*
X164540000Y-49920000D01*
X185460000Y-66920000D02*
X185460000Y-66475500D01*
X229290000Y-105080000D02*
X229290000Y-108920000D01*
X207181000Y-71448100D02*
X207181000Y-82970800D01*
%TO.N,/Right/COL1*%
X30240500Y-113996000D02*
X29108700Y-115128000D01*
X90896700Y-97018500D02*
X99006700Y-88908500D01*
X52450000Y-70920000D02*
X52521100Y-70991100D01*
X29108700Y-115128000D02*
X29108700Y-118369000D01*
X46824700Y-112177000D02*
X42806600Y-116196000D01*
X34612400Y-116196000D02*
X32413300Y-113996000D01*
X42806600Y-116196000D02*
X34612400Y-116196000D01*
X73370000Y-87920000D02*
X69450000Y-87920000D01*
X48589100Y-85284500D02*
X48589100Y-94505600D01*
X69450000Y-87920000D02*
X52450000Y-70920000D01*
X99006700Y-88908500D02*
X99006700Y-47928000D01*
X46824700Y-96270000D02*
X46824700Y-112177000D01*
X48589100Y-94505600D02*
X46824700Y-96270000D01*
X32413300Y-113996000D02*
X30240500Y-113996000D01*
X81798100Y-87920000D02*
X73370000Y-87920000D01*
X94370000Y-104920000D02*
X94370000Y-100492000D01*
X94370000Y-100492000D02*
X90896700Y-97018500D01*
X90896700Y-97018500D02*
X81798100Y-87920000D01*
X52521100Y-70991100D02*
X52521100Y-81352500D01*
X52521100Y-81352500D02*
X48589100Y-85284500D01*
%TO.N,/left/COL2*%
X250361000Y-56669000D02*
X250361000Y-49991100D01*
X245177000Y-74732100D02*
X246044000Y-73865300D01*
X245177000Y-79671100D02*
X245177000Y-74732100D01*
X207565000Y-90959300D02*
X207565000Y-104275000D01*
X182934000Y-74983900D02*
X185460000Y-77509500D01*
X246044000Y-60986300D02*
X250361000Y-56669000D01*
X246044000Y-73865300D02*
X246044000Y-60986300D01*
X185460000Y-77509500D02*
X185460000Y-87920000D01*
X250361000Y-49991100D02*
X250290000Y-49920000D01*
X245358000Y-95551200D02*
X245358000Y-79852000D01*
X244943000Y-97154700D02*
X244943000Y-95966500D01*
X207565000Y-104275000D02*
X208210000Y-104920000D01*
X245358000Y-79852000D02*
X245177000Y-79671100D01*
X244943000Y-95966500D02*
X245358000Y-95551200D01*
%TO.N,/Right/COL2*%
X69370000Y-108920000D02*
X61489600Y-101040000D01*
X52370000Y-91920000D02*
X57018200Y-87271800D01*
X57018200Y-87271800D02*
X57018200Y-77717900D01*
X61489600Y-101040000D02*
X50405600Y-112124000D01*
X138460000Y-70920000D02*
X138460000Y-68760000D01*
X73450000Y-108920000D02*
X69370000Y-108920000D01*
X138460000Y-68760000D02*
X115620000Y-45920000D01*
X61489600Y-101040000D02*
X52370000Y-91920000D01*
%TO.N,/left/COL3*%
X182934000Y-95813800D02*
X185460000Y-98339400D01*
X256753000Y-77382800D02*
X256753000Y-91096500D01*
X232679000Y-70622700D02*
X232679000Y-65903400D01*
X250290000Y-70920000D02*
X256753000Y-77382800D01*
X230023000Y-63247300D02*
X230023000Y-46733200D01*
X185460000Y-98339400D02*
X185460000Y-108920000D01*
X232679000Y-65903400D02*
X230023000Y-63247300D01*
X230023000Y-46733200D02*
X229210000Y-45920000D01*
X256753000Y-91096500D02*
X269066000Y-103409000D01*
%TO.N,/Right/COL3*%
X138511000Y-91970800D02*
X138460000Y-91920000D01*
X120828000Y-72048500D02*
X115700000Y-66920000D01*
X125980000Y-91950500D02*
X120828000Y-86799000D01*
X137970000Y-100805000D02*
X138511000Y-100264000D01*
X120828000Y-86799000D02*
X120828000Y-72048500D01*
X94370000Y-41920000D02*
X115700000Y-63250000D01*
X115700000Y-63250000D02*
X115700000Y-66920000D01*
X138511000Y-100264000D02*
X138511000Y-91970800D01*
%TO.N,/left/COL4*%
X229210000Y-63000000D02*
X208130000Y-41920000D01*
X250352000Y-91982300D02*
X250352000Y-103089000D01*
X229210000Y-66920000D02*
X229210000Y-63000000D01*
X232679000Y-88849300D02*
X229623000Y-85793000D01*
X250290000Y-91920000D02*
X250352000Y-91982300D01*
X250290000Y-103152000D02*
X250290000Y-112920000D01*
X229623000Y-85793000D02*
X229623000Y-67333000D01*
X250352000Y-103089000D02*
X250290000Y-103152000D01*
X232679000Y-91452600D02*
X232679000Y-88849300D01*
X229623000Y-67333000D02*
X229210000Y-66920000D01*
%TO.N,/Right/COL4*%
X119985000Y-92284800D02*
X115620000Y-87920000D01*
X119985000Y-109659000D02*
X119985000Y-92284800D01*
X104997000Y-77296800D02*
X104997000Y-62436500D01*
X94450000Y-59150500D02*
X94450000Y-62920000D01*
X30480000Y-125110000D02*
X30480000Y-114608000D01*
X81219500Y-45920000D02*
X94450000Y-59150500D01*
X73450000Y-45920000D02*
X81219500Y-45920000D01*
X115620000Y-87920000D02*
X104997000Y-77296800D01*
X31290000Y-125920000D02*
X30480000Y-125110000D01*
%TD*%
M02*
